G04 #@! TF.GenerationSoftware,KiCad,Pcbnew,8.0.4*
G04 #@! TF.CreationDate,2024-11-04T17:51:44-06:00*
G04 #@! TF.ProjectId,final_project_v0.1,66696e61-6c5f-4707-926f-6a6563745f76,rev?*
G04 #@! TF.SameCoordinates,Original*
G04 #@! TF.FileFunction,Legend,Top*
G04 #@! TF.FilePolarity,Positive*
%FSLAX46Y46*%
G04 Gerber Fmt 4.6, Leading zero omitted, Abs format (unit mm)*
G04 Created by KiCad (PCBNEW 8.0.4) date 2024-11-04 17:51:44*
%MOMM*%
%LPD*%
G01*
G04 APERTURE LIST*
%ADD10C,0.150000*%
%ADD11C,0.120000*%
%ADD12C,0.152400*%
G04 APERTURE END LIST*
D10*
X86920112Y-140486065D02*
X86586779Y-140486065D01*
X86586779Y-141009875D02*
X86586779Y-140009875D01*
X86586779Y-140009875D02*
X87062969Y-140009875D01*
X87396303Y-140724160D02*
X87872493Y-140724160D01*
X87301065Y-141009875D02*
X87634398Y-140009875D01*
X87634398Y-140009875D02*
X87967731Y-141009875D01*
X88253446Y-140105113D02*
X88301065Y-140057494D01*
X88301065Y-140057494D02*
X88396303Y-140009875D01*
X88396303Y-140009875D02*
X88634398Y-140009875D01*
X88634398Y-140009875D02*
X88729636Y-140057494D01*
X88729636Y-140057494D02*
X88777255Y-140105113D01*
X88777255Y-140105113D02*
X88824874Y-140200351D01*
X88824874Y-140200351D02*
X88824874Y-140295589D01*
X88824874Y-140295589D02*
X88777255Y-140438446D01*
X88777255Y-140438446D02*
X88205827Y-141009875D01*
X88205827Y-141009875D02*
X88824874Y-141009875D01*
X89443922Y-140009875D02*
X89539160Y-140009875D01*
X89539160Y-140009875D02*
X89634398Y-140057494D01*
X89634398Y-140057494D02*
X89682017Y-140105113D01*
X89682017Y-140105113D02*
X89729636Y-140200351D01*
X89729636Y-140200351D02*
X89777255Y-140390827D01*
X89777255Y-140390827D02*
X89777255Y-140628922D01*
X89777255Y-140628922D02*
X89729636Y-140819398D01*
X89729636Y-140819398D02*
X89682017Y-140914636D01*
X89682017Y-140914636D02*
X89634398Y-140962256D01*
X89634398Y-140962256D02*
X89539160Y-141009875D01*
X89539160Y-141009875D02*
X89443922Y-141009875D01*
X89443922Y-141009875D02*
X89348684Y-140962256D01*
X89348684Y-140962256D02*
X89301065Y-140914636D01*
X89301065Y-140914636D02*
X89253446Y-140819398D01*
X89253446Y-140819398D02*
X89205827Y-140628922D01*
X89205827Y-140628922D02*
X89205827Y-140390827D01*
X89205827Y-140390827D02*
X89253446Y-140200351D01*
X89253446Y-140200351D02*
X89301065Y-140105113D01*
X89301065Y-140105113D02*
X89348684Y-140057494D01*
X89348684Y-140057494D02*
X89443922Y-140009875D01*
X90158208Y-140105113D02*
X90205827Y-140057494D01*
X90205827Y-140057494D02*
X90301065Y-140009875D01*
X90301065Y-140009875D02*
X90539160Y-140009875D01*
X90539160Y-140009875D02*
X90634398Y-140057494D01*
X90634398Y-140057494D02*
X90682017Y-140105113D01*
X90682017Y-140105113D02*
X90729636Y-140200351D01*
X90729636Y-140200351D02*
X90729636Y-140295589D01*
X90729636Y-140295589D02*
X90682017Y-140438446D01*
X90682017Y-140438446D02*
X90110589Y-141009875D01*
X90110589Y-141009875D02*
X90729636Y-141009875D01*
X91586779Y-140343208D02*
X91586779Y-141009875D01*
X91348684Y-139962256D02*
X91110589Y-140676541D01*
X91110589Y-140676541D02*
X91729636Y-140676541D01*
X92729637Y-140009875D02*
X93301065Y-140009875D01*
X93015351Y-141009875D02*
X93015351Y-140009875D01*
X94015351Y-140962256D02*
X93920113Y-141009875D01*
X93920113Y-141009875D02*
X93729637Y-141009875D01*
X93729637Y-141009875D02*
X93634399Y-140962256D01*
X93634399Y-140962256D02*
X93586780Y-140867017D01*
X93586780Y-140867017D02*
X93586780Y-140486065D01*
X93586780Y-140486065D02*
X93634399Y-140390827D01*
X93634399Y-140390827D02*
X93729637Y-140343208D01*
X93729637Y-140343208D02*
X93920113Y-140343208D01*
X93920113Y-140343208D02*
X94015351Y-140390827D01*
X94015351Y-140390827D02*
X94062970Y-140486065D01*
X94062970Y-140486065D02*
X94062970Y-140581303D01*
X94062970Y-140581303D02*
X93586780Y-140676541D01*
X94920113Y-141009875D02*
X94920113Y-140486065D01*
X94920113Y-140486065D02*
X94872494Y-140390827D01*
X94872494Y-140390827D02*
X94777256Y-140343208D01*
X94777256Y-140343208D02*
X94586780Y-140343208D01*
X94586780Y-140343208D02*
X94491542Y-140390827D01*
X94920113Y-140962256D02*
X94824875Y-141009875D01*
X94824875Y-141009875D02*
X94586780Y-141009875D01*
X94586780Y-141009875D02*
X94491542Y-140962256D01*
X94491542Y-140962256D02*
X94443923Y-140867017D01*
X94443923Y-140867017D02*
X94443923Y-140771779D01*
X94443923Y-140771779D02*
X94491542Y-140676541D01*
X94491542Y-140676541D02*
X94586780Y-140628922D01*
X94586780Y-140628922D02*
X94824875Y-140628922D01*
X94824875Y-140628922D02*
X94920113Y-140581303D01*
X95396304Y-141009875D02*
X95396304Y-140343208D01*
X95396304Y-140438446D02*
X95443923Y-140390827D01*
X95443923Y-140390827D02*
X95539161Y-140343208D01*
X95539161Y-140343208D02*
X95682018Y-140343208D01*
X95682018Y-140343208D02*
X95777256Y-140390827D01*
X95777256Y-140390827D02*
X95824875Y-140486065D01*
X95824875Y-140486065D02*
X95824875Y-141009875D01*
X95824875Y-140486065D02*
X95872494Y-140390827D01*
X95872494Y-140390827D02*
X95967732Y-140343208D01*
X95967732Y-140343208D02*
X96110589Y-140343208D01*
X96110589Y-140343208D02*
X96205828Y-140390827D01*
X96205828Y-140390827D02*
X96253447Y-140486065D01*
X96253447Y-140486065D02*
X96253447Y-141009875D01*
X96634399Y-140009875D02*
X97253446Y-140009875D01*
X97253446Y-140009875D02*
X96920113Y-140390827D01*
X96920113Y-140390827D02*
X97062970Y-140390827D01*
X97062970Y-140390827D02*
X97158208Y-140438446D01*
X97158208Y-140438446D02*
X97205827Y-140486065D01*
X97205827Y-140486065D02*
X97253446Y-140581303D01*
X97253446Y-140581303D02*
X97253446Y-140819398D01*
X97253446Y-140819398D02*
X97205827Y-140914636D01*
X97205827Y-140914636D02*
X97158208Y-140962256D01*
X97158208Y-140962256D02*
X97062970Y-141009875D01*
X97062970Y-141009875D02*
X96777256Y-141009875D01*
X96777256Y-141009875D02*
X96682018Y-140962256D01*
X96682018Y-140962256D02*
X96634399Y-140914636D01*
X97586780Y-140009875D02*
X98205827Y-140009875D01*
X98205827Y-140009875D02*
X97872494Y-140390827D01*
X97872494Y-140390827D02*
X98015351Y-140390827D01*
X98015351Y-140390827D02*
X98110589Y-140438446D01*
X98110589Y-140438446D02*
X98158208Y-140486065D01*
X98158208Y-140486065D02*
X98205827Y-140581303D01*
X98205827Y-140581303D02*
X98205827Y-140819398D01*
X98205827Y-140819398D02*
X98158208Y-140914636D01*
X98158208Y-140914636D02*
X98110589Y-140962256D01*
X98110589Y-140962256D02*
X98015351Y-141009875D01*
X98015351Y-141009875D02*
X97729637Y-141009875D01*
X97729637Y-141009875D02*
X97634399Y-140962256D01*
X97634399Y-140962256D02*
X97586780Y-140914636D01*
X86443922Y-141619819D02*
X87015350Y-141619819D01*
X86729636Y-142619819D02*
X86729636Y-141619819D01*
X87729636Y-142572200D02*
X87634398Y-142619819D01*
X87634398Y-142619819D02*
X87443922Y-142619819D01*
X87443922Y-142619819D02*
X87348684Y-142572200D01*
X87348684Y-142572200D02*
X87301065Y-142476961D01*
X87301065Y-142476961D02*
X87301065Y-142096009D01*
X87301065Y-142096009D02*
X87348684Y-142000771D01*
X87348684Y-142000771D02*
X87443922Y-141953152D01*
X87443922Y-141953152D02*
X87634398Y-141953152D01*
X87634398Y-141953152D02*
X87729636Y-142000771D01*
X87729636Y-142000771D02*
X87777255Y-142096009D01*
X87777255Y-142096009D02*
X87777255Y-142191247D01*
X87777255Y-142191247D02*
X87301065Y-142286485D01*
X88634398Y-142619819D02*
X88634398Y-142096009D01*
X88634398Y-142096009D02*
X88586779Y-142000771D01*
X88586779Y-142000771D02*
X88491541Y-141953152D01*
X88491541Y-141953152D02*
X88301065Y-141953152D01*
X88301065Y-141953152D02*
X88205827Y-142000771D01*
X88634398Y-142572200D02*
X88539160Y-142619819D01*
X88539160Y-142619819D02*
X88301065Y-142619819D01*
X88301065Y-142619819D02*
X88205827Y-142572200D01*
X88205827Y-142572200D02*
X88158208Y-142476961D01*
X88158208Y-142476961D02*
X88158208Y-142381723D01*
X88158208Y-142381723D02*
X88205827Y-142286485D01*
X88205827Y-142286485D02*
X88301065Y-142238866D01*
X88301065Y-142238866D02*
X88539160Y-142238866D01*
X88539160Y-142238866D02*
X88634398Y-142191247D01*
X89110589Y-142619819D02*
X89110589Y-141953152D01*
X89110589Y-142048390D02*
X89158208Y-142000771D01*
X89158208Y-142000771D02*
X89253446Y-141953152D01*
X89253446Y-141953152D02*
X89396303Y-141953152D01*
X89396303Y-141953152D02*
X89491541Y-142000771D01*
X89491541Y-142000771D02*
X89539160Y-142096009D01*
X89539160Y-142096009D02*
X89539160Y-142619819D01*
X89539160Y-142096009D02*
X89586779Y-142000771D01*
X89586779Y-142000771D02*
X89682017Y-141953152D01*
X89682017Y-141953152D02*
X89824874Y-141953152D01*
X89824874Y-141953152D02*
X89920113Y-142000771D01*
X89920113Y-142000771D02*
X89967732Y-142096009D01*
X89967732Y-142096009D02*
X89967732Y-142619819D01*
X91205827Y-142619819D02*
X91205827Y-141619819D01*
X91205827Y-141619819D02*
X91539160Y-142334104D01*
X91539160Y-142334104D02*
X91872493Y-141619819D01*
X91872493Y-141619819D02*
X91872493Y-142619819D01*
X92729636Y-142572200D02*
X92634398Y-142619819D01*
X92634398Y-142619819D02*
X92443922Y-142619819D01*
X92443922Y-142619819D02*
X92348684Y-142572200D01*
X92348684Y-142572200D02*
X92301065Y-142476961D01*
X92301065Y-142476961D02*
X92301065Y-142096009D01*
X92301065Y-142096009D02*
X92348684Y-142000771D01*
X92348684Y-142000771D02*
X92443922Y-141953152D01*
X92443922Y-141953152D02*
X92634398Y-141953152D01*
X92634398Y-141953152D02*
X92729636Y-142000771D01*
X92729636Y-142000771D02*
X92777255Y-142096009D01*
X92777255Y-142096009D02*
X92777255Y-142191247D01*
X92777255Y-142191247D02*
X92301065Y-142286485D01*
X93205827Y-142619819D02*
X93205827Y-141953152D01*
X93205827Y-142048390D02*
X93253446Y-142000771D01*
X93253446Y-142000771D02*
X93348684Y-141953152D01*
X93348684Y-141953152D02*
X93491541Y-141953152D01*
X93491541Y-141953152D02*
X93586779Y-142000771D01*
X93586779Y-142000771D02*
X93634398Y-142096009D01*
X93634398Y-142096009D02*
X93634398Y-142619819D01*
X93634398Y-142096009D02*
X93682017Y-142000771D01*
X93682017Y-142000771D02*
X93777255Y-141953152D01*
X93777255Y-141953152D02*
X93920112Y-141953152D01*
X93920112Y-141953152D02*
X94015351Y-142000771D01*
X94015351Y-142000771D02*
X94062970Y-142096009D01*
X94062970Y-142096009D02*
X94062970Y-142619819D01*
X94539160Y-142619819D02*
X94539160Y-141619819D01*
X94539160Y-142000771D02*
X94634398Y-141953152D01*
X94634398Y-141953152D02*
X94824874Y-141953152D01*
X94824874Y-141953152D02*
X94920112Y-142000771D01*
X94920112Y-142000771D02*
X94967731Y-142048390D01*
X94967731Y-142048390D02*
X95015350Y-142143628D01*
X95015350Y-142143628D02*
X95015350Y-142429342D01*
X95015350Y-142429342D02*
X94967731Y-142524580D01*
X94967731Y-142524580D02*
X94920112Y-142572200D01*
X94920112Y-142572200D02*
X94824874Y-142619819D01*
X94824874Y-142619819D02*
X94634398Y-142619819D01*
X94634398Y-142619819D02*
X94539160Y-142572200D01*
X95824874Y-142572200D02*
X95729636Y-142619819D01*
X95729636Y-142619819D02*
X95539160Y-142619819D01*
X95539160Y-142619819D02*
X95443922Y-142572200D01*
X95443922Y-142572200D02*
X95396303Y-142476961D01*
X95396303Y-142476961D02*
X95396303Y-142096009D01*
X95396303Y-142096009D02*
X95443922Y-142000771D01*
X95443922Y-142000771D02*
X95539160Y-141953152D01*
X95539160Y-141953152D02*
X95729636Y-141953152D01*
X95729636Y-141953152D02*
X95824874Y-142000771D01*
X95824874Y-142000771D02*
X95872493Y-142096009D01*
X95872493Y-142096009D02*
X95872493Y-142191247D01*
X95872493Y-142191247D02*
X95396303Y-142286485D01*
X96301065Y-142619819D02*
X96301065Y-141953152D01*
X96301065Y-142143628D02*
X96348684Y-142048390D01*
X96348684Y-142048390D02*
X96396303Y-142000771D01*
X96396303Y-142000771D02*
X96491541Y-141953152D01*
X96491541Y-141953152D02*
X96586779Y-141953152D01*
X96872494Y-142572200D02*
X96967732Y-142619819D01*
X96967732Y-142619819D02*
X97158208Y-142619819D01*
X97158208Y-142619819D02*
X97253446Y-142572200D01*
X97253446Y-142572200D02*
X97301065Y-142476961D01*
X97301065Y-142476961D02*
X97301065Y-142429342D01*
X97301065Y-142429342D02*
X97253446Y-142334104D01*
X97253446Y-142334104D02*
X97158208Y-142286485D01*
X97158208Y-142286485D02*
X97015351Y-142286485D01*
X97015351Y-142286485D02*
X96920113Y-142238866D01*
X96920113Y-142238866D02*
X96872494Y-142143628D01*
X96872494Y-142143628D02*
X96872494Y-142096009D01*
X96872494Y-142096009D02*
X96920113Y-142000771D01*
X96920113Y-142000771D02*
X97015351Y-141953152D01*
X97015351Y-141953152D02*
X97158208Y-141953152D01*
X97158208Y-141953152D02*
X97253446Y-142000771D01*
X97729637Y-142524580D02*
X97777256Y-142572200D01*
X97777256Y-142572200D02*
X97729637Y-142619819D01*
X97729637Y-142619819D02*
X97682018Y-142572200D01*
X97682018Y-142572200D02*
X97729637Y-142524580D01*
X97729637Y-142524580D02*
X97729637Y-142619819D01*
X97729637Y-142000771D02*
X97777256Y-142048390D01*
X97777256Y-142048390D02*
X97729637Y-142096009D01*
X97729637Y-142096009D02*
X97682018Y-142048390D01*
X97682018Y-142048390D02*
X97729637Y-142000771D01*
X97729637Y-142000771D02*
X97729637Y-142096009D01*
X99539160Y-142619819D02*
X99205827Y-142143628D01*
X98967732Y-142619819D02*
X98967732Y-141619819D01*
X98967732Y-141619819D02*
X99348684Y-141619819D01*
X99348684Y-141619819D02*
X99443922Y-141667438D01*
X99443922Y-141667438D02*
X99491541Y-141715057D01*
X99491541Y-141715057D02*
X99539160Y-141810295D01*
X99539160Y-141810295D02*
X99539160Y-141953152D01*
X99539160Y-141953152D02*
X99491541Y-142048390D01*
X99491541Y-142048390D02*
X99443922Y-142096009D01*
X99443922Y-142096009D02*
X99348684Y-142143628D01*
X99348684Y-142143628D02*
X98967732Y-142143628D01*
X99872494Y-141953152D02*
X100110589Y-142619819D01*
X100348684Y-141953152D02*
X100110589Y-142619819D01*
X100110589Y-142619819D02*
X100015351Y-142857914D01*
X100015351Y-142857914D02*
X99967732Y-142905533D01*
X99967732Y-142905533D02*
X99872494Y-142953152D01*
X101158208Y-142619819D02*
X101158208Y-142096009D01*
X101158208Y-142096009D02*
X101110589Y-142000771D01*
X101110589Y-142000771D02*
X101015351Y-141953152D01*
X101015351Y-141953152D02*
X100824875Y-141953152D01*
X100824875Y-141953152D02*
X100729637Y-142000771D01*
X101158208Y-142572200D02*
X101062970Y-142619819D01*
X101062970Y-142619819D02*
X100824875Y-142619819D01*
X100824875Y-142619819D02*
X100729637Y-142572200D01*
X100729637Y-142572200D02*
X100682018Y-142476961D01*
X100682018Y-142476961D02*
X100682018Y-142381723D01*
X100682018Y-142381723D02*
X100729637Y-142286485D01*
X100729637Y-142286485D02*
X100824875Y-142238866D01*
X100824875Y-142238866D02*
X101062970Y-142238866D01*
X101062970Y-142238866D02*
X101158208Y-142191247D01*
X101634399Y-141953152D02*
X101634399Y-142619819D01*
X101634399Y-142048390D02*
X101682018Y-142000771D01*
X101682018Y-142000771D02*
X101777256Y-141953152D01*
X101777256Y-141953152D02*
X101920113Y-141953152D01*
X101920113Y-141953152D02*
X102015351Y-142000771D01*
X102015351Y-142000771D02*
X102062970Y-142096009D01*
X102062970Y-142096009D02*
X102062970Y-142619819D01*
X103634399Y-142096009D02*
X103301066Y-142096009D01*
X103301066Y-142619819D02*
X103301066Y-141619819D01*
X103301066Y-141619819D02*
X103777256Y-141619819D01*
X104586780Y-141953152D02*
X104586780Y-142619819D01*
X104158209Y-141953152D02*
X104158209Y-142476961D01*
X104158209Y-142476961D02*
X104205828Y-142572200D01*
X104205828Y-142572200D02*
X104301066Y-142619819D01*
X104301066Y-142619819D02*
X104443923Y-142619819D01*
X104443923Y-142619819D02*
X104539161Y-142572200D01*
X104539161Y-142572200D02*
X104586780Y-142524580D01*
X105110590Y-142572200D02*
X105110590Y-142619819D01*
X105110590Y-142619819D02*
X105062971Y-142715057D01*
X105062971Y-142715057D02*
X105015352Y-142762676D01*
X106967732Y-142715057D02*
X106872494Y-142667438D01*
X106872494Y-142667438D02*
X106777256Y-142572200D01*
X106777256Y-142572200D02*
X106634399Y-142429342D01*
X106634399Y-142429342D02*
X106539161Y-142381723D01*
X106539161Y-142381723D02*
X106443923Y-142381723D01*
X106491542Y-142619819D02*
X106396304Y-142572200D01*
X106396304Y-142572200D02*
X106301066Y-142476961D01*
X106301066Y-142476961D02*
X106253447Y-142286485D01*
X106253447Y-142286485D02*
X106253447Y-141953152D01*
X106253447Y-141953152D02*
X106301066Y-141762676D01*
X106301066Y-141762676D02*
X106396304Y-141667438D01*
X106396304Y-141667438D02*
X106491542Y-141619819D01*
X106491542Y-141619819D02*
X106682018Y-141619819D01*
X106682018Y-141619819D02*
X106777256Y-141667438D01*
X106777256Y-141667438D02*
X106872494Y-141762676D01*
X106872494Y-141762676D02*
X106920113Y-141953152D01*
X106920113Y-141953152D02*
X106920113Y-142286485D01*
X106920113Y-142286485D02*
X106872494Y-142476961D01*
X106872494Y-142476961D02*
X106777256Y-142572200D01*
X106777256Y-142572200D02*
X106682018Y-142619819D01*
X106682018Y-142619819D02*
X106491542Y-142619819D01*
X107348685Y-142619819D02*
X107348685Y-141953152D01*
X107348685Y-141619819D02*
X107301066Y-141667438D01*
X107301066Y-141667438D02*
X107348685Y-141715057D01*
X107348685Y-141715057D02*
X107396304Y-141667438D01*
X107396304Y-141667438D02*
X107348685Y-141619819D01*
X107348685Y-141619819D02*
X107348685Y-141715057D01*
X107824875Y-142619819D02*
X107824875Y-141953152D01*
X107824875Y-142143628D02*
X107872494Y-142048390D01*
X107872494Y-142048390D02*
X107920113Y-142000771D01*
X107920113Y-142000771D02*
X108015351Y-141953152D01*
X108015351Y-141953152D02*
X108110589Y-141953152D01*
X108872494Y-142619819D02*
X108872494Y-142096009D01*
X108872494Y-142096009D02*
X108824875Y-142000771D01*
X108824875Y-142000771D02*
X108729637Y-141953152D01*
X108729637Y-141953152D02*
X108539161Y-141953152D01*
X108539161Y-141953152D02*
X108443923Y-142000771D01*
X108872494Y-142572200D02*
X108777256Y-142619819D01*
X108777256Y-142619819D02*
X108539161Y-142619819D01*
X108539161Y-142619819D02*
X108443923Y-142572200D01*
X108443923Y-142572200D02*
X108396304Y-142476961D01*
X108396304Y-142476961D02*
X108396304Y-142381723D01*
X108396304Y-142381723D02*
X108443923Y-142286485D01*
X108443923Y-142286485D02*
X108539161Y-142238866D01*
X108539161Y-142238866D02*
X108777256Y-142238866D01*
X108777256Y-142238866D02*
X108872494Y-142191247D01*
X109348685Y-141953152D02*
X109348685Y-142619819D01*
X109348685Y-142048390D02*
X109396304Y-142000771D01*
X109396304Y-142000771D02*
X109491542Y-141953152D01*
X109491542Y-141953152D02*
X109634399Y-141953152D01*
X109634399Y-141953152D02*
X109729637Y-142000771D01*
X109729637Y-142000771D02*
X109777256Y-142096009D01*
X109777256Y-142096009D02*
X109777256Y-142619819D01*
X111301066Y-143000771D02*
X111253447Y-142953152D01*
X111253447Y-142953152D02*
X111158209Y-142810295D01*
X111158209Y-142810295D02*
X111110590Y-142715057D01*
X111110590Y-142715057D02*
X111062971Y-142572200D01*
X111062971Y-142572200D02*
X111015352Y-142334104D01*
X111015352Y-142334104D02*
X111015352Y-142143628D01*
X111015352Y-142143628D02*
X111062971Y-141905533D01*
X111062971Y-141905533D02*
X111110590Y-141762676D01*
X111110590Y-141762676D02*
X111158209Y-141667438D01*
X111158209Y-141667438D02*
X111253447Y-141524580D01*
X111253447Y-141524580D02*
X111301066Y-141476961D01*
X111586781Y-141619819D02*
X111824876Y-142619819D01*
X111824876Y-142619819D02*
X112015352Y-141905533D01*
X112015352Y-141905533D02*
X112205828Y-142619819D01*
X112205828Y-142619819D02*
X112443924Y-141619819D01*
X113205828Y-142572200D02*
X113110590Y-142619819D01*
X113110590Y-142619819D02*
X112920114Y-142619819D01*
X112920114Y-142619819D02*
X112824876Y-142572200D01*
X112824876Y-142572200D02*
X112777257Y-142476961D01*
X112777257Y-142476961D02*
X112777257Y-142096009D01*
X112777257Y-142096009D02*
X112824876Y-142000771D01*
X112824876Y-142000771D02*
X112920114Y-141953152D01*
X112920114Y-141953152D02*
X113110590Y-141953152D01*
X113110590Y-141953152D02*
X113205828Y-142000771D01*
X113205828Y-142000771D02*
X113253447Y-142096009D01*
X113253447Y-142096009D02*
X113253447Y-142191247D01*
X113253447Y-142191247D02*
X112777257Y-142286485D01*
X113634400Y-142572200D02*
X113729638Y-142619819D01*
X113729638Y-142619819D02*
X113920114Y-142619819D01*
X113920114Y-142619819D02*
X114015352Y-142572200D01*
X114015352Y-142572200D02*
X114062971Y-142476961D01*
X114062971Y-142476961D02*
X114062971Y-142429342D01*
X114062971Y-142429342D02*
X114015352Y-142334104D01*
X114015352Y-142334104D02*
X113920114Y-142286485D01*
X113920114Y-142286485D02*
X113777257Y-142286485D01*
X113777257Y-142286485D02*
X113682019Y-142238866D01*
X113682019Y-142238866D02*
X113634400Y-142143628D01*
X113634400Y-142143628D02*
X113634400Y-142096009D01*
X113634400Y-142096009D02*
X113682019Y-142000771D01*
X113682019Y-142000771D02*
X113777257Y-141953152D01*
X113777257Y-141953152D02*
X113920114Y-141953152D01*
X113920114Y-141953152D02*
X114015352Y-142000771D01*
X114634400Y-142619819D02*
X114539162Y-142572200D01*
X114539162Y-142572200D02*
X114491543Y-142476961D01*
X114491543Y-142476961D02*
X114491543Y-141619819D01*
X115396305Y-142572200D02*
X115301067Y-142619819D01*
X115301067Y-142619819D02*
X115110591Y-142619819D01*
X115110591Y-142619819D02*
X115015353Y-142572200D01*
X115015353Y-142572200D02*
X114967734Y-142476961D01*
X114967734Y-142476961D02*
X114967734Y-142096009D01*
X114967734Y-142096009D02*
X115015353Y-142000771D01*
X115015353Y-142000771D02*
X115110591Y-141953152D01*
X115110591Y-141953152D02*
X115301067Y-141953152D01*
X115301067Y-141953152D02*
X115396305Y-142000771D01*
X115396305Y-142000771D02*
X115443924Y-142096009D01*
X115443924Y-142096009D02*
X115443924Y-142191247D01*
X115443924Y-142191247D02*
X114967734Y-142286485D01*
X115777258Y-141953152D02*
X116015353Y-142619819D01*
X116253448Y-141953152D02*
X116015353Y-142619819D01*
X116015353Y-142619819D02*
X115920115Y-142857914D01*
X115920115Y-142857914D02*
X115872496Y-142905533D01*
X115872496Y-142905533D02*
X115777258Y-142953152D01*
X116539163Y-143000771D02*
X116586782Y-142953152D01*
X116586782Y-142953152D02*
X116682020Y-142810295D01*
X116682020Y-142810295D02*
X116729639Y-142715057D01*
X116729639Y-142715057D02*
X116777258Y-142572200D01*
X116777258Y-142572200D02*
X116824877Y-142334104D01*
X116824877Y-142334104D02*
X116824877Y-142143628D01*
X116824877Y-142143628D02*
X116777258Y-141905533D01*
X116777258Y-141905533D02*
X116729639Y-141762676D01*
X116729639Y-141762676D02*
X116682020Y-141667438D01*
X116682020Y-141667438D02*
X116586782Y-141524580D01*
X116586782Y-141524580D02*
X116539163Y-141476961D01*
X118062973Y-142619819D02*
X118062973Y-141619819D01*
X118062973Y-141619819D02*
X118443925Y-141619819D01*
X118443925Y-141619819D02*
X118539163Y-141667438D01*
X118539163Y-141667438D02*
X118586782Y-141715057D01*
X118586782Y-141715057D02*
X118634401Y-141810295D01*
X118634401Y-141810295D02*
X118634401Y-141953152D01*
X118634401Y-141953152D02*
X118586782Y-142048390D01*
X118586782Y-142048390D02*
X118539163Y-142096009D01*
X118539163Y-142096009D02*
X118443925Y-142143628D01*
X118443925Y-142143628D02*
X118062973Y-142143628D01*
X119491544Y-142619819D02*
X119491544Y-142096009D01*
X119491544Y-142096009D02*
X119443925Y-142000771D01*
X119443925Y-142000771D02*
X119348687Y-141953152D01*
X119348687Y-141953152D02*
X119158211Y-141953152D01*
X119158211Y-141953152D02*
X119062973Y-142000771D01*
X119491544Y-142572200D02*
X119396306Y-142619819D01*
X119396306Y-142619819D02*
X119158211Y-142619819D01*
X119158211Y-142619819D02*
X119062973Y-142572200D01*
X119062973Y-142572200D02*
X119015354Y-142476961D01*
X119015354Y-142476961D02*
X119015354Y-142381723D01*
X119015354Y-142381723D02*
X119062973Y-142286485D01*
X119062973Y-142286485D02*
X119158211Y-142238866D01*
X119158211Y-142238866D02*
X119396306Y-142238866D01*
X119396306Y-142238866D02*
X119491544Y-142191247D01*
X119967735Y-141953152D02*
X119967735Y-142619819D01*
X119967735Y-142048390D02*
X120015354Y-142000771D01*
X120015354Y-142000771D02*
X120110592Y-141953152D01*
X120110592Y-141953152D02*
X120253449Y-141953152D01*
X120253449Y-141953152D02*
X120348687Y-142000771D01*
X120348687Y-142000771D02*
X120396306Y-142096009D01*
X120396306Y-142096009D02*
X120396306Y-142619819D01*
X121301068Y-141953152D02*
X121301068Y-142762676D01*
X121301068Y-142762676D02*
X121253449Y-142857914D01*
X121253449Y-142857914D02*
X121205830Y-142905533D01*
X121205830Y-142905533D02*
X121110592Y-142953152D01*
X121110592Y-142953152D02*
X120967735Y-142953152D01*
X120967735Y-142953152D02*
X120872497Y-142905533D01*
X121301068Y-142572200D02*
X121205830Y-142619819D01*
X121205830Y-142619819D02*
X121015354Y-142619819D01*
X121015354Y-142619819D02*
X120920116Y-142572200D01*
X120920116Y-142572200D02*
X120872497Y-142524580D01*
X120872497Y-142524580D02*
X120824878Y-142429342D01*
X120824878Y-142429342D02*
X120824878Y-142143628D01*
X120824878Y-142143628D02*
X120872497Y-142048390D01*
X120872497Y-142048390D02*
X120920116Y-142000771D01*
X120920116Y-142000771D02*
X121015354Y-141953152D01*
X121015354Y-141953152D02*
X121205830Y-141953152D01*
X121205830Y-141953152D02*
X121301068Y-142000771D01*
X121824878Y-142572200D02*
X121824878Y-142619819D01*
X121824878Y-142619819D02*
X121777259Y-142715057D01*
X121777259Y-142715057D02*
X121729640Y-142762676D01*
X123586782Y-142524580D02*
X123539163Y-142572200D01*
X123539163Y-142572200D02*
X123396306Y-142619819D01*
X123396306Y-142619819D02*
X123301068Y-142619819D01*
X123301068Y-142619819D02*
X123158211Y-142572200D01*
X123158211Y-142572200D02*
X123062973Y-142476961D01*
X123062973Y-142476961D02*
X123015354Y-142381723D01*
X123015354Y-142381723D02*
X122967735Y-142191247D01*
X122967735Y-142191247D02*
X122967735Y-142048390D01*
X122967735Y-142048390D02*
X123015354Y-141857914D01*
X123015354Y-141857914D02*
X123062973Y-141762676D01*
X123062973Y-141762676D02*
X123158211Y-141667438D01*
X123158211Y-141667438D02*
X123301068Y-141619819D01*
X123301068Y-141619819D02*
X123396306Y-141619819D01*
X123396306Y-141619819D02*
X123539163Y-141667438D01*
X123539163Y-141667438D02*
X123586782Y-141715057D01*
X124015354Y-142619819D02*
X124015354Y-141619819D01*
X124443925Y-142619819D02*
X124443925Y-142096009D01*
X124443925Y-142096009D02*
X124396306Y-142000771D01*
X124396306Y-142000771D02*
X124301068Y-141953152D01*
X124301068Y-141953152D02*
X124158211Y-141953152D01*
X124158211Y-141953152D02*
X124062973Y-142000771D01*
X124062973Y-142000771D02*
X124015354Y-142048390D01*
X125301068Y-142572200D02*
X125205830Y-142619819D01*
X125205830Y-142619819D02*
X125015354Y-142619819D01*
X125015354Y-142619819D02*
X124920116Y-142572200D01*
X124920116Y-142572200D02*
X124872497Y-142476961D01*
X124872497Y-142476961D02*
X124872497Y-142096009D01*
X124872497Y-142096009D02*
X124920116Y-142000771D01*
X124920116Y-142000771D02*
X125015354Y-141953152D01*
X125015354Y-141953152D02*
X125205830Y-141953152D01*
X125205830Y-141953152D02*
X125301068Y-142000771D01*
X125301068Y-142000771D02*
X125348687Y-142096009D01*
X125348687Y-142096009D02*
X125348687Y-142191247D01*
X125348687Y-142191247D02*
X124872497Y-142286485D01*
X125777259Y-141953152D02*
X125777259Y-142619819D01*
X125777259Y-142048390D02*
X125824878Y-142000771D01*
X125824878Y-142000771D02*
X125920116Y-141953152D01*
X125920116Y-141953152D02*
X126062973Y-141953152D01*
X126062973Y-141953152D02*
X126158211Y-142000771D01*
X126158211Y-142000771D02*
X126205830Y-142096009D01*
X126205830Y-142096009D02*
X126205830Y-142619819D01*
X127110592Y-141953152D02*
X127110592Y-142762676D01*
X127110592Y-142762676D02*
X127062973Y-142857914D01*
X127062973Y-142857914D02*
X127015354Y-142905533D01*
X127015354Y-142905533D02*
X126920116Y-142953152D01*
X126920116Y-142953152D02*
X126777259Y-142953152D01*
X126777259Y-142953152D02*
X126682021Y-142905533D01*
X127110592Y-142572200D02*
X127015354Y-142619819D01*
X127015354Y-142619819D02*
X126824878Y-142619819D01*
X126824878Y-142619819D02*
X126729640Y-142572200D01*
X126729640Y-142572200D02*
X126682021Y-142524580D01*
X126682021Y-142524580D02*
X126634402Y-142429342D01*
X126634402Y-142429342D02*
X126634402Y-142143628D01*
X126634402Y-142143628D02*
X126682021Y-142048390D01*
X126682021Y-142048390D02*
X126729640Y-142000771D01*
X126729640Y-142000771D02*
X126824878Y-141953152D01*
X126824878Y-141953152D02*
X127015354Y-141953152D01*
X127015354Y-141953152D02*
X127110592Y-142000771D01*
X127491545Y-141953152D02*
X127729640Y-142619819D01*
X127967735Y-141953152D02*
X127729640Y-142619819D01*
X127729640Y-142619819D02*
X127634402Y-142857914D01*
X127634402Y-142857914D02*
X127586783Y-142905533D01*
X127586783Y-142905533D02*
X127491545Y-142953152D01*
X128777259Y-141953152D02*
X128777259Y-142619819D01*
X128348688Y-141953152D02*
X128348688Y-142476961D01*
X128348688Y-142476961D02*
X128396307Y-142572200D01*
X128396307Y-142572200D02*
X128491545Y-142619819D01*
X128491545Y-142619819D02*
X128634402Y-142619819D01*
X128634402Y-142619819D02*
X128729640Y-142572200D01*
X128729640Y-142572200D02*
X128777259Y-142524580D01*
X129682021Y-142619819D02*
X129682021Y-142096009D01*
X129682021Y-142096009D02*
X129634402Y-142000771D01*
X129634402Y-142000771D02*
X129539164Y-141953152D01*
X129539164Y-141953152D02*
X129348688Y-141953152D01*
X129348688Y-141953152D02*
X129253450Y-142000771D01*
X129682021Y-142572200D02*
X129586783Y-142619819D01*
X129586783Y-142619819D02*
X129348688Y-142619819D01*
X129348688Y-142619819D02*
X129253450Y-142572200D01*
X129253450Y-142572200D02*
X129205831Y-142476961D01*
X129205831Y-142476961D02*
X129205831Y-142381723D01*
X129205831Y-142381723D02*
X129253450Y-142286485D01*
X129253450Y-142286485D02*
X129348688Y-142238866D01*
X129348688Y-142238866D02*
X129586783Y-142238866D01*
X129586783Y-142238866D02*
X129682021Y-142191247D01*
X130158212Y-141953152D02*
X130158212Y-142619819D01*
X130158212Y-142048390D02*
X130205831Y-142000771D01*
X130205831Y-142000771D02*
X130301069Y-141953152D01*
X130301069Y-141953152D02*
X130443926Y-141953152D01*
X130443926Y-141953152D02*
X130539164Y-142000771D01*
X130539164Y-142000771D02*
X130586783Y-142096009D01*
X130586783Y-142096009D02*
X130586783Y-142619819D01*
X131824879Y-142619819D02*
X131824879Y-141619819D01*
X131824879Y-141619819D02*
X132205831Y-141619819D01*
X132205831Y-141619819D02*
X132301069Y-141667438D01*
X132301069Y-141667438D02*
X132348688Y-141715057D01*
X132348688Y-141715057D02*
X132396307Y-141810295D01*
X132396307Y-141810295D02*
X132396307Y-141953152D01*
X132396307Y-141953152D02*
X132348688Y-142048390D01*
X132348688Y-142048390D02*
X132301069Y-142096009D01*
X132301069Y-142096009D02*
X132205831Y-142143628D01*
X132205831Y-142143628D02*
X131824879Y-142143628D01*
X133205831Y-142572200D02*
X133110593Y-142619819D01*
X133110593Y-142619819D02*
X132920117Y-142619819D01*
X132920117Y-142619819D02*
X132824879Y-142572200D01*
X132824879Y-142572200D02*
X132777260Y-142476961D01*
X132777260Y-142476961D02*
X132777260Y-142096009D01*
X132777260Y-142096009D02*
X132824879Y-142000771D01*
X132824879Y-142000771D02*
X132920117Y-141953152D01*
X132920117Y-141953152D02*
X133110593Y-141953152D01*
X133110593Y-141953152D02*
X133205831Y-142000771D01*
X133205831Y-142000771D02*
X133253450Y-142096009D01*
X133253450Y-142096009D02*
X133253450Y-142191247D01*
X133253450Y-142191247D02*
X132777260Y-142286485D01*
X133682022Y-141953152D02*
X133682022Y-142619819D01*
X133682022Y-142048390D02*
X133729641Y-142000771D01*
X133729641Y-142000771D02*
X133824879Y-141953152D01*
X133824879Y-141953152D02*
X133967736Y-141953152D01*
X133967736Y-141953152D02*
X134062974Y-142000771D01*
X134062974Y-142000771D02*
X134110593Y-142096009D01*
X134110593Y-142096009D02*
X134110593Y-142619819D01*
X135015355Y-141953152D02*
X135015355Y-142762676D01*
X135015355Y-142762676D02*
X134967736Y-142857914D01*
X134967736Y-142857914D02*
X134920117Y-142905533D01*
X134920117Y-142905533D02*
X134824879Y-142953152D01*
X134824879Y-142953152D02*
X134682022Y-142953152D01*
X134682022Y-142953152D02*
X134586784Y-142905533D01*
X135015355Y-142572200D02*
X134920117Y-142619819D01*
X134920117Y-142619819D02*
X134729641Y-142619819D01*
X134729641Y-142619819D02*
X134634403Y-142572200D01*
X134634403Y-142572200D02*
X134586784Y-142524580D01*
X134586784Y-142524580D02*
X134539165Y-142429342D01*
X134539165Y-142429342D02*
X134539165Y-142143628D01*
X134539165Y-142143628D02*
X134586784Y-142048390D01*
X134586784Y-142048390D02*
X134634403Y-142000771D01*
X134634403Y-142000771D02*
X134729641Y-141953152D01*
X134729641Y-141953152D02*
X134920117Y-141953152D01*
X134920117Y-141953152D02*
X135015355Y-142000771D01*
X112583333Y-120554819D02*
X112250000Y-120078628D01*
X112011905Y-120554819D02*
X112011905Y-119554819D01*
X112011905Y-119554819D02*
X112392857Y-119554819D01*
X112392857Y-119554819D02*
X112488095Y-119602438D01*
X112488095Y-119602438D02*
X112535714Y-119650057D01*
X112535714Y-119650057D02*
X112583333Y-119745295D01*
X112583333Y-119745295D02*
X112583333Y-119888152D01*
X112583333Y-119888152D02*
X112535714Y-119983390D01*
X112535714Y-119983390D02*
X112488095Y-120031009D01*
X112488095Y-120031009D02*
X112392857Y-120078628D01*
X112392857Y-120078628D02*
X112011905Y-120078628D01*
X112964286Y-119650057D02*
X113011905Y-119602438D01*
X113011905Y-119602438D02*
X113107143Y-119554819D01*
X113107143Y-119554819D02*
X113345238Y-119554819D01*
X113345238Y-119554819D02*
X113440476Y-119602438D01*
X113440476Y-119602438D02*
X113488095Y-119650057D01*
X113488095Y-119650057D02*
X113535714Y-119745295D01*
X113535714Y-119745295D02*
X113535714Y-119840533D01*
X113535714Y-119840533D02*
X113488095Y-119983390D01*
X113488095Y-119983390D02*
X112916667Y-120554819D01*
X112916667Y-120554819D02*
X113535714Y-120554819D01*
X160333333Y-124604819D02*
X160000000Y-124128628D01*
X159761905Y-124604819D02*
X159761905Y-123604819D01*
X159761905Y-123604819D02*
X160142857Y-123604819D01*
X160142857Y-123604819D02*
X160238095Y-123652438D01*
X160238095Y-123652438D02*
X160285714Y-123700057D01*
X160285714Y-123700057D02*
X160333333Y-123795295D01*
X160333333Y-123795295D02*
X160333333Y-123938152D01*
X160333333Y-123938152D02*
X160285714Y-124033390D01*
X160285714Y-124033390D02*
X160238095Y-124081009D01*
X160238095Y-124081009D02*
X160142857Y-124128628D01*
X160142857Y-124128628D02*
X159761905Y-124128628D01*
X161238095Y-123604819D02*
X160761905Y-123604819D01*
X160761905Y-123604819D02*
X160714286Y-124081009D01*
X160714286Y-124081009D02*
X160761905Y-124033390D01*
X160761905Y-124033390D02*
X160857143Y-123985771D01*
X160857143Y-123985771D02*
X161095238Y-123985771D01*
X161095238Y-123985771D02*
X161190476Y-124033390D01*
X161190476Y-124033390D02*
X161238095Y-124081009D01*
X161238095Y-124081009D02*
X161285714Y-124176247D01*
X161285714Y-124176247D02*
X161285714Y-124414342D01*
X161285714Y-124414342D02*
X161238095Y-124509580D01*
X161238095Y-124509580D02*
X161190476Y-124557200D01*
X161190476Y-124557200D02*
X161095238Y-124604819D01*
X161095238Y-124604819D02*
X160857143Y-124604819D01*
X160857143Y-124604819D02*
X160761905Y-124557200D01*
X160761905Y-124557200D02*
X160714286Y-124509580D01*
X160583333Y-115179580D02*
X160535714Y-115227200D01*
X160535714Y-115227200D02*
X160392857Y-115274819D01*
X160392857Y-115274819D02*
X160297619Y-115274819D01*
X160297619Y-115274819D02*
X160154762Y-115227200D01*
X160154762Y-115227200D02*
X160059524Y-115131961D01*
X160059524Y-115131961D02*
X160011905Y-115036723D01*
X160011905Y-115036723D02*
X159964286Y-114846247D01*
X159964286Y-114846247D02*
X159964286Y-114703390D01*
X159964286Y-114703390D02*
X160011905Y-114512914D01*
X160011905Y-114512914D02*
X160059524Y-114417676D01*
X160059524Y-114417676D02*
X160154762Y-114322438D01*
X160154762Y-114322438D02*
X160297619Y-114274819D01*
X160297619Y-114274819D02*
X160392857Y-114274819D01*
X160392857Y-114274819D02*
X160535714Y-114322438D01*
X160535714Y-114322438D02*
X160583333Y-114370057D01*
X161440476Y-114274819D02*
X161250000Y-114274819D01*
X161250000Y-114274819D02*
X161154762Y-114322438D01*
X161154762Y-114322438D02*
X161107143Y-114370057D01*
X161107143Y-114370057D02*
X161011905Y-114512914D01*
X161011905Y-114512914D02*
X160964286Y-114703390D01*
X160964286Y-114703390D02*
X160964286Y-115084342D01*
X160964286Y-115084342D02*
X161011905Y-115179580D01*
X161011905Y-115179580D02*
X161059524Y-115227200D01*
X161059524Y-115227200D02*
X161154762Y-115274819D01*
X161154762Y-115274819D02*
X161345238Y-115274819D01*
X161345238Y-115274819D02*
X161440476Y-115227200D01*
X161440476Y-115227200D02*
X161488095Y-115179580D01*
X161488095Y-115179580D02*
X161535714Y-115084342D01*
X161535714Y-115084342D02*
X161535714Y-114846247D01*
X161535714Y-114846247D02*
X161488095Y-114751009D01*
X161488095Y-114751009D02*
X161440476Y-114703390D01*
X161440476Y-114703390D02*
X161345238Y-114655771D01*
X161345238Y-114655771D02*
X161154762Y-114655771D01*
X161154762Y-114655771D02*
X161059524Y-114703390D01*
X161059524Y-114703390D02*
X161011905Y-114751009D01*
X161011905Y-114751009D02*
X160964286Y-114846247D01*
X89916667Y-103907200D02*
X90059524Y-103954819D01*
X90059524Y-103954819D02*
X90297619Y-103954819D01*
X90297619Y-103954819D02*
X90392857Y-103907200D01*
X90392857Y-103907200D02*
X90440476Y-103859580D01*
X90440476Y-103859580D02*
X90488095Y-103764342D01*
X90488095Y-103764342D02*
X90488095Y-103669104D01*
X90488095Y-103669104D02*
X90440476Y-103573866D01*
X90440476Y-103573866D02*
X90392857Y-103526247D01*
X90392857Y-103526247D02*
X90297619Y-103478628D01*
X90297619Y-103478628D02*
X90107143Y-103431009D01*
X90107143Y-103431009D02*
X90011905Y-103383390D01*
X90011905Y-103383390D02*
X89964286Y-103335771D01*
X89964286Y-103335771D02*
X89916667Y-103240533D01*
X89916667Y-103240533D02*
X89916667Y-103145295D01*
X89916667Y-103145295D02*
X89964286Y-103050057D01*
X89964286Y-103050057D02*
X90011905Y-103002438D01*
X90011905Y-103002438D02*
X90107143Y-102954819D01*
X90107143Y-102954819D02*
X90345238Y-102954819D01*
X90345238Y-102954819D02*
X90488095Y-103002438D01*
X90821429Y-102954819D02*
X91059524Y-103954819D01*
X91059524Y-103954819D02*
X91250000Y-103240533D01*
X91250000Y-103240533D02*
X91440476Y-103954819D01*
X91440476Y-103954819D02*
X91678572Y-102954819D01*
X92011905Y-103050057D02*
X92059524Y-103002438D01*
X92059524Y-103002438D02*
X92154762Y-102954819D01*
X92154762Y-102954819D02*
X92392857Y-102954819D01*
X92392857Y-102954819D02*
X92488095Y-103002438D01*
X92488095Y-103002438D02*
X92535714Y-103050057D01*
X92535714Y-103050057D02*
X92583333Y-103145295D01*
X92583333Y-103145295D02*
X92583333Y-103240533D01*
X92583333Y-103240533D02*
X92535714Y-103383390D01*
X92535714Y-103383390D02*
X91964286Y-103954819D01*
X91964286Y-103954819D02*
X92583333Y-103954819D01*
X147795833Y-123179580D02*
X147748214Y-123227200D01*
X147748214Y-123227200D02*
X147605357Y-123274819D01*
X147605357Y-123274819D02*
X147510119Y-123274819D01*
X147510119Y-123274819D02*
X147367262Y-123227200D01*
X147367262Y-123227200D02*
X147272024Y-123131961D01*
X147272024Y-123131961D02*
X147224405Y-123036723D01*
X147224405Y-123036723D02*
X147176786Y-122846247D01*
X147176786Y-122846247D02*
X147176786Y-122703390D01*
X147176786Y-122703390D02*
X147224405Y-122512914D01*
X147224405Y-122512914D02*
X147272024Y-122417676D01*
X147272024Y-122417676D02*
X147367262Y-122322438D01*
X147367262Y-122322438D02*
X147510119Y-122274819D01*
X147510119Y-122274819D02*
X147605357Y-122274819D01*
X147605357Y-122274819D02*
X147748214Y-122322438D01*
X147748214Y-122322438D02*
X147795833Y-122370057D01*
X148367262Y-122703390D02*
X148272024Y-122655771D01*
X148272024Y-122655771D02*
X148224405Y-122608152D01*
X148224405Y-122608152D02*
X148176786Y-122512914D01*
X148176786Y-122512914D02*
X148176786Y-122465295D01*
X148176786Y-122465295D02*
X148224405Y-122370057D01*
X148224405Y-122370057D02*
X148272024Y-122322438D01*
X148272024Y-122322438D02*
X148367262Y-122274819D01*
X148367262Y-122274819D02*
X148557738Y-122274819D01*
X148557738Y-122274819D02*
X148652976Y-122322438D01*
X148652976Y-122322438D02*
X148700595Y-122370057D01*
X148700595Y-122370057D02*
X148748214Y-122465295D01*
X148748214Y-122465295D02*
X148748214Y-122512914D01*
X148748214Y-122512914D02*
X148700595Y-122608152D01*
X148700595Y-122608152D02*
X148652976Y-122655771D01*
X148652976Y-122655771D02*
X148557738Y-122703390D01*
X148557738Y-122703390D02*
X148367262Y-122703390D01*
X148367262Y-122703390D02*
X148272024Y-122751009D01*
X148272024Y-122751009D02*
X148224405Y-122798628D01*
X148224405Y-122798628D02*
X148176786Y-122893866D01*
X148176786Y-122893866D02*
X148176786Y-123084342D01*
X148176786Y-123084342D02*
X148224405Y-123179580D01*
X148224405Y-123179580D02*
X148272024Y-123227200D01*
X148272024Y-123227200D02*
X148367262Y-123274819D01*
X148367262Y-123274819D02*
X148557738Y-123274819D01*
X148557738Y-123274819D02*
X148652976Y-123227200D01*
X148652976Y-123227200D02*
X148700595Y-123179580D01*
X148700595Y-123179580D02*
X148748214Y-123084342D01*
X148748214Y-123084342D02*
X148748214Y-122893866D01*
X148748214Y-122893866D02*
X148700595Y-122798628D01*
X148700595Y-122798628D02*
X148652976Y-122751009D01*
X148652976Y-122751009D02*
X148557738Y-122703390D01*
X147666666Y-118904819D02*
X147666666Y-119619104D01*
X147666666Y-119619104D02*
X147619047Y-119761961D01*
X147619047Y-119761961D02*
X147523809Y-119857200D01*
X147523809Y-119857200D02*
X147380952Y-119904819D01*
X147380952Y-119904819D02*
X147285714Y-119904819D01*
X148095238Y-119000057D02*
X148142857Y-118952438D01*
X148142857Y-118952438D02*
X148238095Y-118904819D01*
X148238095Y-118904819D02*
X148476190Y-118904819D01*
X148476190Y-118904819D02*
X148571428Y-118952438D01*
X148571428Y-118952438D02*
X148619047Y-119000057D01*
X148619047Y-119000057D02*
X148666666Y-119095295D01*
X148666666Y-119095295D02*
X148666666Y-119190533D01*
X148666666Y-119190533D02*
X148619047Y-119333390D01*
X148619047Y-119333390D02*
X148047619Y-119904819D01*
X148047619Y-119904819D02*
X148666666Y-119904819D01*
X86654761Y-119050057D02*
X86559523Y-119002438D01*
X86559523Y-119002438D02*
X86464285Y-118907200D01*
X86464285Y-118907200D02*
X86321428Y-118764342D01*
X86321428Y-118764342D02*
X86226190Y-118716723D01*
X86226190Y-118716723D02*
X86130952Y-118716723D01*
X86178571Y-118954819D02*
X86083333Y-118907200D01*
X86083333Y-118907200D02*
X85988095Y-118811961D01*
X85988095Y-118811961D02*
X85940476Y-118621485D01*
X85940476Y-118621485D02*
X85940476Y-118288152D01*
X85940476Y-118288152D02*
X85988095Y-118097676D01*
X85988095Y-118097676D02*
X86083333Y-118002438D01*
X86083333Y-118002438D02*
X86178571Y-117954819D01*
X86178571Y-117954819D02*
X86369047Y-117954819D01*
X86369047Y-117954819D02*
X86464285Y-118002438D01*
X86464285Y-118002438D02*
X86559523Y-118097676D01*
X86559523Y-118097676D02*
X86607142Y-118288152D01*
X86607142Y-118288152D02*
X86607142Y-118621485D01*
X86607142Y-118621485D02*
X86559523Y-118811961D01*
X86559523Y-118811961D02*
X86464285Y-118907200D01*
X86464285Y-118907200D02*
X86369047Y-118954819D01*
X86369047Y-118954819D02*
X86178571Y-118954819D01*
X86988095Y-118050057D02*
X87035714Y-118002438D01*
X87035714Y-118002438D02*
X87130952Y-117954819D01*
X87130952Y-117954819D02*
X87369047Y-117954819D01*
X87369047Y-117954819D02*
X87464285Y-118002438D01*
X87464285Y-118002438D02*
X87511904Y-118050057D01*
X87511904Y-118050057D02*
X87559523Y-118145295D01*
X87559523Y-118145295D02*
X87559523Y-118240533D01*
X87559523Y-118240533D02*
X87511904Y-118383390D01*
X87511904Y-118383390D02*
X86940476Y-118954819D01*
X86940476Y-118954819D02*
X87559523Y-118954819D01*
X157261904Y-93264819D02*
X157261904Y-92264819D01*
X157261904Y-92264819D02*
X157499999Y-92264819D01*
X157499999Y-92264819D02*
X157642856Y-92312438D01*
X157642856Y-92312438D02*
X157738094Y-92407676D01*
X157738094Y-92407676D02*
X157785713Y-92502914D01*
X157785713Y-92502914D02*
X157833332Y-92693390D01*
X157833332Y-92693390D02*
X157833332Y-92836247D01*
X157833332Y-92836247D02*
X157785713Y-93026723D01*
X157785713Y-93026723D02*
X157738094Y-93121961D01*
X157738094Y-93121961D02*
X157642856Y-93217200D01*
X157642856Y-93217200D02*
X157499999Y-93264819D01*
X157499999Y-93264819D02*
X157261904Y-93264819D01*
X158642856Y-93217200D02*
X158547618Y-93264819D01*
X158547618Y-93264819D02*
X158357142Y-93264819D01*
X158357142Y-93264819D02*
X158261904Y-93217200D01*
X158261904Y-93217200D02*
X158214285Y-93121961D01*
X158214285Y-93121961D02*
X158214285Y-92741009D01*
X158214285Y-92741009D02*
X158261904Y-92645771D01*
X158261904Y-92645771D02*
X158357142Y-92598152D01*
X158357142Y-92598152D02*
X158547618Y-92598152D01*
X158547618Y-92598152D02*
X158642856Y-92645771D01*
X158642856Y-92645771D02*
X158690475Y-92741009D01*
X158690475Y-92741009D02*
X158690475Y-92836247D01*
X158690475Y-92836247D02*
X158214285Y-92931485D01*
X159119047Y-93264819D02*
X159119047Y-92264819D01*
X159119047Y-92645771D02*
X159214285Y-92598152D01*
X159214285Y-92598152D02*
X159404761Y-92598152D01*
X159404761Y-92598152D02*
X159499999Y-92645771D01*
X159499999Y-92645771D02*
X159547618Y-92693390D01*
X159547618Y-92693390D02*
X159595237Y-92788628D01*
X159595237Y-92788628D02*
X159595237Y-93074342D01*
X159595237Y-93074342D02*
X159547618Y-93169580D01*
X159547618Y-93169580D02*
X159499999Y-93217200D01*
X159499999Y-93217200D02*
X159404761Y-93264819D01*
X159404761Y-93264819D02*
X159214285Y-93264819D01*
X159214285Y-93264819D02*
X159119047Y-93217200D01*
X160452380Y-92598152D02*
X160452380Y-93264819D01*
X160023809Y-92598152D02*
X160023809Y-93121961D01*
X160023809Y-93121961D02*
X160071428Y-93217200D01*
X160071428Y-93217200D02*
X160166666Y-93264819D01*
X160166666Y-93264819D02*
X160309523Y-93264819D01*
X160309523Y-93264819D02*
X160404761Y-93217200D01*
X160404761Y-93217200D02*
X160452380Y-93169580D01*
X161357142Y-92598152D02*
X161357142Y-93407676D01*
X161357142Y-93407676D02*
X161309523Y-93502914D01*
X161309523Y-93502914D02*
X161261904Y-93550533D01*
X161261904Y-93550533D02*
X161166666Y-93598152D01*
X161166666Y-93598152D02*
X161023809Y-93598152D01*
X161023809Y-93598152D02*
X160928571Y-93550533D01*
X161357142Y-93217200D02*
X161261904Y-93264819D01*
X161261904Y-93264819D02*
X161071428Y-93264819D01*
X161071428Y-93264819D02*
X160976190Y-93217200D01*
X160976190Y-93217200D02*
X160928571Y-93169580D01*
X160928571Y-93169580D02*
X160880952Y-93074342D01*
X160880952Y-93074342D02*
X160880952Y-92788628D01*
X160880952Y-92788628D02*
X160928571Y-92693390D01*
X160928571Y-92693390D02*
X160976190Y-92645771D01*
X160976190Y-92645771D02*
X161071428Y-92598152D01*
X161071428Y-92598152D02*
X161261904Y-92598152D01*
X161261904Y-92598152D02*
X161357142Y-92645771D01*
X161785714Y-93217200D02*
X161928571Y-93264819D01*
X161928571Y-93264819D02*
X162166666Y-93264819D01*
X162166666Y-93264819D02*
X162261904Y-93217200D01*
X162261904Y-93217200D02*
X162309523Y-93169580D01*
X162309523Y-93169580D02*
X162357142Y-93074342D01*
X162357142Y-93074342D02*
X162357142Y-92979104D01*
X162357142Y-92979104D02*
X162309523Y-92883866D01*
X162309523Y-92883866D02*
X162261904Y-92836247D01*
X162261904Y-92836247D02*
X162166666Y-92788628D01*
X162166666Y-92788628D02*
X161976190Y-92741009D01*
X161976190Y-92741009D02*
X161880952Y-92693390D01*
X161880952Y-92693390D02*
X161833333Y-92645771D01*
X161833333Y-92645771D02*
X161785714Y-92550533D01*
X161785714Y-92550533D02*
X161785714Y-92455295D01*
X161785714Y-92455295D02*
X161833333Y-92360057D01*
X161833333Y-92360057D02*
X161880952Y-92312438D01*
X161880952Y-92312438D02*
X161976190Y-92264819D01*
X161976190Y-92264819D02*
X162214285Y-92264819D01*
X162214285Y-92264819D02*
X162357142Y-92312438D01*
X163166666Y-93217200D02*
X163071428Y-93264819D01*
X163071428Y-93264819D02*
X162880952Y-93264819D01*
X162880952Y-93264819D02*
X162785714Y-93217200D01*
X162785714Y-93217200D02*
X162738095Y-93121961D01*
X162738095Y-93121961D02*
X162738095Y-92741009D01*
X162738095Y-92741009D02*
X162785714Y-92645771D01*
X162785714Y-92645771D02*
X162880952Y-92598152D01*
X162880952Y-92598152D02*
X163071428Y-92598152D01*
X163071428Y-92598152D02*
X163166666Y-92645771D01*
X163166666Y-92645771D02*
X163214285Y-92741009D01*
X163214285Y-92741009D02*
X163214285Y-92836247D01*
X163214285Y-92836247D02*
X162738095Y-92931485D01*
X163642857Y-93264819D02*
X163642857Y-92598152D01*
X163642857Y-92788628D02*
X163690476Y-92693390D01*
X163690476Y-92693390D02*
X163738095Y-92645771D01*
X163738095Y-92645771D02*
X163833333Y-92598152D01*
X163833333Y-92598152D02*
X163928571Y-92598152D01*
X164261905Y-93264819D02*
X164261905Y-92598152D01*
X164261905Y-92264819D02*
X164214286Y-92312438D01*
X164214286Y-92312438D02*
X164261905Y-92360057D01*
X164261905Y-92360057D02*
X164309524Y-92312438D01*
X164309524Y-92312438D02*
X164261905Y-92264819D01*
X164261905Y-92264819D02*
X164261905Y-92360057D01*
X165166666Y-93264819D02*
X165166666Y-92741009D01*
X165166666Y-92741009D02*
X165119047Y-92645771D01*
X165119047Y-92645771D02*
X165023809Y-92598152D01*
X165023809Y-92598152D02*
X164833333Y-92598152D01*
X164833333Y-92598152D02*
X164738095Y-92645771D01*
X165166666Y-93217200D02*
X165071428Y-93264819D01*
X165071428Y-93264819D02*
X164833333Y-93264819D01*
X164833333Y-93264819D02*
X164738095Y-93217200D01*
X164738095Y-93217200D02*
X164690476Y-93121961D01*
X164690476Y-93121961D02*
X164690476Y-93026723D01*
X164690476Y-93026723D02*
X164738095Y-92931485D01*
X164738095Y-92931485D02*
X164833333Y-92883866D01*
X164833333Y-92883866D02*
X165071428Y-92883866D01*
X165071428Y-92883866D02*
X165166666Y-92836247D01*
X165785714Y-93264819D02*
X165690476Y-93217200D01*
X165690476Y-93217200D02*
X165642857Y-93121961D01*
X165642857Y-93121961D02*
X165642857Y-92264819D01*
X166166667Y-93264819D02*
X166166667Y-92264819D01*
X166166667Y-92264819D02*
X166547619Y-92264819D01*
X166547619Y-92264819D02*
X166642857Y-92312438D01*
X166642857Y-92312438D02*
X166690476Y-92360057D01*
X166690476Y-92360057D02*
X166738095Y-92455295D01*
X166738095Y-92455295D02*
X166738095Y-92598152D01*
X166738095Y-92598152D02*
X166690476Y-92693390D01*
X166690476Y-92693390D02*
X166642857Y-92741009D01*
X166642857Y-92741009D02*
X166547619Y-92788628D01*
X166547619Y-92788628D02*
X166166667Y-92788628D01*
X167309524Y-93264819D02*
X167214286Y-93217200D01*
X167214286Y-93217200D02*
X167166667Y-93169580D01*
X167166667Y-93169580D02*
X167119048Y-93074342D01*
X167119048Y-93074342D02*
X167119048Y-92788628D01*
X167119048Y-92788628D02*
X167166667Y-92693390D01*
X167166667Y-92693390D02*
X167214286Y-92645771D01*
X167214286Y-92645771D02*
X167309524Y-92598152D01*
X167309524Y-92598152D02*
X167452381Y-92598152D01*
X167452381Y-92598152D02*
X167547619Y-92645771D01*
X167547619Y-92645771D02*
X167595238Y-92693390D01*
X167595238Y-92693390D02*
X167642857Y-92788628D01*
X167642857Y-92788628D02*
X167642857Y-93074342D01*
X167642857Y-93074342D02*
X167595238Y-93169580D01*
X167595238Y-93169580D02*
X167547619Y-93217200D01*
X167547619Y-93217200D02*
X167452381Y-93264819D01*
X167452381Y-93264819D02*
X167309524Y-93264819D01*
X168071429Y-93264819D02*
X168071429Y-92598152D01*
X168071429Y-92788628D02*
X168119048Y-92693390D01*
X168119048Y-92693390D02*
X168166667Y-92645771D01*
X168166667Y-92645771D02*
X168261905Y-92598152D01*
X168261905Y-92598152D02*
X168357143Y-92598152D01*
X168547620Y-92598152D02*
X168928572Y-92598152D01*
X168690477Y-92264819D02*
X168690477Y-93121961D01*
X168690477Y-93121961D02*
X168738096Y-93217200D01*
X168738096Y-93217200D02*
X168833334Y-93264819D01*
X168833334Y-93264819D02*
X168928572Y-93264819D01*
X169785715Y-93264819D02*
X169214287Y-93264819D01*
X169500001Y-93264819D02*
X169500001Y-92264819D01*
X169500001Y-92264819D02*
X169404763Y-92407676D01*
X169404763Y-92407676D02*
X169309525Y-92502914D01*
X169309525Y-92502914D02*
X169214287Y-92550533D01*
X116584819Y-118809523D02*
X117299104Y-118809523D01*
X117299104Y-118809523D02*
X117441961Y-118857142D01*
X117441961Y-118857142D02*
X117537200Y-118952380D01*
X117537200Y-118952380D02*
X117584819Y-119095237D01*
X117584819Y-119095237D02*
X117584819Y-119190475D01*
X117584819Y-117809523D02*
X117584819Y-118380951D01*
X117584819Y-118095237D02*
X116584819Y-118095237D01*
X116584819Y-118095237D02*
X116727676Y-118190475D01*
X116727676Y-118190475D02*
X116822914Y-118285713D01*
X116822914Y-118285713D02*
X116870533Y-118380951D01*
X116584819Y-117190475D02*
X116584819Y-117095237D01*
X116584819Y-117095237D02*
X116632438Y-116999999D01*
X116632438Y-116999999D02*
X116680057Y-116952380D01*
X116680057Y-116952380D02*
X116775295Y-116904761D01*
X116775295Y-116904761D02*
X116965771Y-116857142D01*
X116965771Y-116857142D02*
X117203866Y-116857142D01*
X117203866Y-116857142D02*
X117394342Y-116904761D01*
X117394342Y-116904761D02*
X117489580Y-116952380D01*
X117489580Y-116952380D02*
X117537200Y-116999999D01*
X117537200Y-116999999D02*
X117584819Y-117095237D01*
X117584819Y-117095237D02*
X117584819Y-117190475D01*
X117584819Y-117190475D02*
X117537200Y-117285713D01*
X117537200Y-117285713D02*
X117489580Y-117333332D01*
X117489580Y-117333332D02*
X117394342Y-117380951D01*
X117394342Y-117380951D02*
X117203866Y-117428570D01*
X117203866Y-117428570D02*
X116965771Y-117428570D01*
X116965771Y-117428570D02*
X116775295Y-117380951D01*
X116775295Y-117380951D02*
X116680057Y-117333332D01*
X116680057Y-117333332D02*
X116632438Y-117285713D01*
X116632438Y-117285713D02*
X116584819Y-117190475D01*
X89083333Y-123804819D02*
X88750000Y-123328628D01*
X88511905Y-123804819D02*
X88511905Y-122804819D01*
X88511905Y-122804819D02*
X88892857Y-122804819D01*
X88892857Y-122804819D02*
X88988095Y-122852438D01*
X88988095Y-122852438D02*
X89035714Y-122900057D01*
X89035714Y-122900057D02*
X89083333Y-122995295D01*
X89083333Y-122995295D02*
X89083333Y-123138152D01*
X89083333Y-123138152D02*
X89035714Y-123233390D01*
X89035714Y-123233390D02*
X88988095Y-123281009D01*
X88988095Y-123281009D02*
X88892857Y-123328628D01*
X88892857Y-123328628D02*
X88511905Y-123328628D01*
X89559524Y-123804819D02*
X89750000Y-123804819D01*
X89750000Y-123804819D02*
X89845238Y-123757200D01*
X89845238Y-123757200D02*
X89892857Y-123709580D01*
X89892857Y-123709580D02*
X89988095Y-123566723D01*
X89988095Y-123566723D02*
X90035714Y-123376247D01*
X90035714Y-123376247D02*
X90035714Y-122995295D01*
X90035714Y-122995295D02*
X89988095Y-122900057D01*
X89988095Y-122900057D02*
X89940476Y-122852438D01*
X89940476Y-122852438D02*
X89845238Y-122804819D01*
X89845238Y-122804819D02*
X89654762Y-122804819D01*
X89654762Y-122804819D02*
X89559524Y-122852438D01*
X89559524Y-122852438D02*
X89511905Y-122900057D01*
X89511905Y-122900057D02*
X89464286Y-122995295D01*
X89464286Y-122995295D02*
X89464286Y-123233390D01*
X89464286Y-123233390D02*
X89511905Y-123328628D01*
X89511905Y-123328628D02*
X89559524Y-123376247D01*
X89559524Y-123376247D02*
X89654762Y-123423866D01*
X89654762Y-123423866D02*
X89845238Y-123423866D01*
X89845238Y-123423866D02*
X89940476Y-123376247D01*
X89940476Y-123376247D02*
X89988095Y-123328628D01*
X89988095Y-123328628D02*
X90035714Y-123233390D01*
X132083333Y-138039580D02*
X132035714Y-138087200D01*
X132035714Y-138087200D02*
X131892857Y-138134819D01*
X131892857Y-138134819D02*
X131797619Y-138134819D01*
X131797619Y-138134819D02*
X131654762Y-138087200D01*
X131654762Y-138087200D02*
X131559524Y-137991961D01*
X131559524Y-137991961D02*
X131511905Y-137896723D01*
X131511905Y-137896723D02*
X131464286Y-137706247D01*
X131464286Y-137706247D02*
X131464286Y-137563390D01*
X131464286Y-137563390D02*
X131511905Y-137372914D01*
X131511905Y-137372914D02*
X131559524Y-137277676D01*
X131559524Y-137277676D02*
X131654762Y-137182438D01*
X131654762Y-137182438D02*
X131797619Y-137134819D01*
X131797619Y-137134819D02*
X131892857Y-137134819D01*
X131892857Y-137134819D02*
X132035714Y-137182438D01*
X132035714Y-137182438D02*
X132083333Y-137230057D01*
X132464286Y-137230057D02*
X132511905Y-137182438D01*
X132511905Y-137182438D02*
X132607143Y-137134819D01*
X132607143Y-137134819D02*
X132845238Y-137134819D01*
X132845238Y-137134819D02*
X132940476Y-137182438D01*
X132940476Y-137182438D02*
X132988095Y-137230057D01*
X132988095Y-137230057D02*
X133035714Y-137325295D01*
X133035714Y-137325295D02*
X133035714Y-137420533D01*
X133035714Y-137420533D02*
X132988095Y-137563390D01*
X132988095Y-137563390D02*
X132416667Y-138134819D01*
X132416667Y-138134819D02*
X133035714Y-138134819D01*
X156166666Y-103954819D02*
X156166666Y-104669104D01*
X156166666Y-104669104D02*
X156119047Y-104811961D01*
X156119047Y-104811961D02*
X156023809Y-104907200D01*
X156023809Y-104907200D02*
X155880952Y-104954819D01*
X155880952Y-104954819D02*
X155785714Y-104954819D01*
X156690476Y-104954819D02*
X156880952Y-104954819D01*
X156880952Y-104954819D02*
X156976190Y-104907200D01*
X156976190Y-104907200D02*
X157023809Y-104859580D01*
X157023809Y-104859580D02*
X157119047Y-104716723D01*
X157119047Y-104716723D02*
X157166666Y-104526247D01*
X157166666Y-104526247D02*
X157166666Y-104145295D01*
X157166666Y-104145295D02*
X157119047Y-104050057D01*
X157119047Y-104050057D02*
X157071428Y-104002438D01*
X157071428Y-104002438D02*
X156976190Y-103954819D01*
X156976190Y-103954819D02*
X156785714Y-103954819D01*
X156785714Y-103954819D02*
X156690476Y-104002438D01*
X156690476Y-104002438D02*
X156642857Y-104050057D01*
X156642857Y-104050057D02*
X156595238Y-104145295D01*
X156595238Y-104145295D02*
X156595238Y-104383390D01*
X156595238Y-104383390D02*
X156642857Y-104478628D01*
X156642857Y-104478628D02*
X156690476Y-104526247D01*
X156690476Y-104526247D02*
X156785714Y-104573866D01*
X156785714Y-104573866D02*
X156976190Y-104573866D01*
X156976190Y-104573866D02*
X157071428Y-104526247D01*
X157071428Y-104526247D02*
X157119047Y-104478628D01*
X157119047Y-104478628D02*
X157166666Y-104383390D01*
X109523810Y-115809819D02*
X109523810Y-114809819D01*
X109523810Y-114809819D02*
X109857143Y-115524104D01*
X109857143Y-115524104D02*
X110190476Y-114809819D01*
X110190476Y-114809819D02*
X110190476Y-115809819D01*
X110666667Y-115809819D02*
X110666667Y-114809819D01*
X111714285Y-115714580D02*
X111666666Y-115762200D01*
X111666666Y-115762200D02*
X111523809Y-115809819D01*
X111523809Y-115809819D02*
X111428571Y-115809819D01*
X111428571Y-115809819D02*
X111285714Y-115762200D01*
X111285714Y-115762200D02*
X111190476Y-115666961D01*
X111190476Y-115666961D02*
X111142857Y-115571723D01*
X111142857Y-115571723D02*
X111095238Y-115381247D01*
X111095238Y-115381247D02*
X111095238Y-115238390D01*
X111095238Y-115238390D02*
X111142857Y-115047914D01*
X111142857Y-115047914D02*
X111190476Y-114952676D01*
X111190476Y-114952676D02*
X111285714Y-114857438D01*
X111285714Y-114857438D02*
X111428571Y-114809819D01*
X111428571Y-114809819D02*
X111523809Y-114809819D01*
X111523809Y-114809819D02*
X111666666Y-114857438D01*
X111666666Y-114857438D02*
X111714285Y-114905057D01*
X112142857Y-115809819D02*
X112142857Y-114809819D01*
X112142857Y-114809819D02*
X112380952Y-114809819D01*
X112380952Y-114809819D02*
X112523809Y-114857438D01*
X112523809Y-114857438D02*
X112619047Y-114952676D01*
X112619047Y-114952676D02*
X112666666Y-115047914D01*
X112666666Y-115047914D02*
X112714285Y-115238390D01*
X112714285Y-115238390D02*
X112714285Y-115381247D01*
X112714285Y-115381247D02*
X112666666Y-115571723D01*
X112666666Y-115571723D02*
X112619047Y-115666961D01*
X112619047Y-115666961D02*
X112523809Y-115762200D01*
X112523809Y-115762200D02*
X112380952Y-115809819D01*
X112380952Y-115809819D02*
X112142857Y-115809819D01*
X113095238Y-115524104D02*
X113571428Y-115524104D01*
X113000000Y-115809819D02*
X113333333Y-114809819D01*
X113333333Y-114809819D02*
X113666666Y-115809819D01*
X114523809Y-115809819D02*
X113952381Y-115809819D01*
X114238095Y-115809819D02*
X114238095Y-114809819D01*
X114238095Y-114809819D02*
X114142857Y-114952676D01*
X114142857Y-114952676D02*
X114047619Y-115047914D01*
X114047619Y-115047914D02*
X113952381Y-115095533D01*
X129380952Y-119669104D02*
X129857142Y-119669104D01*
X129285714Y-119954819D02*
X129619047Y-118954819D01*
X129619047Y-118954819D02*
X129952380Y-119954819D01*
X130714285Y-119288152D02*
X130714285Y-119954819D01*
X130285714Y-119288152D02*
X130285714Y-119811961D01*
X130285714Y-119811961D02*
X130333333Y-119907200D01*
X130333333Y-119907200D02*
X130428571Y-119954819D01*
X130428571Y-119954819D02*
X130571428Y-119954819D01*
X130571428Y-119954819D02*
X130666666Y-119907200D01*
X130666666Y-119907200D02*
X130714285Y-119859580D01*
X131619047Y-119954819D02*
X131619047Y-118954819D01*
X131619047Y-119907200D02*
X131523809Y-119954819D01*
X131523809Y-119954819D02*
X131333333Y-119954819D01*
X131333333Y-119954819D02*
X131238095Y-119907200D01*
X131238095Y-119907200D02*
X131190476Y-119859580D01*
X131190476Y-119859580D02*
X131142857Y-119764342D01*
X131142857Y-119764342D02*
X131142857Y-119478628D01*
X131142857Y-119478628D02*
X131190476Y-119383390D01*
X131190476Y-119383390D02*
X131238095Y-119335771D01*
X131238095Y-119335771D02*
X131333333Y-119288152D01*
X131333333Y-119288152D02*
X131523809Y-119288152D01*
X131523809Y-119288152D02*
X131619047Y-119335771D01*
X132095238Y-119954819D02*
X132095238Y-119288152D01*
X132095238Y-118954819D02*
X132047619Y-119002438D01*
X132047619Y-119002438D02*
X132095238Y-119050057D01*
X132095238Y-119050057D02*
X132142857Y-119002438D01*
X132142857Y-119002438D02*
X132095238Y-118954819D01*
X132095238Y-118954819D02*
X132095238Y-119050057D01*
X132714285Y-119954819D02*
X132619047Y-119907200D01*
X132619047Y-119907200D02*
X132571428Y-119859580D01*
X132571428Y-119859580D02*
X132523809Y-119764342D01*
X132523809Y-119764342D02*
X132523809Y-119478628D01*
X132523809Y-119478628D02*
X132571428Y-119383390D01*
X132571428Y-119383390D02*
X132619047Y-119335771D01*
X132619047Y-119335771D02*
X132714285Y-119288152D01*
X132714285Y-119288152D02*
X132857142Y-119288152D01*
X132857142Y-119288152D02*
X132952380Y-119335771D01*
X132952380Y-119335771D02*
X132999999Y-119383390D01*
X132999999Y-119383390D02*
X133047618Y-119478628D01*
X133047618Y-119478628D02*
X133047618Y-119764342D01*
X133047618Y-119764342D02*
X132999999Y-119859580D01*
X132999999Y-119859580D02*
X132952380Y-119907200D01*
X132952380Y-119907200D02*
X132857142Y-119954819D01*
X132857142Y-119954819D02*
X132714285Y-119954819D01*
X133428571Y-119669104D02*
X133904761Y-119669104D01*
X133333333Y-119954819D02*
X133666666Y-118954819D01*
X133666666Y-118954819D02*
X133999999Y-119954819D01*
X134333333Y-119954819D02*
X134333333Y-119288152D01*
X134333333Y-119383390D02*
X134380952Y-119335771D01*
X134380952Y-119335771D02*
X134476190Y-119288152D01*
X134476190Y-119288152D02*
X134619047Y-119288152D01*
X134619047Y-119288152D02*
X134714285Y-119335771D01*
X134714285Y-119335771D02*
X134761904Y-119431009D01*
X134761904Y-119431009D02*
X134761904Y-119954819D01*
X134761904Y-119431009D02*
X134809523Y-119335771D01*
X134809523Y-119335771D02*
X134904761Y-119288152D01*
X134904761Y-119288152D02*
X135047618Y-119288152D01*
X135047618Y-119288152D02*
X135142857Y-119335771D01*
X135142857Y-119335771D02*
X135190476Y-119431009D01*
X135190476Y-119431009D02*
X135190476Y-119954819D01*
X135666666Y-119288152D02*
X135666666Y-120288152D01*
X135666666Y-119335771D02*
X135761904Y-119288152D01*
X135761904Y-119288152D02*
X135952380Y-119288152D01*
X135952380Y-119288152D02*
X136047618Y-119335771D01*
X136047618Y-119335771D02*
X136095237Y-119383390D01*
X136095237Y-119383390D02*
X136142856Y-119478628D01*
X136142856Y-119478628D02*
X136142856Y-119764342D01*
X136142856Y-119764342D02*
X136095237Y-119859580D01*
X136095237Y-119859580D02*
X136047618Y-119907200D01*
X136047618Y-119907200D02*
X135952380Y-119954819D01*
X135952380Y-119954819D02*
X135761904Y-119954819D01*
X135761904Y-119954819D02*
X135666666Y-119907200D01*
X136714285Y-119954819D02*
X136619047Y-119907200D01*
X136619047Y-119907200D02*
X136571428Y-119811961D01*
X136571428Y-119811961D02*
X136571428Y-118954819D01*
X137095238Y-119954819D02*
X137095238Y-119288152D01*
X137095238Y-118954819D02*
X137047619Y-119002438D01*
X137047619Y-119002438D02*
X137095238Y-119050057D01*
X137095238Y-119050057D02*
X137142857Y-119002438D01*
X137142857Y-119002438D02*
X137095238Y-118954819D01*
X137095238Y-118954819D02*
X137095238Y-119050057D01*
X137428571Y-119288152D02*
X137809523Y-119288152D01*
X137571428Y-119954819D02*
X137571428Y-119097676D01*
X137571428Y-119097676D02*
X137619047Y-119002438D01*
X137619047Y-119002438D02*
X137714285Y-118954819D01*
X137714285Y-118954819D02*
X137809523Y-118954819D01*
X138142857Y-119954819D02*
X138142857Y-119288152D01*
X138142857Y-118954819D02*
X138095238Y-119002438D01*
X138095238Y-119002438D02*
X138142857Y-119050057D01*
X138142857Y-119050057D02*
X138190476Y-119002438D01*
X138190476Y-119002438D02*
X138142857Y-118954819D01*
X138142857Y-118954819D02*
X138142857Y-119050057D01*
X138999999Y-119907200D02*
X138904761Y-119954819D01*
X138904761Y-119954819D02*
X138714285Y-119954819D01*
X138714285Y-119954819D02*
X138619047Y-119907200D01*
X138619047Y-119907200D02*
X138571428Y-119811961D01*
X138571428Y-119811961D02*
X138571428Y-119431009D01*
X138571428Y-119431009D02*
X138619047Y-119335771D01*
X138619047Y-119335771D02*
X138714285Y-119288152D01*
X138714285Y-119288152D02*
X138904761Y-119288152D01*
X138904761Y-119288152D02*
X138999999Y-119335771D01*
X138999999Y-119335771D02*
X139047618Y-119431009D01*
X139047618Y-119431009D02*
X139047618Y-119526247D01*
X139047618Y-119526247D02*
X138571428Y-119621485D01*
X139476190Y-119954819D02*
X139476190Y-119288152D01*
X139476190Y-119478628D02*
X139523809Y-119383390D01*
X139523809Y-119383390D02*
X139571428Y-119335771D01*
X139571428Y-119335771D02*
X139666666Y-119288152D01*
X139666666Y-119288152D02*
X139761904Y-119288152D01*
X140619047Y-119954819D02*
X140047619Y-119954819D01*
X140333333Y-119954819D02*
X140333333Y-118954819D01*
X140333333Y-118954819D02*
X140238095Y-119097676D01*
X140238095Y-119097676D02*
X140142857Y-119192914D01*
X140142857Y-119192914D02*
X140047619Y-119240533D01*
X134666667Y-125157200D02*
X134809524Y-125204819D01*
X134809524Y-125204819D02*
X135047619Y-125204819D01*
X135047619Y-125204819D02*
X135142857Y-125157200D01*
X135142857Y-125157200D02*
X135190476Y-125109580D01*
X135190476Y-125109580D02*
X135238095Y-125014342D01*
X135238095Y-125014342D02*
X135238095Y-124919104D01*
X135238095Y-124919104D02*
X135190476Y-124823866D01*
X135190476Y-124823866D02*
X135142857Y-124776247D01*
X135142857Y-124776247D02*
X135047619Y-124728628D01*
X135047619Y-124728628D02*
X134857143Y-124681009D01*
X134857143Y-124681009D02*
X134761905Y-124633390D01*
X134761905Y-124633390D02*
X134714286Y-124585771D01*
X134714286Y-124585771D02*
X134666667Y-124490533D01*
X134666667Y-124490533D02*
X134666667Y-124395295D01*
X134666667Y-124395295D02*
X134714286Y-124300057D01*
X134714286Y-124300057D02*
X134761905Y-124252438D01*
X134761905Y-124252438D02*
X134857143Y-124204819D01*
X134857143Y-124204819D02*
X135095238Y-124204819D01*
X135095238Y-124204819D02*
X135238095Y-124252438D01*
X135571429Y-124204819D02*
X135809524Y-125204819D01*
X135809524Y-125204819D02*
X136000000Y-124490533D01*
X136000000Y-124490533D02*
X136190476Y-125204819D01*
X136190476Y-125204819D02*
X136428572Y-124204819D01*
X136714286Y-124204819D02*
X137333333Y-124204819D01*
X137333333Y-124204819D02*
X137000000Y-124585771D01*
X137000000Y-124585771D02*
X137142857Y-124585771D01*
X137142857Y-124585771D02*
X137238095Y-124633390D01*
X137238095Y-124633390D02*
X137285714Y-124681009D01*
X137285714Y-124681009D02*
X137333333Y-124776247D01*
X137333333Y-124776247D02*
X137333333Y-125014342D01*
X137333333Y-125014342D02*
X137285714Y-125109580D01*
X137285714Y-125109580D02*
X137238095Y-125157200D01*
X137238095Y-125157200D02*
X137142857Y-125204819D01*
X137142857Y-125204819D02*
X136857143Y-125204819D01*
X136857143Y-125204819D02*
X136761905Y-125157200D01*
X136761905Y-125157200D02*
X136714286Y-125109580D01*
X93833333Y-118539580D02*
X93785714Y-118587200D01*
X93785714Y-118587200D02*
X93642857Y-118634819D01*
X93642857Y-118634819D02*
X93547619Y-118634819D01*
X93547619Y-118634819D02*
X93404762Y-118587200D01*
X93404762Y-118587200D02*
X93309524Y-118491961D01*
X93309524Y-118491961D02*
X93261905Y-118396723D01*
X93261905Y-118396723D02*
X93214286Y-118206247D01*
X93214286Y-118206247D02*
X93214286Y-118063390D01*
X93214286Y-118063390D02*
X93261905Y-117872914D01*
X93261905Y-117872914D02*
X93309524Y-117777676D01*
X93309524Y-117777676D02*
X93404762Y-117682438D01*
X93404762Y-117682438D02*
X93547619Y-117634819D01*
X93547619Y-117634819D02*
X93642857Y-117634819D01*
X93642857Y-117634819D02*
X93785714Y-117682438D01*
X93785714Y-117682438D02*
X93833333Y-117730057D01*
X94166667Y-117634819D02*
X94833333Y-117634819D01*
X94833333Y-117634819D02*
X94404762Y-118634819D01*
X116124819Y-124333333D02*
X116839104Y-124333333D01*
X116839104Y-124333333D02*
X116981961Y-124380952D01*
X116981961Y-124380952D02*
X117077200Y-124476190D01*
X117077200Y-124476190D02*
X117124819Y-124619047D01*
X117124819Y-124619047D02*
X117124819Y-124714285D01*
X116458152Y-123428571D02*
X117124819Y-123428571D01*
X116077200Y-123666666D02*
X116791485Y-123904761D01*
X116791485Y-123904761D02*
X116791485Y-123285714D01*
X88404761Y-107800057D02*
X88309523Y-107752438D01*
X88309523Y-107752438D02*
X88214285Y-107657200D01*
X88214285Y-107657200D02*
X88071428Y-107514342D01*
X88071428Y-107514342D02*
X87976190Y-107466723D01*
X87976190Y-107466723D02*
X87880952Y-107466723D01*
X87928571Y-107704819D02*
X87833333Y-107657200D01*
X87833333Y-107657200D02*
X87738095Y-107561961D01*
X87738095Y-107561961D02*
X87690476Y-107371485D01*
X87690476Y-107371485D02*
X87690476Y-107038152D01*
X87690476Y-107038152D02*
X87738095Y-106847676D01*
X87738095Y-106847676D02*
X87833333Y-106752438D01*
X87833333Y-106752438D02*
X87928571Y-106704819D01*
X87928571Y-106704819D02*
X88119047Y-106704819D01*
X88119047Y-106704819D02*
X88214285Y-106752438D01*
X88214285Y-106752438D02*
X88309523Y-106847676D01*
X88309523Y-106847676D02*
X88357142Y-107038152D01*
X88357142Y-107038152D02*
X88357142Y-107371485D01*
X88357142Y-107371485D02*
X88309523Y-107561961D01*
X88309523Y-107561961D02*
X88214285Y-107657200D01*
X88214285Y-107657200D02*
X88119047Y-107704819D01*
X88119047Y-107704819D02*
X87928571Y-107704819D01*
X89309523Y-107704819D02*
X88738095Y-107704819D01*
X89023809Y-107704819D02*
X89023809Y-106704819D01*
X89023809Y-106704819D02*
X88928571Y-106847676D01*
X88928571Y-106847676D02*
X88833333Y-106942914D01*
X88833333Y-106942914D02*
X88738095Y-106990533D01*
X98857142Y-128804819D02*
X98523809Y-128328628D01*
X98285714Y-128804819D02*
X98285714Y-127804819D01*
X98285714Y-127804819D02*
X98666666Y-127804819D01*
X98666666Y-127804819D02*
X98761904Y-127852438D01*
X98761904Y-127852438D02*
X98809523Y-127900057D01*
X98809523Y-127900057D02*
X98857142Y-127995295D01*
X98857142Y-127995295D02*
X98857142Y-128138152D01*
X98857142Y-128138152D02*
X98809523Y-128233390D01*
X98809523Y-128233390D02*
X98761904Y-128281009D01*
X98761904Y-128281009D02*
X98666666Y-128328628D01*
X98666666Y-128328628D02*
X98285714Y-128328628D01*
X99809523Y-128804819D02*
X99238095Y-128804819D01*
X99523809Y-128804819D02*
X99523809Y-127804819D01*
X99523809Y-127804819D02*
X99428571Y-127947676D01*
X99428571Y-127947676D02*
X99333333Y-128042914D01*
X99333333Y-128042914D02*
X99238095Y-128090533D01*
X100761904Y-128804819D02*
X100190476Y-128804819D01*
X100476190Y-128804819D02*
X100476190Y-127804819D01*
X100476190Y-127804819D02*
X100380952Y-127947676D01*
X100380952Y-127947676D02*
X100285714Y-128042914D01*
X100285714Y-128042914D02*
X100190476Y-128090533D01*
X96704819Y-121892857D02*
X96228628Y-122226190D01*
X96704819Y-122464285D02*
X95704819Y-122464285D01*
X95704819Y-122464285D02*
X95704819Y-122083333D01*
X95704819Y-122083333D02*
X95752438Y-121988095D01*
X95752438Y-121988095D02*
X95800057Y-121940476D01*
X95800057Y-121940476D02*
X95895295Y-121892857D01*
X95895295Y-121892857D02*
X96038152Y-121892857D01*
X96038152Y-121892857D02*
X96133390Y-121940476D01*
X96133390Y-121940476D02*
X96181009Y-121988095D01*
X96181009Y-121988095D02*
X96228628Y-122083333D01*
X96228628Y-122083333D02*
X96228628Y-122464285D01*
X96704819Y-120940476D02*
X96704819Y-121511904D01*
X96704819Y-121226190D02*
X95704819Y-121226190D01*
X95704819Y-121226190D02*
X95847676Y-121321428D01*
X95847676Y-121321428D02*
X95942914Y-121416666D01*
X95942914Y-121416666D02*
X95990533Y-121511904D01*
X95704819Y-120321428D02*
X95704819Y-120226190D01*
X95704819Y-120226190D02*
X95752438Y-120130952D01*
X95752438Y-120130952D02*
X95800057Y-120083333D01*
X95800057Y-120083333D02*
X95895295Y-120035714D01*
X95895295Y-120035714D02*
X96085771Y-119988095D01*
X96085771Y-119988095D02*
X96323866Y-119988095D01*
X96323866Y-119988095D02*
X96514342Y-120035714D01*
X96514342Y-120035714D02*
X96609580Y-120083333D01*
X96609580Y-120083333D02*
X96657200Y-120130952D01*
X96657200Y-120130952D02*
X96704819Y-120226190D01*
X96704819Y-120226190D02*
X96704819Y-120321428D01*
X96704819Y-120321428D02*
X96657200Y-120416666D01*
X96657200Y-120416666D02*
X96609580Y-120464285D01*
X96609580Y-120464285D02*
X96514342Y-120511904D01*
X96514342Y-120511904D02*
X96323866Y-120559523D01*
X96323866Y-120559523D02*
X96085771Y-120559523D01*
X96085771Y-120559523D02*
X95895295Y-120511904D01*
X95895295Y-120511904D02*
X95800057Y-120464285D01*
X95800057Y-120464285D02*
X95752438Y-120416666D01*
X95752438Y-120416666D02*
X95704819Y-120321428D01*
X165629819Y-111833333D02*
X166344104Y-111833333D01*
X166344104Y-111833333D02*
X166486961Y-111880952D01*
X166486961Y-111880952D02*
X166582200Y-111976190D01*
X166582200Y-111976190D02*
X166629819Y-112119047D01*
X166629819Y-112119047D02*
X166629819Y-112214285D01*
X166629819Y-110833333D02*
X166629819Y-111404761D01*
X166629819Y-111119047D02*
X165629819Y-111119047D01*
X165629819Y-111119047D02*
X165772676Y-111214285D01*
X165772676Y-111214285D02*
X165867914Y-111309523D01*
X165867914Y-111309523D02*
X165915533Y-111404761D01*
X93833333Y-105554819D02*
X93500000Y-105078628D01*
X93261905Y-105554819D02*
X93261905Y-104554819D01*
X93261905Y-104554819D02*
X93642857Y-104554819D01*
X93642857Y-104554819D02*
X93738095Y-104602438D01*
X93738095Y-104602438D02*
X93785714Y-104650057D01*
X93785714Y-104650057D02*
X93833333Y-104745295D01*
X93833333Y-104745295D02*
X93833333Y-104888152D01*
X93833333Y-104888152D02*
X93785714Y-104983390D01*
X93785714Y-104983390D02*
X93738095Y-105031009D01*
X93738095Y-105031009D02*
X93642857Y-105078628D01*
X93642857Y-105078628D02*
X93261905Y-105078628D01*
X94404762Y-104983390D02*
X94309524Y-104935771D01*
X94309524Y-104935771D02*
X94261905Y-104888152D01*
X94261905Y-104888152D02*
X94214286Y-104792914D01*
X94214286Y-104792914D02*
X94214286Y-104745295D01*
X94214286Y-104745295D02*
X94261905Y-104650057D01*
X94261905Y-104650057D02*
X94309524Y-104602438D01*
X94309524Y-104602438D02*
X94404762Y-104554819D01*
X94404762Y-104554819D02*
X94595238Y-104554819D01*
X94595238Y-104554819D02*
X94690476Y-104602438D01*
X94690476Y-104602438D02*
X94738095Y-104650057D01*
X94738095Y-104650057D02*
X94785714Y-104745295D01*
X94785714Y-104745295D02*
X94785714Y-104792914D01*
X94785714Y-104792914D02*
X94738095Y-104888152D01*
X94738095Y-104888152D02*
X94690476Y-104935771D01*
X94690476Y-104935771D02*
X94595238Y-104983390D01*
X94595238Y-104983390D02*
X94404762Y-104983390D01*
X94404762Y-104983390D02*
X94309524Y-105031009D01*
X94309524Y-105031009D02*
X94261905Y-105078628D01*
X94261905Y-105078628D02*
X94214286Y-105173866D01*
X94214286Y-105173866D02*
X94214286Y-105364342D01*
X94214286Y-105364342D02*
X94261905Y-105459580D01*
X94261905Y-105459580D02*
X94309524Y-105507200D01*
X94309524Y-105507200D02*
X94404762Y-105554819D01*
X94404762Y-105554819D02*
X94595238Y-105554819D01*
X94595238Y-105554819D02*
X94690476Y-105507200D01*
X94690476Y-105507200D02*
X94738095Y-105459580D01*
X94738095Y-105459580D02*
X94785714Y-105364342D01*
X94785714Y-105364342D02*
X94785714Y-105173866D01*
X94785714Y-105173866D02*
X94738095Y-105078628D01*
X94738095Y-105078628D02*
X94690476Y-105031009D01*
X94690476Y-105031009D02*
X94595238Y-104983390D01*
X93440476Y-124874819D02*
X93440476Y-125589104D01*
X93440476Y-125589104D02*
X93392857Y-125731961D01*
X93392857Y-125731961D02*
X93297619Y-125827200D01*
X93297619Y-125827200D02*
X93154762Y-125874819D01*
X93154762Y-125874819D02*
X93059524Y-125874819D01*
X94440476Y-125874819D02*
X93869048Y-125874819D01*
X94154762Y-125874819D02*
X94154762Y-124874819D01*
X94154762Y-124874819D02*
X94059524Y-125017676D01*
X94059524Y-125017676D02*
X93964286Y-125112914D01*
X93964286Y-125112914D02*
X93869048Y-125160533D01*
X95392857Y-125874819D02*
X94821429Y-125874819D01*
X95107143Y-125874819D02*
X95107143Y-124874819D01*
X95107143Y-124874819D02*
X95011905Y-125017676D01*
X95011905Y-125017676D02*
X94916667Y-125112914D01*
X94916667Y-125112914D02*
X94821429Y-125160533D01*
X170333333Y-102429580D02*
X170285714Y-102477200D01*
X170285714Y-102477200D02*
X170142857Y-102524819D01*
X170142857Y-102524819D02*
X170047619Y-102524819D01*
X170047619Y-102524819D02*
X169904762Y-102477200D01*
X169904762Y-102477200D02*
X169809524Y-102381961D01*
X169809524Y-102381961D02*
X169761905Y-102286723D01*
X169761905Y-102286723D02*
X169714286Y-102096247D01*
X169714286Y-102096247D02*
X169714286Y-101953390D01*
X169714286Y-101953390D02*
X169761905Y-101762914D01*
X169761905Y-101762914D02*
X169809524Y-101667676D01*
X169809524Y-101667676D02*
X169904762Y-101572438D01*
X169904762Y-101572438D02*
X170047619Y-101524819D01*
X170047619Y-101524819D02*
X170142857Y-101524819D01*
X170142857Y-101524819D02*
X170285714Y-101572438D01*
X170285714Y-101572438D02*
X170333333Y-101620057D01*
X171285714Y-102524819D02*
X170714286Y-102524819D01*
X171000000Y-102524819D02*
X171000000Y-101524819D01*
X171000000Y-101524819D02*
X170904762Y-101667676D01*
X170904762Y-101667676D02*
X170809524Y-101762914D01*
X170809524Y-101762914D02*
X170714286Y-101810533D01*
X105583333Y-112054819D02*
X105250000Y-111578628D01*
X105011905Y-112054819D02*
X105011905Y-111054819D01*
X105011905Y-111054819D02*
X105392857Y-111054819D01*
X105392857Y-111054819D02*
X105488095Y-111102438D01*
X105488095Y-111102438D02*
X105535714Y-111150057D01*
X105535714Y-111150057D02*
X105583333Y-111245295D01*
X105583333Y-111245295D02*
X105583333Y-111388152D01*
X105583333Y-111388152D02*
X105535714Y-111483390D01*
X105535714Y-111483390D02*
X105488095Y-111531009D01*
X105488095Y-111531009D02*
X105392857Y-111578628D01*
X105392857Y-111578628D02*
X105011905Y-111578628D01*
X106535714Y-112054819D02*
X105964286Y-112054819D01*
X106250000Y-112054819D02*
X106250000Y-111054819D01*
X106250000Y-111054819D02*
X106154762Y-111197676D01*
X106154762Y-111197676D02*
X106059524Y-111292914D01*
X106059524Y-111292914D02*
X105964286Y-111340533D01*
X160333333Y-129604819D02*
X160000000Y-129128628D01*
X159761905Y-129604819D02*
X159761905Y-128604819D01*
X159761905Y-128604819D02*
X160142857Y-128604819D01*
X160142857Y-128604819D02*
X160238095Y-128652438D01*
X160238095Y-128652438D02*
X160285714Y-128700057D01*
X160285714Y-128700057D02*
X160333333Y-128795295D01*
X160333333Y-128795295D02*
X160333333Y-128938152D01*
X160333333Y-128938152D02*
X160285714Y-129033390D01*
X160285714Y-129033390D02*
X160238095Y-129081009D01*
X160238095Y-129081009D02*
X160142857Y-129128628D01*
X160142857Y-129128628D02*
X159761905Y-129128628D01*
X161190476Y-128938152D02*
X161190476Y-129604819D01*
X160952381Y-128557200D02*
X160714286Y-129271485D01*
X160714286Y-129271485D02*
X161333333Y-129271485D01*
X97479819Y-101452380D02*
X96479819Y-101452380D01*
X96479819Y-101452380D02*
X97194104Y-101119047D01*
X97194104Y-101119047D02*
X96479819Y-100785714D01*
X96479819Y-100785714D02*
X97479819Y-100785714D01*
X97479819Y-100309523D02*
X96479819Y-100309523D01*
X97384580Y-99261905D02*
X97432200Y-99309524D01*
X97432200Y-99309524D02*
X97479819Y-99452381D01*
X97479819Y-99452381D02*
X97479819Y-99547619D01*
X97479819Y-99547619D02*
X97432200Y-99690476D01*
X97432200Y-99690476D02*
X97336961Y-99785714D01*
X97336961Y-99785714D02*
X97241723Y-99833333D01*
X97241723Y-99833333D02*
X97051247Y-99880952D01*
X97051247Y-99880952D02*
X96908390Y-99880952D01*
X96908390Y-99880952D02*
X96717914Y-99833333D01*
X96717914Y-99833333D02*
X96622676Y-99785714D01*
X96622676Y-99785714D02*
X96527438Y-99690476D01*
X96527438Y-99690476D02*
X96479819Y-99547619D01*
X96479819Y-99547619D02*
X96479819Y-99452381D01*
X96479819Y-99452381D02*
X96527438Y-99309524D01*
X96527438Y-99309524D02*
X96575057Y-99261905D01*
X97384580Y-98261905D02*
X97432200Y-98309524D01*
X97432200Y-98309524D02*
X97479819Y-98452381D01*
X97479819Y-98452381D02*
X97479819Y-98547619D01*
X97479819Y-98547619D02*
X97432200Y-98690476D01*
X97432200Y-98690476D02*
X97336961Y-98785714D01*
X97336961Y-98785714D02*
X97241723Y-98833333D01*
X97241723Y-98833333D02*
X97051247Y-98880952D01*
X97051247Y-98880952D02*
X96908390Y-98880952D01*
X96908390Y-98880952D02*
X96717914Y-98833333D01*
X96717914Y-98833333D02*
X96622676Y-98785714D01*
X96622676Y-98785714D02*
X96527438Y-98690476D01*
X96527438Y-98690476D02*
X96479819Y-98547619D01*
X96479819Y-98547619D02*
X96479819Y-98452381D01*
X96479819Y-98452381D02*
X96527438Y-98309524D01*
X96527438Y-98309524D02*
X96575057Y-98261905D01*
X97479819Y-97357143D02*
X97479819Y-97833333D01*
X97479819Y-97833333D02*
X96479819Y-97833333D01*
X97479819Y-97023809D02*
X96479819Y-97023809D01*
X97479819Y-96452381D02*
X96908390Y-96880952D01*
X96479819Y-96452381D02*
X97051247Y-97023809D01*
X97479819Y-95500000D02*
X97479819Y-96071428D01*
X97479819Y-95785714D02*
X96479819Y-95785714D01*
X96479819Y-95785714D02*
X96622676Y-95880952D01*
X96622676Y-95880952D02*
X96717914Y-95976190D01*
X96717914Y-95976190D02*
X96765533Y-96071428D01*
X165833333Y-135104819D02*
X165500000Y-134628628D01*
X165261905Y-135104819D02*
X165261905Y-134104819D01*
X165261905Y-134104819D02*
X165642857Y-134104819D01*
X165642857Y-134104819D02*
X165738095Y-134152438D01*
X165738095Y-134152438D02*
X165785714Y-134200057D01*
X165785714Y-134200057D02*
X165833333Y-134295295D01*
X165833333Y-134295295D02*
X165833333Y-134438152D01*
X165833333Y-134438152D02*
X165785714Y-134533390D01*
X165785714Y-134533390D02*
X165738095Y-134581009D01*
X165738095Y-134581009D02*
X165642857Y-134628628D01*
X165642857Y-134628628D02*
X165261905Y-134628628D01*
X166166667Y-134104819D02*
X166833333Y-134104819D01*
X166833333Y-134104819D02*
X166404762Y-135104819D01*
X93833333Y-110804819D02*
X93500000Y-110328628D01*
X93261905Y-110804819D02*
X93261905Y-109804819D01*
X93261905Y-109804819D02*
X93642857Y-109804819D01*
X93642857Y-109804819D02*
X93738095Y-109852438D01*
X93738095Y-109852438D02*
X93785714Y-109900057D01*
X93785714Y-109900057D02*
X93833333Y-109995295D01*
X93833333Y-109995295D02*
X93833333Y-110138152D01*
X93833333Y-110138152D02*
X93785714Y-110233390D01*
X93785714Y-110233390D02*
X93738095Y-110281009D01*
X93738095Y-110281009D02*
X93642857Y-110328628D01*
X93642857Y-110328628D02*
X93261905Y-110328628D01*
X94690476Y-109804819D02*
X94500000Y-109804819D01*
X94500000Y-109804819D02*
X94404762Y-109852438D01*
X94404762Y-109852438D02*
X94357143Y-109900057D01*
X94357143Y-109900057D02*
X94261905Y-110042914D01*
X94261905Y-110042914D02*
X94214286Y-110233390D01*
X94214286Y-110233390D02*
X94214286Y-110614342D01*
X94214286Y-110614342D02*
X94261905Y-110709580D01*
X94261905Y-110709580D02*
X94309524Y-110757200D01*
X94309524Y-110757200D02*
X94404762Y-110804819D01*
X94404762Y-110804819D02*
X94595238Y-110804819D01*
X94595238Y-110804819D02*
X94690476Y-110757200D01*
X94690476Y-110757200D02*
X94738095Y-110709580D01*
X94738095Y-110709580D02*
X94785714Y-110614342D01*
X94785714Y-110614342D02*
X94785714Y-110376247D01*
X94785714Y-110376247D02*
X94738095Y-110281009D01*
X94738095Y-110281009D02*
X94690476Y-110233390D01*
X94690476Y-110233390D02*
X94595238Y-110185771D01*
X94595238Y-110185771D02*
X94404762Y-110185771D01*
X94404762Y-110185771D02*
X94309524Y-110233390D01*
X94309524Y-110233390D02*
X94261905Y-110281009D01*
X94261905Y-110281009D02*
X94214286Y-110376247D01*
X143954819Y-116333333D02*
X144669104Y-116333333D01*
X144669104Y-116333333D02*
X144811961Y-116380952D01*
X144811961Y-116380952D02*
X144907200Y-116476190D01*
X144907200Y-116476190D02*
X144954819Y-116619047D01*
X144954819Y-116619047D02*
X144954819Y-116714285D01*
X143954819Y-115952380D02*
X143954819Y-115285714D01*
X143954819Y-115285714D02*
X144954819Y-115714285D01*
X151295833Y-143039580D02*
X151248214Y-143087200D01*
X151248214Y-143087200D02*
X151105357Y-143134819D01*
X151105357Y-143134819D02*
X151010119Y-143134819D01*
X151010119Y-143134819D02*
X150867262Y-143087200D01*
X150867262Y-143087200D02*
X150772024Y-142991961D01*
X150772024Y-142991961D02*
X150724405Y-142896723D01*
X150724405Y-142896723D02*
X150676786Y-142706247D01*
X150676786Y-142706247D02*
X150676786Y-142563390D01*
X150676786Y-142563390D02*
X150724405Y-142372914D01*
X150724405Y-142372914D02*
X150772024Y-142277676D01*
X150772024Y-142277676D02*
X150867262Y-142182438D01*
X150867262Y-142182438D02*
X151010119Y-142134819D01*
X151010119Y-142134819D02*
X151105357Y-142134819D01*
X151105357Y-142134819D02*
X151248214Y-142182438D01*
X151248214Y-142182438D02*
X151295833Y-142230057D01*
X152200595Y-142134819D02*
X151724405Y-142134819D01*
X151724405Y-142134819D02*
X151676786Y-142611009D01*
X151676786Y-142611009D02*
X151724405Y-142563390D01*
X151724405Y-142563390D02*
X151819643Y-142515771D01*
X151819643Y-142515771D02*
X152057738Y-142515771D01*
X152057738Y-142515771D02*
X152152976Y-142563390D01*
X152152976Y-142563390D02*
X152200595Y-142611009D01*
X152200595Y-142611009D02*
X152248214Y-142706247D01*
X152248214Y-142706247D02*
X152248214Y-142944342D01*
X152248214Y-142944342D02*
X152200595Y-143039580D01*
X152200595Y-143039580D02*
X152152976Y-143087200D01*
X152152976Y-143087200D02*
X152057738Y-143134819D01*
X152057738Y-143134819D02*
X151819643Y-143134819D01*
X151819643Y-143134819D02*
X151724405Y-143087200D01*
X151724405Y-143087200D02*
X151676786Y-143039580D01*
X118166666Y-107584819D02*
X118166666Y-108299104D01*
X118166666Y-108299104D02*
X118119047Y-108441961D01*
X118119047Y-108441961D02*
X118023809Y-108537200D01*
X118023809Y-108537200D02*
X117880952Y-108584819D01*
X117880952Y-108584819D02*
X117785714Y-108584819D01*
X119119047Y-107584819D02*
X118642857Y-107584819D01*
X118642857Y-107584819D02*
X118595238Y-108061009D01*
X118595238Y-108061009D02*
X118642857Y-108013390D01*
X118642857Y-108013390D02*
X118738095Y-107965771D01*
X118738095Y-107965771D02*
X118976190Y-107965771D01*
X118976190Y-107965771D02*
X119071428Y-108013390D01*
X119071428Y-108013390D02*
X119119047Y-108061009D01*
X119119047Y-108061009D02*
X119166666Y-108156247D01*
X119166666Y-108156247D02*
X119166666Y-108394342D01*
X119166666Y-108394342D02*
X119119047Y-108489580D01*
X119119047Y-108489580D02*
X119071428Y-108537200D01*
X119071428Y-108537200D02*
X118976190Y-108584819D01*
X118976190Y-108584819D02*
X118738095Y-108584819D01*
X118738095Y-108584819D02*
X118642857Y-108537200D01*
X118642857Y-108537200D02*
X118595238Y-108489580D01*
X155416666Y-92954819D02*
X155416666Y-93669104D01*
X155416666Y-93669104D02*
X155369047Y-93811961D01*
X155369047Y-93811961D02*
X155273809Y-93907200D01*
X155273809Y-93907200D02*
X155130952Y-93954819D01*
X155130952Y-93954819D02*
X155035714Y-93954819D01*
X156321428Y-92954819D02*
X156130952Y-92954819D01*
X156130952Y-92954819D02*
X156035714Y-93002438D01*
X156035714Y-93002438D02*
X155988095Y-93050057D01*
X155988095Y-93050057D02*
X155892857Y-93192914D01*
X155892857Y-93192914D02*
X155845238Y-93383390D01*
X155845238Y-93383390D02*
X155845238Y-93764342D01*
X155845238Y-93764342D02*
X155892857Y-93859580D01*
X155892857Y-93859580D02*
X155940476Y-93907200D01*
X155940476Y-93907200D02*
X156035714Y-93954819D01*
X156035714Y-93954819D02*
X156226190Y-93954819D01*
X156226190Y-93954819D02*
X156321428Y-93907200D01*
X156321428Y-93907200D02*
X156369047Y-93859580D01*
X156369047Y-93859580D02*
X156416666Y-93764342D01*
X156416666Y-93764342D02*
X156416666Y-93526247D01*
X156416666Y-93526247D02*
X156369047Y-93431009D01*
X156369047Y-93431009D02*
X156321428Y-93383390D01*
X156321428Y-93383390D02*
X156226190Y-93335771D01*
X156226190Y-93335771D02*
X156035714Y-93335771D01*
X156035714Y-93335771D02*
X155940476Y-93383390D01*
X155940476Y-93383390D02*
X155892857Y-93431009D01*
X155892857Y-93431009D02*
X155845238Y-93526247D01*
X101166667Y-117407200D02*
X101309524Y-117454819D01*
X101309524Y-117454819D02*
X101547619Y-117454819D01*
X101547619Y-117454819D02*
X101642857Y-117407200D01*
X101642857Y-117407200D02*
X101690476Y-117359580D01*
X101690476Y-117359580D02*
X101738095Y-117264342D01*
X101738095Y-117264342D02*
X101738095Y-117169104D01*
X101738095Y-117169104D02*
X101690476Y-117073866D01*
X101690476Y-117073866D02*
X101642857Y-117026247D01*
X101642857Y-117026247D02*
X101547619Y-116978628D01*
X101547619Y-116978628D02*
X101357143Y-116931009D01*
X101357143Y-116931009D02*
X101261905Y-116883390D01*
X101261905Y-116883390D02*
X101214286Y-116835771D01*
X101214286Y-116835771D02*
X101166667Y-116740533D01*
X101166667Y-116740533D02*
X101166667Y-116645295D01*
X101166667Y-116645295D02*
X101214286Y-116550057D01*
X101214286Y-116550057D02*
X101261905Y-116502438D01*
X101261905Y-116502438D02*
X101357143Y-116454819D01*
X101357143Y-116454819D02*
X101595238Y-116454819D01*
X101595238Y-116454819D02*
X101738095Y-116502438D01*
X102071429Y-116454819D02*
X102309524Y-117454819D01*
X102309524Y-117454819D02*
X102500000Y-116740533D01*
X102500000Y-116740533D02*
X102690476Y-117454819D01*
X102690476Y-117454819D02*
X102928572Y-116454819D01*
X103833333Y-117454819D02*
X103261905Y-117454819D01*
X103547619Y-117454819D02*
X103547619Y-116454819D01*
X103547619Y-116454819D02*
X103452381Y-116597676D01*
X103452381Y-116597676D02*
X103357143Y-116692914D01*
X103357143Y-116692914D02*
X103261905Y-116740533D01*
X104166666Y-99624819D02*
X104166666Y-100339104D01*
X104166666Y-100339104D02*
X104119047Y-100481961D01*
X104119047Y-100481961D02*
X104023809Y-100577200D01*
X104023809Y-100577200D02*
X103880952Y-100624819D01*
X103880952Y-100624819D02*
X103785714Y-100624819D01*
X104547619Y-99624819D02*
X105166666Y-99624819D01*
X105166666Y-99624819D02*
X104833333Y-100005771D01*
X104833333Y-100005771D02*
X104976190Y-100005771D01*
X104976190Y-100005771D02*
X105071428Y-100053390D01*
X105071428Y-100053390D02*
X105119047Y-100101009D01*
X105119047Y-100101009D02*
X105166666Y-100196247D01*
X105166666Y-100196247D02*
X105166666Y-100434342D01*
X105166666Y-100434342D02*
X105119047Y-100529580D01*
X105119047Y-100529580D02*
X105071428Y-100577200D01*
X105071428Y-100577200D02*
X104976190Y-100624819D01*
X104976190Y-100624819D02*
X104690476Y-100624819D01*
X104690476Y-100624819D02*
X104595238Y-100577200D01*
X104595238Y-100577200D02*
X104547619Y-100529580D01*
X143545833Y-139679580D02*
X143498214Y-139727200D01*
X143498214Y-139727200D02*
X143355357Y-139774819D01*
X143355357Y-139774819D02*
X143260119Y-139774819D01*
X143260119Y-139774819D02*
X143117262Y-139727200D01*
X143117262Y-139727200D02*
X143022024Y-139631961D01*
X143022024Y-139631961D02*
X142974405Y-139536723D01*
X142974405Y-139536723D02*
X142926786Y-139346247D01*
X142926786Y-139346247D02*
X142926786Y-139203390D01*
X142926786Y-139203390D02*
X142974405Y-139012914D01*
X142974405Y-139012914D02*
X143022024Y-138917676D01*
X143022024Y-138917676D02*
X143117262Y-138822438D01*
X143117262Y-138822438D02*
X143260119Y-138774819D01*
X143260119Y-138774819D02*
X143355357Y-138774819D01*
X143355357Y-138774819D02*
X143498214Y-138822438D01*
X143498214Y-138822438D02*
X143545833Y-138870057D01*
X143879167Y-138774819D02*
X144498214Y-138774819D01*
X144498214Y-138774819D02*
X144164881Y-139155771D01*
X144164881Y-139155771D02*
X144307738Y-139155771D01*
X144307738Y-139155771D02*
X144402976Y-139203390D01*
X144402976Y-139203390D02*
X144450595Y-139251009D01*
X144450595Y-139251009D02*
X144498214Y-139346247D01*
X144498214Y-139346247D02*
X144498214Y-139584342D01*
X144498214Y-139584342D02*
X144450595Y-139679580D01*
X144450595Y-139679580D02*
X144402976Y-139727200D01*
X144402976Y-139727200D02*
X144307738Y-139774819D01*
X144307738Y-139774819D02*
X144022024Y-139774819D01*
X144022024Y-139774819D02*
X143926786Y-139727200D01*
X143926786Y-139727200D02*
X143879167Y-139679580D01*
X118166666Y-96624819D02*
X118166666Y-97339104D01*
X118166666Y-97339104D02*
X118119047Y-97481961D01*
X118119047Y-97481961D02*
X118023809Y-97577200D01*
X118023809Y-97577200D02*
X117880952Y-97624819D01*
X117880952Y-97624819D02*
X117785714Y-97624819D01*
X118785714Y-97053390D02*
X118690476Y-97005771D01*
X118690476Y-97005771D02*
X118642857Y-96958152D01*
X118642857Y-96958152D02*
X118595238Y-96862914D01*
X118595238Y-96862914D02*
X118595238Y-96815295D01*
X118595238Y-96815295D02*
X118642857Y-96720057D01*
X118642857Y-96720057D02*
X118690476Y-96672438D01*
X118690476Y-96672438D02*
X118785714Y-96624819D01*
X118785714Y-96624819D02*
X118976190Y-96624819D01*
X118976190Y-96624819D02*
X119071428Y-96672438D01*
X119071428Y-96672438D02*
X119119047Y-96720057D01*
X119119047Y-96720057D02*
X119166666Y-96815295D01*
X119166666Y-96815295D02*
X119166666Y-96862914D01*
X119166666Y-96862914D02*
X119119047Y-96958152D01*
X119119047Y-96958152D02*
X119071428Y-97005771D01*
X119071428Y-97005771D02*
X118976190Y-97053390D01*
X118976190Y-97053390D02*
X118785714Y-97053390D01*
X118785714Y-97053390D02*
X118690476Y-97101009D01*
X118690476Y-97101009D02*
X118642857Y-97148628D01*
X118642857Y-97148628D02*
X118595238Y-97243866D01*
X118595238Y-97243866D02*
X118595238Y-97434342D01*
X118595238Y-97434342D02*
X118642857Y-97529580D01*
X118642857Y-97529580D02*
X118690476Y-97577200D01*
X118690476Y-97577200D02*
X118785714Y-97624819D01*
X118785714Y-97624819D02*
X118976190Y-97624819D01*
X118976190Y-97624819D02*
X119071428Y-97577200D01*
X119071428Y-97577200D02*
X119119047Y-97529580D01*
X119119047Y-97529580D02*
X119166666Y-97434342D01*
X119166666Y-97434342D02*
X119166666Y-97243866D01*
X119166666Y-97243866D02*
X119119047Y-97148628D01*
X119119047Y-97148628D02*
X119071428Y-97101009D01*
X119071428Y-97101009D02*
X118976190Y-97053390D01*
X151383333Y-134814819D02*
X151050000Y-134338628D01*
X150811905Y-134814819D02*
X150811905Y-133814819D01*
X150811905Y-133814819D02*
X151192857Y-133814819D01*
X151192857Y-133814819D02*
X151288095Y-133862438D01*
X151288095Y-133862438D02*
X151335714Y-133910057D01*
X151335714Y-133910057D02*
X151383333Y-134005295D01*
X151383333Y-134005295D02*
X151383333Y-134148152D01*
X151383333Y-134148152D02*
X151335714Y-134243390D01*
X151335714Y-134243390D02*
X151288095Y-134291009D01*
X151288095Y-134291009D02*
X151192857Y-134338628D01*
X151192857Y-134338628D02*
X150811905Y-134338628D01*
X151716667Y-133814819D02*
X152335714Y-133814819D01*
X152335714Y-133814819D02*
X152002381Y-134195771D01*
X152002381Y-134195771D02*
X152145238Y-134195771D01*
X152145238Y-134195771D02*
X152240476Y-134243390D01*
X152240476Y-134243390D02*
X152288095Y-134291009D01*
X152288095Y-134291009D02*
X152335714Y-134386247D01*
X152335714Y-134386247D02*
X152335714Y-134624342D01*
X152335714Y-134624342D02*
X152288095Y-134719580D01*
X152288095Y-134719580D02*
X152240476Y-134767200D01*
X152240476Y-134767200D02*
X152145238Y-134814819D01*
X152145238Y-134814819D02*
X151859524Y-134814819D01*
X151859524Y-134814819D02*
X151764286Y-134767200D01*
X151764286Y-134767200D02*
X151716667Y-134719580D01*
X167338095Y-119454819D02*
X167338095Y-120264342D01*
X167338095Y-120264342D02*
X167385714Y-120359580D01*
X167385714Y-120359580D02*
X167433333Y-120407200D01*
X167433333Y-120407200D02*
X167528571Y-120454819D01*
X167528571Y-120454819D02*
X167719047Y-120454819D01*
X167719047Y-120454819D02*
X167814285Y-120407200D01*
X167814285Y-120407200D02*
X167861904Y-120359580D01*
X167861904Y-120359580D02*
X167909523Y-120264342D01*
X167909523Y-120264342D02*
X167909523Y-119454819D01*
X168338095Y-119550057D02*
X168385714Y-119502438D01*
X168385714Y-119502438D02*
X168480952Y-119454819D01*
X168480952Y-119454819D02*
X168719047Y-119454819D01*
X168719047Y-119454819D02*
X168814285Y-119502438D01*
X168814285Y-119502438D02*
X168861904Y-119550057D01*
X168861904Y-119550057D02*
X168909523Y-119645295D01*
X168909523Y-119645295D02*
X168909523Y-119740533D01*
X168909523Y-119740533D02*
X168861904Y-119883390D01*
X168861904Y-119883390D02*
X168290476Y-120454819D01*
X168290476Y-120454819D02*
X168909523Y-120454819D01*
X122437319Y-110861904D02*
X123246842Y-110861904D01*
X123246842Y-110861904D02*
X123342080Y-110814285D01*
X123342080Y-110814285D02*
X123389700Y-110766666D01*
X123389700Y-110766666D02*
X123437319Y-110671428D01*
X123437319Y-110671428D02*
X123437319Y-110480952D01*
X123437319Y-110480952D02*
X123389700Y-110385714D01*
X123389700Y-110385714D02*
X123342080Y-110338095D01*
X123342080Y-110338095D02*
X123246842Y-110290476D01*
X123246842Y-110290476D02*
X122437319Y-110290476D01*
X123437319Y-109290476D02*
X123437319Y-109861904D01*
X123437319Y-109576190D02*
X122437319Y-109576190D01*
X122437319Y-109576190D02*
X122580176Y-109671428D01*
X122580176Y-109671428D02*
X122675414Y-109766666D01*
X122675414Y-109766666D02*
X122723033Y-109861904D01*
X143545833Y-134679580D02*
X143498214Y-134727200D01*
X143498214Y-134727200D02*
X143355357Y-134774819D01*
X143355357Y-134774819D02*
X143260119Y-134774819D01*
X143260119Y-134774819D02*
X143117262Y-134727200D01*
X143117262Y-134727200D02*
X143022024Y-134631961D01*
X143022024Y-134631961D02*
X142974405Y-134536723D01*
X142974405Y-134536723D02*
X142926786Y-134346247D01*
X142926786Y-134346247D02*
X142926786Y-134203390D01*
X142926786Y-134203390D02*
X142974405Y-134012914D01*
X142974405Y-134012914D02*
X143022024Y-133917676D01*
X143022024Y-133917676D02*
X143117262Y-133822438D01*
X143117262Y-133822438D02*
X143260119Y-133774819D01*
X143260119Y-133774819D02*
X143355357Y-133774819D01*
X143355357Y-133774819D02*
X143498214Y-133822438D01*
X143498214Y-133822438D02*
X143545833Y-133870057D01*
X144402976Y-134108152D02*
X144402976Y-134774819D01*
X144164881Y-133727200D02*
X143926786Y-134441485D01*
X143926786Y-134441485D02*
X144545833Y-134441485D01*
X150642856Y-119084819D02*
X150166666Y-119084819D01*
X150166666Y-119084819D02*
X150166666Y-118084819D01*
X151547618Y-118989580D02*
X151499999Y-119037200D01*
X151499999Y-119037200D02*
X151357142Y-119084819D01*
X151357142Y-119084819D02*
X151261904Y-119084819D01*
X151261904Y-119084819D02*
X151119047Y-119037200D01*
X151119047Y-119037200D02*
X151023809Y-118941961D01*
X151023809Y-118941961D02*
X150976190Y-118846723D01*
X150976190Y-118846723D02*
X150928571Y-118656247D01*
X150928571Y-118656247D02*
X150928571Y-118513390D01*
X150928571Y-118513390D02*
X150976190Y-118322914D01*
X150976190Y-118322914D02*
X151023809Y-118227676D01*
X151023809Y-118227676D02*
X151119047Y-118132438D01*
X151119047Y-118132438D02*
X151261904Y-118084819D01*
X151261904Y-118084819D02*
X151357142Y-118084819D01*
X151357142Y-118084819D02*
X151499999Y-118132438D01*
X151499999Y-118132438D02*
X151547618Y-118180057D01*
X151976190Y-119084819D02*
X151976190Y-118084819D01*
X151976190Y-118084819D02*
X152214285Y-118084819D01*
X152214285Y-118084819D02*
X152357142Y-118132438D01*
X152357142Y-118132438D02*
X152452380Y-118227676D01*
X152452380Y-118227676D02*
X152499999Y-118322914D01*
X152499999Y-118322914D02*
X152547618Y-118513390D01*
X152547618Y-118513390D02*
X152547618Y-118656247D01*
X152547618Y-118656247D02*
X152499999Y-118846723D01*
X152499999Y-118846723D02*
X152452380Y-118941961D01*
X152452380Y-118941961D02*
X152357142Y-119037200D01*
X152357142Y-119037200D02*
X152214285Y-119084819D01*
X152214285Y-119084819D02*
X151976190Y-119084819D01*
X152976190Y-119084819D02*
X152976190Y-118084819D01*
X152976190Y-118084819D02*
X153214285Y-118084819D01*
X153214285Y-118084819D02*
X153357142Y-118132438D01*
X153357142Y-118132438D02*
X153452380Y-118227676D01*
X153452380Y-118227676D02*
X153499999Y-118322914D01*
X153499999Y-118322914D02*
X153547618Y-118513390D01*
X153547618Y-118513390D02*
X153547618Y-118656247D01*
X153547618Y-118656247D02*
X153499999Y-118846723D01*
X153499999Y-118846723D02*
X153452380Y-118941961D01*
X153452380Y-118941961D02*
X153357142Y-119037200D01*
X153357142Y-119037200D02*
X153214285Y-119084819D01*
X153214285Y-119084819D02*
X152976190Y-119084819D01*
X153976190Y-119084819D02*
X153976190Y-118418152D01*
X153976190Y-118084819D02*
X153928571Y-118132438D01*
X153928571Y-118132438D02*
X153976190Y-118180057D01*
X153976190Y-118180057D02*
X154023809Y-118132438D01*
X154023809Y-118132438D02*
X153976190Y-118084819D01*
X153976190Y-118084819D02*
X153976190Y-118180057D01*
X154404761Y-119037200D02*
X154499999Y-119084819D01*
X154499999Y-119084819D02*
X154690475Y-119084819D01*
X154690475Y-119084819D02*
X154785713Y-119037200D01*
X154785713Y-119037200D02*
X154833332Y-118941961D01*
X154833332Y-118941961D02*
X154833332Y-118894342D01*
X154833332Y-118894342D02*
X154785713Y-118799104D01*
X154785713Y-118799104D02*
X154690475Y-118751485D01*
X154690475Y-118751485D02*
X154547618Y-118751485D01*
X154547618Y-118751485D02*
X154452380Y-118703866D01*
X154452380Y-118703866D02*
X154404761Y-118608628D01*
X154404761Y-118608628D02*
X154404761Y-118561009D01*
X154404761Y-118561009D02*
X154452380Y-118465771D01*
X154452380Y-118465771D02*
X154547618Y-118418152D01*
X154547618Y-118418152D02*
X154690475Y-118418152D01*
X154690475Y-118418152D02*
X154785713Y-118465771D01*
X155261904Y-118418152D02*
X155261904Y-119418152D01*
X155261904Y-118465771D02*
X155357142Y-118418152D01*
X155357142Y-118418152D02*
X155547618Y-118418152D01*
X155547618Y-118418152D02*
X155642856Y-118465771D01*
X155642856Y-118465771D02*
X155690475Y-118513390D01*
X155690475Y-118513390D02*
X155738094Y-118608628D01*
X155738094Y-118608628D02*
X155738094Y-118894342D01*
X155738094Y-118894342D02*
X155690475Y-118989580D01*
X155690475Y-118989580D02*
X155642856Y-119037200D01*
X155642856Y-119037200D02*
X155547618Y-119084819D01*
X155547618Y-119084819D02*
X155357142Y-119084819D01*
X155357142Y-119084819D02*
X155261904Y-119037200D01*
X156309523Y-119084819D02*
X156214285Y-119037200D01*
X156214285Y-119037200D02*
X156166666Y-118941961D01*
X156166666Y-118941961D02*
X156166666Y-118084819D01*
X157119047Y-119084819D02*
X157119047Y-118561009D01*
X157119047Y-118561009D02*
X157071428Y-118465771D01*
X157071428Y-118465771D02*
X156976190Y-118418152D01*
X156976190Y-118418152D02*
X156785714Y-118418152D01*
X156785714Y-118418152D02*
X156690476Y-118465771D01*
X157119047Y-119037200D02*
X157023809Y-119084819D01*
X157023809Y-119084819D02*
X156785714Y-119084819D01*
X156785714Y-119084819D02*
X156690476Y-119037200D01*
X156690476Y-119037200D02*
X156642857Y-118941961D01*
X156642857Y-118941961D02*
X156642857Y-118846723D01*
X156642857Y-118846723D02*
X156690476Y-118751485D01*
X156690476Y-118751485D02*
X156785714Y-118703866D01*
X156785714Y-118703866D02*
X157023809Y-118703866D01*
X157023809Y-118703866D02*
X157119047Y-118656247D01*
X157500000Y-118418152D02*
X157738095Y-119084819D01*
X157976190Y-118418152D02*
X157738095Y-119084819D01*
X157738095Y-119084819D02*
X157642857Y-119322914D01*
X157642857Y-119322914D02*
X157595238Y-119370533D01*
X157595238Y-119370533D02*
X157500000Y-119418152D01*
X158880952Y-119084819D02*
X158309524Y-119084819D01*
X158595238Y-119084819D02*
X158595238Y-118084819D01*
X158595238Y-118084819D02*
X158500000Y-118227676D01*
X158500000Y-118227676D02*
X158404762Y-118322914D01*
X158404762Y-118322914D02*
X158309524Y-118370533D01*
D11*
G04 #@! TO.C,R2*
X112522936Y-121015000D02*
X112977064Y-121015000D01*
X112522936Y-122485000D02*
X112977064Y-122485000D01*
G04 #@! TO.C,R5*
X160727064Y-121765000D02*
X160272936Y-121765000D01*
X160727064Y-123235000D02*
X160272936Y-123235000D01*
G04 #@! TO.C,C6*
X160488748Y-115765000D02*
X161011252Y-115765000D01*
X160488748Y-117235000D02*
X161011252Y-117235000D01*
G04 #@! TO.C,SW2*
X87750000Y-98500000D02*
X87750000Y-100000000D01*
X89000000Y-102500000D02*
X93500000Y-102500000D01*
X93500000Y-96000000D02*
X89000000Y-96000000D01*
X94750000Y-100000000D02*
X94750000Y-98500000D01*
G04 #@! TO.C,C8*
X147701248Y-123765000D02*
X148223752Y-123765000D01*
X147701248Y-125235000D02*
X148223752Y-125235000D01*
G04 #@! TO.C,J2*
X146670000Y-115850000D02*
X146670000Y-108170000D01*
X149330000Y-108170000D02*
X146670000Y-108170000D01*
X149330000Y-115850000D02*
X146670000Y-115850000D01*
X149330000Y-115850000D02*
X149330000Y-108170000D01*
X149330000Y-117120000D02*
X149330000Y-118450000D01*
X149330000Y-118450000D02*
X148000000Y-118450000D01*
D12*
G04 #@! TO.C,Q2*
X86924399Y-115653501D02*
X86924399Y-117304501D01*
X86924399Y-117304501D02*
X87937859Y-117304501D01*
X88887860Y-115653501D02*
X88212138Y-115653501D01*
X89162139Y-117304501D02*
X90175599Y-117304501D01*
X90175599Y-117304501D02*
X90175599Y-115653501D01*
D11*
G04 #@! TO.C,DebugSerialPort1*
X160420000Y-107640000D02*
X160420000Y-94880000D01*
X163080000Y-94880000D02*
X160420000Y-94880000D01*
X163080000Y-107640000D02*
X160420000Y-107640000D01*
X163080000Y-107640000D02*
X163080000Y-94880000D01*
X163080000Y-108910000D02*
X163080000Y-110240000D01*
X163080000Y-110240000D02*
X161750000Y-110240000D01*
G04 #@! TO.C,J10*
X118130000Y-119330000D02*
X118130000Y-118000000D01*
X119460000Y-119330000D02*
X118130000Y-119330000D01*
X120730000Y-116670000D02*
X123330000Y-116670000D01*
X120730000Y-119330000D02*
X120730000Y-116670000D01*
X120730000Y-119330000D02*
X123330000Y-119330000D01*
X123330000Y-119330000D02*
X123330000Y-116670000D01*
G04 #@! TO.C,R9*
X89022936Y-124265000D02*
X89477064Y-124265000D01*
X89022936Y-125735000D02*
X89477064Y-125735000D01*
G04 #@! TO.C,C2*
X132511252Y-135265000D02*
X131988748Y-135265000D01*
X132511252Y-136735000D02*
X131988748Y-136735000D01*
G04 #@! TO.C,J9*
X152670000Y-102770000D02*
X152670000Y-100170000D01*
X155330000Y-100170000D02*
X152670000Y-100170000D01*
X155330000Y-102770000D02*
X152670000Y-102770000D01*
X155330000Y-102770000D02*
X155330000Y-100170000D01*
X155330000Y-104040000D02*
X155330000Y-105370000D01*
X155330000Y-105370000D02*
X154000000Y-105370000D01*
G04 #@! TO.C,MICDA1*
X110670000Y-111755000D02*
X110670000Y-106615000D01*
X113330000Y-106615000D02*
X110670000Y-106615000D01*
X113330000Y-111755000D02*
X110670000Y-111755000D01*
X113330000Y-111755000D02*
X113330000Y-106615000D01*
X113330000Y-113025000D02*
X113330000Y-114355000D01*
X113330000Y-114355000D02*
X112000000Y-114355000D01*
G04 #@! TO.C,AudioAmplifier1*
X126840000Y-123580000D02*
X126840000Y-122250000D01*
X128170000Y-123580000D02*
X126840000Y-123580000D01*
X129440000Y-120920000D02*
X144740000Y-120920000D01*
X129440000Y-123580000D02*
X129440000Y-120920000D01*
X129440000Y-123580000D02*
X144740000Y-123580000D01*
X144740000Y-123580000D02*
X144740000Y-120920000D01*
G04 #@! TO.C,SW3*
X132500000Y-128250000D02*
X132500000Y-129750000D01*
X133750000Y-132250000D02*
X138250000Y-132250000D01*
X138250000Y-125750000D02*
X133750000Y-125750000D01*
X139500000Y-129750000D02*
X139500000Y-128250000D01*
G04 #@! TO.C,C7*
X94261252Y-115765000D02*
X93738748Y-115765000D01*
X94261252Y-117235000D02*
X93738748Y-117235000D01*
G04 #@! TO.C,J4*
X117670000Y-125330000D02*
X117670000Y-124000000D01*
X119000000Y-125330000D02*
X117670000Y-125330000D01*
X120270000Y-122670000D02*
X125410000Y-122670000D01*
X120270000Y-125330000D02*
X120270000Y-122670000D01*
X120270000Y-125330000D02*
X125410000Y-125330000D01*
X125410000Y-125330000D02*
X125410000Y-122670000D01*
D12*
G04 #@! TO.C,Q1*
X86874400Y-109195500D02*
X86874400Y-110846500D01*
X87887860Y-109195500D02*
X86874400Y-109195500D01*
X88162139Y-110846500D02*
X88837861Y-110846500D01*
X90125600Y-109195500D02*
X89112140Y-109195500D01*
X90125600Y-110846500D02*
X90125600Y-109195500D01*
D11*
G04 #@! TO.C,R11*
X99272936Y-129265000D02*
X99727064Y-129265000D01*
X99272936Y-130735000D02*
X99727064Y-130735000D01*
G04 #@! TO.C,R10*
X93022936Y-120515000D02*
X93477064Y-120515000D01*
X93022936Y-121985000D02*
X93477064Y-121985000D01*
G04 #@! TO.C,J1*
X167295000Y-115975000D02*
X167295000Y-107025000D01*
X170375000Y-106905000D02*
X171275000Y-106905000D01*
X170375000Y-116095000D02*
X171275000Y-116095000D01*
X173975000Y-106905000D02*
X176705000Y-106905000D01*
X173975000Y-116095000D02*
X176705000Y-116095000D01*
X176705000Y-116095000D02*
X176705000Y-106905000D01*
G04 #@! TO.C,R8*
X93772936Y-106015000D02*
X94227064Y-106015000D01*
X93772936Y-107485000D02*
X94227064Y-107485000D01*
G04 #@! TO.C,J11*
X92920000Y-126420000D02*
X94250000Y-126420000D01*
X92920000Y-127750000D02*
X92920000Y-126420000D01*
X92920000Y-129020000D02*
X92920000Y-131620000D01*
X92920000Y-129020000D02*
X95580000Y-129020000D01*
X92920000Y-131620000D02*
X95580000Y-131620000D01*
X95580000Y-129020000D02*
X95580000Y-131620000D01*
G04 #@! TO.C,C1*
X170238748Y-103015000D02*
X170761252Y-103015000D01*
X170238748Y-104485000D02*
X170761252Y-104485000D01*
G04 #@! TO.C,R1*
X105522936Y-112515000D02*
X105977064Y-112515000D01*
X105522936Y-113985000D02*
X105977064Y-113985000D01*
G04 #@! TO.C,R4*
X160727064Y-126765000D02*
X160272936Y-126765000D01*
X160727064Y-128235000D02*
X160272936Y-128235000D01*
G04 #@! TO.C,MICCLK1*
X99590000Y-96670000D02*
X99590000Y-99330000D01*
X104730000Y-96670000D02*
X99590000Y-96670000D01*
X104730000Y-96670000D02*
X104730000Y-99330000D01*
X104730000Y-99330000D02*
X99590000Y-99330000D01*
X106000000Y-96670000D02*
X107330000Y-96670000D01*
X107330000Y-96670000D02*
X107330000Y-98000000D01*
G04 #@! TO.C,R7*
X166227064Y-132265000D02*
X165772936Y-132265000D01*
X166227064Y-133735000D02*
X165772936Y-133735000D01*
G04 #@! TO.C,R6*
X93772936Y-111265000D02*
X94227064Y-111265000D01*
X93772936Y-112735000D02*
X94227064Y-112735000D01*
G04 #@! TO.C,J7*
X136630000Y-114670000D02*
X136630000Y-117330000D01*
X139230000Y-114670000D02*
X136630000Y-114670000D01*
X139230000Y-114670000D02*
X139230000Y-117330000D01*
X139230000Y-117330000D02*
X136630000Y-117330000D01*
X140500000Y-114670000D02*
X141830000Y-114670000D01*
X141830000Y-114670000D02*
X141830000Y-116000000D01*
G04 #@! TO.C,C5*
X151723752Y-140265000D02*
X151201248Y-140265000D01*
X151723752Y-141735000D02*
X151201248Y-141735000D01*
G04 #@! TO.C,J5*
X117170000Y-109130000D02*
X118500000Y-109130000D01*
X117170000Y-110460000D02*
X117170000Y-109130000D01*
X117170000Y-111730000D02*
X117170000Y-114330000D01*
X117170000Y-111730000D02*
X119830000Y-111730000D01*
X117170000Y-114330000D02*
X119830000Y-114330000D01*
X119830000Y-111730000D02*
X119830000Y-114330000D01*
G04 #@! TO.C,J6*
X151170000Y-92670000D02*
X152500000Y-92670000D01*
X151170000Y-94000000D02*
X151170000Y-92670000D01*
X151170000Y-95270000D02*
X151170000Y-97870000D01*
X151170000Y-95270000D02*
X153830000Y-95270000D01*
X151170000Y-97870000D02*
X153830000Y-97870000D01*
X153830000Y-95270000D02*
X153830000Y-97870000D01*
G04 #@! TO.C,SW1*
X99000000Y-120500000D02*
X99000000Y-122000000D01*
X100250000Y-124500000D02*
X104750000Y-124500000D01*
X104750000Y-118000000D02*
X100250000Y-118000000D01*
X106000000Y-122000000D02*
X106000000Y-120500000D01*
G04 #@! TO.C,J3*
X103170000Y-101170000D02*
X104500000Y-101170000D01*
X103170000Y-102500000D02*
X103170000Y-101170000D01*
X103170000Y-103770000D02*
X103170000Y-108910000D01*
X103170000Y-103770000D02*
X105830000Y-103770000D01*
X103170000Y-108910000D02*
X105830000Y-108910000D01*
X105830000Y-103770000D02*
X105830000Y-108910000D01*
G04 #@! TO.C,C3*
X143451248Y-140265000D02*
X143973752Y-140265000D01*
X143451248Y-141735000D02*
X143973752Y-141735000D01*
G04 #@! TO.C,J8*
X117170000Y-98170000D02*
X118500000Y-98170000D01*
X117170000Y-99500000D02*
X117170000Y-98170000D01*
X117170000Y-100770000D02*
X117170000Y-103370000D01*
X117170000Y-100770000D02*
X119830000Y-100770000D01*
X117170000Y-103370000D02*
X119830000Y-103370000D01*
X119830000Y-100770000D02*
X119830000Y-103370000D01*
G04 #@! TO.C,R3*
X151322936Y-135275000D02*
X151777064Y-135275000D01*
X151322936Y-136745000D02*
X151777064Y-136745000D01*
G04 #@! TO.C,U2*
X166250000Y-121090000D02*
X170010000Y-121090000D01*
X166250000Y-127910000D02*
X170010000Y-127910000D01*
X170010000Y-121090000D02*
X170010000Y-122350000D01*
X170010000Y-127910000D02*
X170010000Y-126650000D01*
X164970000Y-121190000D02*
X164730000Y-120860000D01*
X165210000Y-120860000D01*
X164970000Y-121190000D01*
G36*
X164970000Y-121190000D02*
G01*
X164730000Y-120860000D01*
X165210000Y-120860000D01*
X164970000Y-121190000D01*
G37*
G04 #@! TO.C,U1*
X124282500Y-85800000D02*
X124282500Y-92000000D01*
X124282500Y-85800000D02*
X142682500Y-85800000D01*
X124282500Y-110650000D02*
X124282500Y-111650000D01*
X124282500Y-111650000D02*
X125782500Y-111650000D01*
X142682500Y-85800000D02*
X142682500Y-92000000D01*
X142682500Y-111650000D02*
X141182500Y-111650000D01*
X142682500Y-111650000D02*
X142682500Y-110650000D01*
X124282500Y-92675000D02*
X123782500Y-92675000D01*
X124282500Y-92175000D01*
X124282500Y-92675000D01*
G36*
X124282500Y-92675000D02*
G01*
X123782500Y-92675000D01*
X124282500Y-92175000D01*
X124282500Y-92675000D01*
G37*
G04 #@! TO.C,C4*
X143451248Y-135265000D02*
X143973752Y-135265000D01*
X143451248Y-136735000D02*
X143973752Y-136735000D01*
G04 #@! TO.C,LCDDisplay1*
X153170000Y-115030000D02*
X153170000Y-107350000D01*
X155830000Y-107350000D02*
X153170000Y-107350000D01*
X155830000Y-115030000D02*
X153170000Y-115030000D01*
X155830000Y-115030000D02*
X155830000Y-107350000D01*
X155830000Y-116300000D02*
X155830000Y-117630000D01*
X155830000Y-117630000D02*
X154500000Y-117630000D01*
G04 #@! TD*
M02*
