G04 #@! TF.GenerationSoftware,KiCad,Pcbnew,8.0.4*
G04 #@! TF.CreationDate,2024-11-04T17:51:44-06:00*
G04 #@! TF.ProjectId,final_project_v0.1,66696e61-6c5f-4707-926f-6a6563745f76,rev?*
G04 #@! TF.SameCoordinates,Original*
G04 #@! TF.FileFunction,Soldermask,Bot*
G04 #@! TF.FilePolarity,Negative*
%FSLAX46Y46*%
G04 Gerber Fmt 4.6, Leading zero omitted, Abs format (unit mm)*
G04 Created by KiCad (PCBNEW 8.0.4) date 2024-11-04 17:51:44*
%MOMM*%
%LPD*%
G01*
G04 APERTURE LIST*
%ADD10C,2.000000*%
%ADD11R,1.700000X1.700000*%
%ADD12O,1.700000X1.700000*%
%ADD13C,0.700000*%
%ADD14O,2.400000X0.900000*%
%ADD15O,1.700000X0.900000*%
G04 APERTURE END LIST*
D10*
G04 #@! TO.C,SW2*
X94500000Y-101500000D03*
X88000000Y-101500000D03*
X94500000Y-97000000D03*
X88000000Y-97000000D03*
G04 #@! TD*
D11*
G04 #@! TO.C,J2*
X148000000Y-117120000D03*
D12*
X148000000Y-114580000D03*
X148000000Y-112040000D03*
X148000000Y-109500000D03*
G04 #@! TD*
D11*
G04 #@! TO.C,DebugSerialPort1*
X161750000Y-108910000D03*
D12*
X161750000Y-106370000D03*
X161750000Y-103830000D03*
X161750000Y-101290000D03*
X161750000Y-98750000D03*
X161750000Y-96210000D03*
G04 #@! TD*
D11*
G04 #@! TO.C,J10*
X119460000Y-118000000D03*
D12*
X122000000Y-118000000D03*
G04 #@! TD*
D11*
G04 #@! TO.C,J9*
X154000000Y-104040000D03*
D12*
X154000000Y-101500000D03*
G04 #@! TD*
D11*
G04 #@! TO.C,MICDA1*
X112000000Y-113025000D03*
D12*
X112000000Y-110485000D03*
X112000000Y-107945000D03*
G04 #@! TD*
D11*
G04 #@! TO.C,AudioAmplifier1*
X128170000Y-122250000D03*
D12*
X130710000Y-122250000D03*
X133250000Y-122250000D03*
X135790000Y-122250000D03*
X138330000Y-122250000D03*
X140870000Y-122250000D03*
X143410000Y-122250000D03*
G04 #@! TD*
D10*
G04 #@! TO.C,SW3*
X132750000Y-126750000D03*
X139250000Y-126750000D03*
X132750000Y-131250000D03*
X139250000Y-131250000D03*
G04 #@! TD*
D11*
G04 #@! TO.C,J4*
X119000000Y-124000000D03*
D12*
X121540000Y-124000000D03*
X124080000Y-124000000D03*
G04 #@! TD*
D13*
G04 #@! TO.C,J1*
X167975000Y-114475000D03*
X167975000Y-113625000D03*
X167975000Y-112775000D03*
X167975000Y-111925000D03*
X167975000Y-111075000D03*
X167975000Y-110225000D03*
X167975000Y-109375000D03*
X167975000Y-108525000D03*
X169325000Y-108525000D03*
X169325000Y-109375000D03*
X169325000Y-110225000D03*
X169325000Y-111075000D03*
X169325000Y-111925000D03*
X169325000Y-112775000D03*
X169325000Y-113625000D03*
X169325000Y-114475000D03*
D14*
X168955000Y-115825000D03*
D15*
X172335000Y-115825000D03*
D14*
X168955000Y-107175000D03*
D15*
X172335000Y-107175000D03*
G04 #@! TD*
D11*
G04 #@! TO.C,J11*
X94250000Y-127750000D03*
D12*
X94250000Y-130290000D03*
G04 #@! TD*
D11*
G04 #@! TO.C,MICCLK1*
X106000000Y-98000000D03*
D12*
X103460000Y-98000000D03*
X100920000Y-98000000D03*
G04 #@! TD*
D11*
G04 #@! TO.C,J7*
X140500000Y-116000000D03*
D12*
X137960000Y-116000000D03*
G04 #@! TD*
D11*
G04 #@! TO.C,J5*
X118500000Y-110460000D03*
D12*
X118500000Y-113000000D03*
G04 #@! TD*
D11*
G04 #@! TO.C,J6*
X152500000Y-94000000D03*
D12*
X152500000Y-96540000D03*
G04 #@! TD*
D10*
G04 #@! TO.C,SW1*
X99250000Y-119000000D03*
X105750000Y-119000000D03*
X99250000Y-123500000D03*
X105750000Y-123500000D03*
G04 #@! TD*
D11*
G04 #@! TO.C,J3*
X104500000Y-102500000D03*
D12*
X104500000Y-105040000D03*
X104500000Y-107580000D03*
G04 #@! TD*
D11*
G04 #@! TO.C,J8*
X118500000Y-99500000D03*
D12*
X118500000Y-102040000D03*
G04 #@! TD*
D11*
G04 #@! TO.C,LCDDisplay1*
X154500000Y-116300000D03*
D12*
X154500000Y-113760000D03*
X154500000Y-111220000D03*
X154500000Y-108680000D03*
G04 #@! TD*
M02*
