G04 #@! TF.GenerationSoftware,KiCad,Pcbnew,8.0.4*
G04 #@! TF.CreationDate,2024-11-04T17:51:43-06:00*
G04 #@! TF.ProjectId,final_project_v0.1,66696e61-6c5f-4707-926f-6a6563745f76,rev?*
G04 #@! TF.SameCoordinates,Original*
G04 #@! TF.FileFunction,Paste,Top*
G04 #@! TF.FilePolarity,Positive*
%FSLAX46Y46*%
G04 Gerber Fmt 4.6, Leading zero omitted, Abs format (unit mm)*
G04 Created by KiCad (PCBNEW 8.0.4) date 2024-11-04 17:51:43*
%MOMM*%
%LPD*%
G01*
G04 APERTURE LIST*
G04 Aperture macros list*
%AMRoundRect*
0 Rectangle with rounded corners*
0 $1 Rounding radius*
0 $2 $3 $4 $5 $6 $7 $8 $9 X,Y pos of 4 corners*
0 Add a 4 corners polygon primitive as box body*
4,1,4,$2,$3,$4,$5,$6,$7,$8,$9,$2,$3,0*
0 Add four circle primitives for the rounded corners*
1,1,$1+$1,$2,$3*
1,1,$1+$1,$4,$5*
1,1,$1+$1,$6,$7*
1,1,$1+$1,$8,$9*
0 Add four rect primitives between the rounded corners*
20,1,$1+$1,$2,$3,$4,$5,0*
20,1,$1+$1,$4,$5,$6,$7,0*
20,1,$1+$1,$6,$7,$8,$9,0*
20,1,$1+$1,$8,$9,$2,$3,0*%
G04 Aperture macros list end*
%ADD10RoundRect,0.250000X-0.350000X-0.450000X0.350000X-0.450000X0.350000X0.450000X-0.350000X0.450000X0*%
%ADD11RoundRect,0.250000X0.350000X0.450000X-0.350000X0.450000X-0.350000X-0.450000X0.350000X-0.450000X0*%
%ADD12RoundRect,0.250000X-0.337500X-0.475000X0.337500X-0.475000X0.337500X0.475000X-0.337500X0.475000X0*%
%ADD13R,0.558800X1.219200*%
%ADD14RoundRect,0.250000X0.337500X0.475000X-0.337500X0.475000X-0.337500X-0.475000X0.337500X-0.475000X0*%
%ADD15RoundRect,0.375000X-0.625000X-0.375000X0.625000X-0.375000X0.625000X0.375000X-0.625000X0.375000X0*%
%ADD16RoundRect,0.500000X-0.500000X-1.400000X0.500000X-1.400000X0.500000X1.400000X-0.500000X1.400000X0*%
%ADD17R,0.900000X0.900000*%
%ADD18R,1.500000X0.900000*%
%ADD19R,0.900000X1.500000*%
G04 APERTURE END LIST*
D10*
G04 #@! TO.C,R2*
X111750000Y-121750000D03*
X113750000Y-121750000D03*
G04 #@! TD*
D11*
G04 #@! TO.C,R5*
X161500000Y-122500000D03*
X159500000Y-122500000D03*
G04 #@! TD*
D12*
G04 #@! TO.C,C6*
X159712500Y-116500000D03*
X161787500Y-116500000D03*
G04 #@! TD*
G04 #@! TO.C,C8*
X146925000Y-124500000D03*
X149000000Y-124500000D03*
G04 #@! TD*
D13*
G04 #@! TO.C,Q2*
X89500000Y-115458002D03*
X87599998Y-115458002D03*
X88549999Y-117500001D03*
G04 #@! TD*
D10*
G04 #@! TO.C,R9*
X88250000Y-125000000D03*
X90250000Y-125000000D03*
G04 #@! TD*
D14*
G04 #@! TO.C,C2*
X133287500Y-136000000D03*
X131212500Y-136000000D03*
G04 #@! TD*
G04 #@! TO.C,C7*
X95037500Y-116500000D03*
X92962500Y-116500000D03*
G04 #@! TD*
D13*
G04 #@! TO.C,Q1*
X87549999Y-111041999D03*
X89450001Y-111041999D03*
X88500000Y-109000000D03*
G04 #@! TD*
D10*
G04 #@! TO.C,R11*
X98500000Y-130000000D03*
X100500000Y-130000000D03*
G04 #@! TD*
G04 #@! TO.C,R10*
X92250000Y-121250000D03*
X94250000Y-121250000D03*
G04 #@! TD*
G04 #@! TO.C,R8*
X93000000Y-106750000D03*
X95000000Y-106750000D03*
G04 #@! TD*
D12*
G04 #@! TO.C,C1*
X169462500Y-103750000D03*
X171537500Y-103750000D03*
G04 #@! TD*
D10*
G04 #@! TO.C,R1*
X104750000Y-113250000D03*
X106750000Y-113250000D03*
G04 #@! TD*
D11*
G04 #@! TO.C,R4*
X161500000Y-127500000D03*
X159500000Y-127500000D03*
G04 #@! TD*
G04 #@! TO.C,R7*
X167000000Y-133000000D03*
X165000000Y-133000000D03*
G04 #@! TD*
D10*
G04 #@! TO.C,R6*
X93000000Y-112000000D03*
X95000000Y-112000000D03*
G04 #@! TD*
D14*
G04 #@! TO.C,C5*
X152500000Y-141000000D03*
X150425000Y-141000000D03*
G04 #@! TD*
D12*
G04 #@! TO.C,C3*
X142675000Y-141000000D03*
X144750000Y-141000000D03*
G04 #@! TD*
D10*
G04 #@! TO.C,R3*
X150550000Y-136010000D03*
X152550000Y-136010000D03*
G04 #@! TD*
D15*
G04 #@! TO.C,U2*
X164950000Y-122200000D03*
X164950000Y-124500000D03*
D16*
X171250000Y-124500000D03*
D15*
X164950000Y-126800000D03*
G04 #@! TD*
D17*
G04 #@! TO.C,U1*
X130582500Y-99760000D03*
X130582500Y-101160000D03*
X130582500Y-102560000D03*
X131982500Y-99760000D03*
X131982500Y-101160000D03*
X131982500Y-102560000D03*
X133382500Y-99760000D03*
X133382500Y-101160000D03*
X133382500Y-102560000D03*
D18*
X124732500Y-93440000D03*
X124732500Y-94710000D03*
X124732500Y-95980000D03*
X124732500Y-97250000D03*
X124732500Y-98520000D03*
X124732500Y-99790000D03*
X124732500Y-101060000D03*
X124732500Y-102330000D03*
X124732500Y-103600000D03*
X124732500Y-104870000D03*
X124732500Y-106140000D03*
X124732500Y-107410000D03*
X124732500Y-108680000D03*
X124732500Y-109950000D03*
D19*
X126497500Y-111200000D03*
X127767500Y-111200000D03*
X129037500Y-111200000D03*
X130307500Y-111200000D03*
X131577500Y-111200000D03*
X132847500Y-111200000D03*
X134117500Y-111200000D03*
X135387500Y-111200000D03*
X136657500Y-111200000D03*
X137927500Y-111200000D03*
X139197500Y-111200000D03*
X140467500Y-111200000D03*
D18*
X142232500Y-109950000D03*
X142232500Y-108680000D03*
X142232500Y-107410000D03*
X142232500Y-106140000D03*
X142232500Y-104870000D03*
X142232500Y-103600000D03*
X142232500Y-102330000D03*
X142232500Y-101060000D03*
X142232500Y-99790000D03*
X142232500Y-98520000D03*
X142232500Y-97250000D03*
X142232500Y-95980000D03*
X142232500Y-94710000D03*
X142232500Y-93440000D03*
G04 #@! TD*
D12*
G04 #@! TO.C,C4*
X142675000Y-136000000D03*
X144750000Y-136000000D03*
G04 #@! TD*
M02*
