%TF.GenerationSoftware,KiCad,Pcbnew,8.0.4*%
%TF.CreationDate,2024-11-04T17:51:37-06:00*%
%TF.ProjectId,final_project_v0.1,66696e61-6c5f-4707-926f-6a6563745f76,rev?*%
%TF.SameCoordinates,Original*%
%TF.FileFunction,Drillmap*%
%TF.FilePolarity,Positive*%
%FSLAX45Y45*%
G04 Gerber Fmt 4.5, Leading zero omitted, Abs format (unit mm)*
G04 Created by KiCad (PCBNEW 8.0.4) date 2024-11-04 17:51:37*
%MOMM*%
%LPD*%
G01*
G04 APERTURE LIST*
%ADD10C,0.050000*%
%ADD11C,0.200000*%
G04 APERTURE END LIST*
D10*
X8450000Y-9200000D02*
X17400000Y-9200000D01*
X17400000Y-14500000D01*
X8450000Y-14500000D01*
X8450000Y-9200000D01*
D11*
X8708277Y-14813984D02*
X8708277Y-14613984D01*
X8708277Y-14613984D02*
X8755896Y-14613984D01*
X8755896Y-14613984D02*
X8784467Y-14623508D01*
X8784467Y-14623508D02*
X8803515Y-14642555D01*
X8803515Y-14642555D02*
X8813039Y-14661603D01*
X8813039Y-14661603D02*
X8822563Y-14699698D01*
X8822563Y-14699698D02*
X8822563Y-14728269D01*
X8822563Y-14728269D02*
X8813039Y-14766365D01*
X8813039Y-14766365D02*
X8803515Y-14785412D01*
X8803515Y-14785412D02*
X8784467Y-14804460D01*
X8784467Y-14804460D02*
X8755896Y-14813984D01*
X8755896Y-14813984D02*
X8708277Y-14813984D01*
X8908277Y-14813984D02*
X8908277Y-14680650D01*
X8908277Y-14718746D02*
X8917801Y-14699698D01*
X8917801Y-14699698D02*
X8927324Y-14690174D01*
X8927324Y-14690174D02*
X8946372Y-14680650D01*
X8946372Y-14680650D02*
X8965420Y-14680650D01*
X9032086Y-14813984D02*
X9032086Y-14680650D01*
X9032086Y-14613984D02*
X9022563Y-14623508D01*
X9022563Y-14623508D02*
X9032086Y-14633031D01*
X9032086Y-14633031D02*
X9041610Y-14623508D01*
X9041610Y-14623508D02*
X9032086Y-14613984D01*
X9032086Y-14613984D02*
X9032086Y-14633031D01*
X9155896Y-14813984D02*
X9136848Y-14804460D01*
X9136848Y-14804460D02*
X9127324Y-14785412D01*
X9127324Y-14785412D02*
X9127324Y-14613984D01*
X9260658Y-14813984D02*
X9241610Y-14804460D01*
X9241610Y-14804460D02*
X9232086Y-14785412D01*
X9232086Y-14785412D02*
X9232086Y-14613984D01*
X9489229Y-14813984D02*
X9489229Y-14613984D01*
X9489229Y-14613984D02*
X9555896Y-14756841D01*
X9555896Y-14756841D02*
X9622563Y-14613984D01*
X9622563Y-14613984D02*
X9622563Y-14813984D01*
X9803515Y-14813984D02*
X9803515Y-14709222D01*
X9803515Y-14709222D02*
X9793991Y-14690174D01*
X9793991Y-14690174D02*
X9774944Y-14680650D01*
X9774944Y-14680650D02*
X9736848Y-14680650D01*
X9736848Y-14680650D02*
X9717801Y-14690174D01*
X9803515Y-14804460D02*
X9784467Y-14813984D01*
X9784467Y-14813984D02*
X9736848Y-14813984D01*
X9736848Y-14813984D02*
X9717801Y-14804460D01*
X9717801Y-14804460D02*
X9708277Y-14785412D01*
X9708277Y-14785412D02*
X9708277Y-14766365D01*
X9708277Y-14766365D02*
X9717801Y-14747317D01*
X9717801Y-14747317D02*
X9736848Y-14737793D01*
X9736848Y-14737793D02*
X9784467Y-14737793D01*
X9784467Y-14737793D02*
X9803515Y-14728269D01*
X9898753Y-14680650D02*
X9898753Y-14880650D01*
X9898753Y-14690174D02*
X9917801Y-14680650D01*
X9917801Y-14680650D02*
X9955896Y-14680650D01*
X9955896Y-14680650D02*
X9974944Y-14690174D01*
X9974944Y-14690174D02*
X9984467Y-14699698D01*
X9984467Y-14699698D02*
X9993991Y-14718746D01*
X9993991Y-14718746D02*
X9993991Y-14775888D01*
X9993991Y-14775888D02*
X9984467Y-14794936D01*
X9984467Y-14794936D02*
X9974944Y-14804460D01*
X9974944Y-14804460D02*
X9955896Y-14813984D01*
X9955896Y-14813984D02*
X9917801Y-14813984D01*
X9917801Y-14813984D02*
X9898753Y-14804460D01*
X10079705Y-14794936D02*
X10089229Y-14804460D01*
X10089229Y-14804460D02*
X10079705Y-14813984D01*
X10079705Y-14813984D02*
X10070182Y-14804460D01*
X10070182Y-14804460D02*
X10079705Y-14794936D01*
X10079705Y-14794936D02*
X10079705Y-14813984D01*
X10079705Y-14690174D02*
X10089229Y-14699698D01*
X10089229Y-14699698D02*
X10079705Y-14709222D01*
X10079705Y-14709222D02*
X10070182Y-14699698D01*
X10070182Y-14699698D02*
X10079705Y-14690174D01*
X10079705Y-14690174D02*
X10079705Y-14709222D01*
M02*
