M48
INCH,TZ
T1C0.0079
T2C0.0118
T3C0.0157
T4C0.0236
T5C0.0394
T6C0.0433
%
G90
G05
T1
X51410Y-39551
X51410Y-40102
X51686Y-39276
X51686Y-39827
X51686Y-40378
X51962Y-39551
X51962Y-40102
X52237Y-39276
X52237Y-39827
X52237Y-40378
X52513Y-39551
X52513Y-40102
T2
X35827Y-44193
X36417Y-54331
X38091Y-44980
X43110Y-38583
X47638Y-36909
X55709Y-46850
X57087Y-51083
X59547Y-46358
X62106Y-43307
X62106Y-48917
X62205Y-53445
X65945Y-46457
T3
X66132Y-42726
X66132Y-43061
X66132Y-43396
X66132Y-43730
X66132Y-44065
X66132Y-44400
X66132Y-44734
X66132Y-45069
X66663Y-42726
X66663Y-43061
X66663Y-43396
X66663Y-43730
X66663Y-44065
X66663Y-44400
X66663Y-44734
X66663Y-45069
T5
X37106Y-50295
X37106Y-51295
X39732Y-38583
X40732Y-38583
X41142Y-40354
X41142Y-41354
X41142Y-42354
X41732Y-38583
X44094Y-42498
X44094Y-43498
X44094Y-44498
X46654Y-39173
X46654Y-40173
X46654Y-43488
X46654Y-44488
X46850Y-48819
X47031Y-46457
X47850Y-48819
X48031Y-46457
X48850Y-48819
X50461Y-48130
X51461Y-48130
X52461Y-48130
X53461Y-48130
X54315Y-45669
X54461Y-48130
X55315Y-45669
X55461Y-48130
X56461Y-48130
X58268Y-43110
X58268Y-44110
X58268Y-45110
X58268Y-46110
X60039Y-37008
X60039Y-38008
X60630Y-39961
X60630Y-40961
X60827Y-42787
X60827Y-43787
X60827Y-44787
X60827Y-45787
X63681Y-37878
X63681Y-38878
X63681Y-39878
X63681Y-40878
X63681Y-41878
X63681Y-42878
T6
X34646Y-38189
X34646Y-39961
X37205Y-38189
X37205Y-39961
X39075Y-46850
X39075Y-48622
X41634Y-46850
X41634Y-48622
X52264Y-49902
X52264Y-51673
X54823Y-49902
X54823Y-51673
T4
G00X66222Y-42195
M15
G01X66813Y-42195
M16
G05
G00X66222Y-45600
M15
G01X66813Y-45600
M16
G05
G00X67691Y-42195
M15
G01X68006Y-42195
M16
G05
G00X67691Y-45600
M15
G01X68006Y-45600
M16
G05
M30
