G04 #@! TF.GenerationSoftware,KiCad,Pcbnew,8.0.4*
G04 #@! TF.CreationDate,2024-10-11T16:18:39-05:00*
G04 #@! TF.ProjectId,final_project_v0.1,66696e61-6c5f-4707-926f-6a6563745f76,rev?*
G04 #@! TF.SameCoordinates,Original*
G04 #@! TF.FileFunction,Paste,Top*
G04 #@! TF.FilePolarity,Positive*
%FSLAX46Y46*%
G04 Gerber Fmt 4.6, Leading zero omitted, Abs format (unit mm)*
G04 Created by KiCad (PCBNEW 8.0.4) date 2024-10-11 16:18:39*
%MOMM*%
%LPD*%
G01*
G04 APERTURE LIST*
G04 Aperture macros list*
%AMRoundRect*
0 Rectangle with rounded corners*
0 $1 Rounding radius*
0 $2 $3 $4 $5 $6 $7 $8 $9 X,Y pos of 4 corners*
0 Add a 4 corners polygon primitive as box body*
4,1,4,$2,$3,$4,$5,$6,$7,$8,$9,$2,$3,0*
0 Add four circle primitives for the rounded corners*
1,1,$1+$1,$2,$3*
1,1,$1+$1,$4,$5*
1,1,$1+$1,$6,$7*
1,1,$1+$1,$8,$9*
0 Add four rect primitives between the rounded corners*
20,1,$1+$1,$2,$3,$4,$5,0*
20,1,$1+$1,$4,$5,$6,$7,0*
20,1,$1+$1,$6,$7,$8,$9,0*
20,1,$1+$1,$8,$9,$2,$3,0*%
G04 Aperture macros list end*
%ADD10RoundRect,0.250000X0.350000X0.450000X-0.350000X0.450000X-0.350000X-0.450000X0.350000X-0.450000X0*%
%ADD11RoundRect,0.250000X0.337500X0.475000X-0.337500X0.475000X-0.337500X-0.475000X0.337500X-0.475000X0*%
%ADD12RoundRect,0.250000X-0.337500X-0.475000X0.337500X-0.475000X0.337500X0.475000X-0.337500X0.475000X0*%
%ADD13RoundRect,0.250000X-0.350000X-0.450000X0.350000X-0.450000X0.350000X0.450000X-0.350000X0.450000X0*%
%ADD14R,0.900000X0.900000*%
%ADD15R,1.500000X0.900000*%
%ADD16R,0.900000X1.500000*%
%ADD17RoundRect,0.375000X-0.625000X-0.375000X0.625000X-0.375000X0.625000X0.375000X-0.625000X0.375000X0*%
%ADD18RoundRect,0.500000X-0.500000X-1.400000X0.500000X-1.400000X0.500000X1.400000X-0.500000X1.400000X0*%
G04 APERTURE END LIST*
D10*
G04 #@! TO.C,R2*
X130000000Y-76000000D03*
X128000000Y-76000000D03*
G04 #@! TD*
D11*
G04 #@! TO.C,C5*
X135537500Y-107500000D03*
X133462500Y-107500000D03*
G04 #@! TD*
G04 #@! TO.C,C3*
X126000000Y-107500000D03*
X123925000Y-107500000D03*
G04 #@! TD*
D12*
G04 #@! TO.C,C1*
X105462500Y-101500000D03*
X107537500Y-101500000D03*
G04 #@! TD*
D11*
G04 #@! TO.C,C4*
X126037500Y-112500000D03*
X123962500Y-112500000D03*
G04 #@! TD*
D13*
G04 #@! TO.C,R3*
X133500000Y-102500000D03*
X135500000Y-102500000D03*
G04 #@! TD*
D11*
G04 #@! TO.C,C2*
X126037500Y-102500000D03*
X123962500Y-102500000D03*
G04 #@! TD*
D13*
G04 #@! TO.C,R5*
X105500000Y-111500000D03*
X107500000Y-111500000D03*
G04 #@! TD*
D14*
G04 #@! TO.C,U1*
X148275000Y-80560000D03*
X148275000Y-81960000D03*
X148275000Y-83360000D03*
X149675000Y-80560000D03*
X149675000Y-81960000D03*
X149675000Y-83360000D03*
X151075000Y-80560000D03*
X151075000Y-81960000D03*
X151075000Y-83360000D03*
D15*
X142425000Y-74240000D03*
X142425000Y-75510000D03*
X142425000Y-76780000D03*
X142425000Y-78050000D03*
X142425000Y-79320000D03*
X142425000Y-80590000D03*
X142425000Y-81860000D03*
X142425000Y-83130000D03*
X142425000Y-84400000D03*
X142425000Y-85670000D03*
X142425000Y-86940000D03*
X142425000Y-88210000D03*
X142425000Y-89480000D03*
X142425000Y-90750000D03*
D16*
X144190000Y-92000000D03*
X145460000Y-92000000D03*
X146730000Y-92000000D03*
X148000000Y-92000000D03*
X149270000Y-92000000D03*
X150540000Y-92000000D03*
X151810000Y-92000000D03*
X153080000Y-92000000D03*
X154350000Y-92000000D03*
X155620000Y-92000000D03*
X156890000Y-92000000D03*
X158160000Y-92000000D03*
D15*
X159925000Y-90750000D03*
X159925000Y-89480000D03*
X159925000Y-88210000D03*
X159925000Y-86940000D03*
X159925000Y-85670000D03*
X159925000Y-84400000D03*
X159925000Y-83130000D03*
X159925000Y-81860000D03*
X159925000Y-80590000D03*
X159925000Y-79320000D03*
X159925000Y-78050000D03*
X159925000Y-76780000D03*
X159925000Y-75510000D03*
X159925000Y-74240000D03*
G04 #@! TD*
D13*
G04 #@! TO.C,R1*
X136000000Y-86000000D03*
X138000000Y-86000000D03*
G04 #@! TD*
D12*
G04 #@! TO.C,C6*
X105500000Y-106500000D03*
X107575000Y-106500000D03*
G04 #@! TD*
D17*
G04 #@! TO.C,U2*
X113000000Y-94200000D03*
X113000000Y-96500000D03*
D18*
X119300000Y-96500000D03*
D17*
X113000000Y-98800000D03*
G04 #@! TD*
D13*
G04 #@! TO.C,R4*
X105500000Y-116000000D03*
X107500000Y-116000000D03*
G04 #@! TD*
M02*
