G04 #@! TF.GenerationSoftware,KiCad,Pcbnew,8.0.4*
G04 #@! TF.CreationDate,2024-10-11T16:18:39-05:00*
G04 #@! TF.ProjectId,final_project_v0.1,66696e61-6c5f-4707-926f-6a6563745f76,rev?*
G04 #@! TF.SameCoordinates,Original*
G04 #@! TF.FileFunction,Copper,L1,Top*
G04 #@! TF.FilePolarity,Positive*
%FSLAX46Y46*%
G04 Gerber Fmt 4.6, Leading zero omitted, Abs format (unit mm)*
G04 Created by KiCad (PCBNEW 8.0.4) date 2024-10-11 16:18:39*
%MOMM*%
%LPD*%
G01*
G04 APERTURE LIST*
G04 Aperture macros list*
%AMRoundRect*
0 Rectangle with rounded corners*
0 $1 Rounding radius*
0 $2 $3 $4 $5 $6 $7 $8 $9 X,Y pos of 4 corners*
0 Add a 4 corners polygon primitive as box body*
4,1,4,$2,$3,$4,$5,$6,$7,$8,$9,$2,$3,0*
0 Add four circle primitives for the rounded corners*
1,1,$1+$1,$2,$3*
1,1,$1+$1,$4,$5*
1,1,$1+$1,$6,$7*
1,1,$1+$1,$8,$9*
0 Add four rect primitives between the rounded corners*
20,1,$1+$1,$2,$3,$4,$5,0*
20,1,$1+$1,$4,$5,$6,$7,0*
20,1,$1+$1,$6,$7,$8,$9,0*
20,1,$1+$1,$8,$9,$2,$3,0*%
G04 Aperture macros list end*
G04 #@! TA.AperFunction,ComponentPad*
%ADD10R,1.700000X1.700000*%
G04 #@! TD*
G04 #@! TA.AperFunction,ComponentPad*
%ADD11O,1.700000X1.700000*%
G04 #@! TD*
G04 #@! TA.AperFunction,SMDPad,CuDef*
%ADD12RoundRect,0.250000X0.350000X0.450000X-0.350000X0.450000X-0.350000X-0.450000X0.350000X-0.450000X0*%
G04 #@! TD*
G04 #@! TA.AperFunction,SMDPad,CuDef*
%ADD13RoundRect,0.250000X0.337500X0.475000X-0.337500X0.475000X-0.337500X-0.475000X0.337500X-0.475000X0*%
G04 #@! TD*
G04 #@! TA.AperFunction,SMDPad,CuDef*
%ADD14RoundRect,0.250000X-0.337500X-0.475000X0.337500X-0.475000X0.337500X0.475000X-0.337500X0.475000X0*%
G04 #@! TD*
G04 #@! TA.AperFunction,SMDPad,CuDef*
%ADD15RoundRect,0.250000X-0.350000X-0.450000X0.350000X-0.450000X0.350000X0.450000X-0.350000X0.450000X0*%
G04 #@! TD*
G04 #@! TA.AperFunction,ComponentPad*
%ADD16C,2.000000*%
G04 #@! TD*
G04 #@! TA.AperFunction,ComponentPad*
%ADD17C,0.700000*%
G04 #@! TD*
G04 #@! TA.AperFunction,ComponentPad*
%ADD18O,2.400000X0.900000*%
G04 #@! TD*
G04 #@! TA.AperFunction,ComponentPad*
%ADD19O,1.700000X0.900000*%
G04 #@! TD*
G04 #@! TA.AperFunction,SMDPad,CuDef*
%ADD20R,1.500000X0.900000*%
G04 #@! TD*
G04 #@! TA.AperFunction,SMDPad,CuDef*
%ADD21R,0.900000X1.500000*%
G04 #@! TD*
G04 #@! TA.AperFunction,HeatsinkPad*
%ADD22C,0.600000*%
G04 #@! TD*
G04 #@! TA.AperFunction,SMDPad,CuDef*
%ADD23R,3.900000X3.900000*%
G04 #@! TD*
G04 #@! TA.AperFunction,SMDPad,CuDef*
%ADD24RoundRect,0.375000X-0.625000X-0.375000X0.625000X-0.375000X0.625000X0.375000X-0.625000X0.375000X0*%
G04 #@! TD*
G04 #@! TA.AperFunction,SMDPad,CuDef*
%ADD25RoundRect,0.500000X-0.500000X-1.400000X0.500000X-1.400000X0.500000X1.400000X-0.500000X1.400000X0*%
G04 #@! TD*
G04 #@! TA.AperFunction,ViaPad*
%ADD26C,0.600000*%
G04 #@! TD*
G04 #@! TA.AperFunction,Conductor*
%ADD27C,0.200000*%
G04 #@! TD*
G04 #@! TA.AperFunction,Conductor*
%ADD28C,0.600000*%
G04 #@! TD*
G04 APERTURE END LIST*
D10*
G04 #@! TO.P,MICCLK1,1,Pin_1*
G04 #@! TO.N,+3V3*
X133500000Y-78000000D03*
D11*
G04 #@! TO.P,MICCLK1,2,Pin_2*
G04 #@! TO.N,/MICSCK*
X133500000Y-80540000D03*
G04 #@! TO.P,MICCLK1,3,Pin_3*
G04 #@! TO.N,/MICWS*
X133500000Y-83080000D03*
G04 #@! TD*
D12*
G04 #@! TO.P,R2,1*
G04 #@! TO.N,GND*
X130000000Y-76000000D03*
G04 #@! TO.P,R2,2*
G04 #@! TO.N,/MICEN*
X128000000Y-76000000D03*
G04 #@! TD*
D13*
G04 #@! TO.P,C5,1*
G04 #@! TO.N,Net-(C5-Pad1)*
X135537500Y-107500000D03*
G04 #@! TO.P,C5,2*
G04 #@! TO.N,GND*
X133462500Y-107500000D03*
G04 #@! TD*
G04 #@! TO.P,C3,1*
G04 #@! TO.N,+3V3*
X126000000Y-107500000D03*
G04 #@! TO.P,C3,2*
G04 #@! TO.N,GND*
X123925000Y-107500000D03*
G04 #@! TD*
D14*
G04 #@! TO.P,C1,1*
G04 #@! TO.N,+5V*
X105462500Y-101500000D03*
G04 #@! TO.P,C1,2*
G04 #@! TO.N,GND*
X107537500Y-101500000D03*
G04 #@! TD*
D13*
G04 #@! TO.P,C4,1*
G04 #@! TO.N,+3V3*
X126037500Y-112500000D03*
G04 #@! TO.P,C4,2*
G04 #@! TO.N,GND*
X123962500Y-112500000D03*
G04 #@! TD*
D10*
G04 #@! TO.P,LCDDisplay1,1,Pin_1*
G04 #@! TO.N,GND*
X137200000Y-116000000D03*
D11*
G04 #@! TO.P,LCDDisplay1,2,Pin_2*
G04 #@! TO.N,+5V*
X139740000Y-116000000D03*
G04 #@! TO.P,LCDDisplay1,3,Pin_3*
G04 #@! TO.N,/SDA_LCD*
X142280000Y-116000000D03*
G04 #@! TO.P,LCDDisplay1,4,Pin_4*
G04 #@! TO.N,/SCL_LCD*
X144820000Y-116000000D03*
G04 #@! TD*
D10*
G04 #@! TO.P,AudioAmplifier1,1,Pin_1*
G04 #@! TO.N,/A_LRCLK*
X143340000Y-97920000D03*
D11*
G04 #@! TO.P,AudioAmplifier1,2,Pin_2*
G04 #@! TO.N,/A_BCLK*
X145880000Y-97920000D03*
G04 #@! TO.P,AudioAmplifier1,3,Pin_3*
G04 #@! TO.N,/A_Din*
X148420000Y-97920000D03*
G04 #@! TO.P,AudioAmplifier1,4,Pin_4*
G04 #@! TO.N,/A_GAIN*
X150960000Y-97920000D03*
G04 #@! TO.P,AudioAmplifier1,5,Pin_5*
G04 #@! TO.N,/A_SDMODEB*
X153500000Y-97920000D03*
G04 #@! TO.P,AudioAmplifier1,6,Pin_6*
G04 #@! TO.N,GND*
X156040000Y-97920000D03*
G04 #@! TO.P,AudioAmplifier1,7,Pin_7*
G04 #@! TO.N,+3V3*
X158580000Y-97920000D03*
G04 #@! TD*
D15*
G04 #@! TO.P,R3,1*
G04 #@! TO.N,+3V3*
X133500000Y-102500000D03*
G04 #@! TO.P,R3,2*
G04 #@! TO.N,Net-(C5-Pad1)*
X135500000Y-102500000D03*
G04 #@! TD*
D10*
G04 #@! TO.P,DebugSerialPort1,1,Pin_1*
G04 #@! TO.N,unconnected-(DebugSerialPort1-Pin_1-Pad1)*
X167500000Y-75460000D03*
D11*
G04 #@! TO.P,DebugSerialPort1,2,Pin_2*
G04 #@! TO.N,/RXS*
X167500000Y-78000000D03*
G04 #@! TO.P,DebugSerialPort1,3,Pin_3*
G04 #@! TO.N,/TXS*
X167500000Y-80540000D03*
G04 #@! TO.P,DebugSerialPort1,4,Pin_4*
G04 #@! TO.N,unconnected-(DebugSerialPort1-Pin_4-Pad4)*
X167500000Y-83080000D03*
G04 #@! TO.P,DebugSerialPort1,5,Pin_5*
G04 #@! TO.N,unconnected-(DebugSerialPort1-Pin_5-Pad5)*
X167500000Y-85620000D03*
G04 #@! TO.P,DebugSerialPort1,6,Pin_6*
G04 #@! TO.N,GND*
X167500000Y-88160000D03*
G04 #@! TD*
D13*
G04 #@! TO.P,C2,1*
G04 #@! TO.N,+3V3*
X126037500Y-102500000D03*
G04 #@! TO.P,C2,2*
G04 #@! TO.N,GND*
X123962500Y-102500000D03*
G04 #@! TD*
D15*
G04 #@! TO.P,R5,1*
G04 #@! TO.N,+5V*
X105500000Y-111500000D03*
G04 #@! TO.P,R5,2*
G04 #@! TO.N,/SDA_LCD*
X107500000Y-111500000D03*
G04 #@! TD*
D16*
G04 #@! TO.P,SW1,1,1*
G04 #@! TO.N,+3V3*
X111750000Y-77250000D03*
X118250000Y-77250000D03*
G04 #@! TO.P,SW1,2,2*
G04 #@! TO.N,/MICEN*
X111750000Y-81750000D03*
X118250000Y-81750000D03*
G04 #@! TD*
D10*
G04 #@! TO.P,MICDA1,1,Pin_1*
G04 #@! TO.N,/MICEN*
X124500000Y-77960000D03*
D11*
G04 #@! TO.P,MICDA1,2,Pin_2*
G04 #@! TO.N,/MICSDA*
X124500000Y-80500000D03*
G04 #@! TO.P,MICDA1,3,Pin_3*
G04 #@! TO.N,GND*
X124500000Y-83040000D03*
G04 #@! TD*
D17*
G04 #@! TO.P,J1,A1,GND*
G04 #@! TO.N,GND*
X106025000Y-89525000D03*
G04 #@! TO.P,J1,A4,VBUS*
G04 #@! TO.N,+5V*
X106025000Y-90375000D03*
G04 #@! TO.P,J1,A5,CC1*
G04 #@! TO.N,unconnected-(J1-CC1-PadA5)*
X106025000Y-91225000D03*
G04 #@! TO.P,J1,A6,D+*
G04 #@! TO.N,/D+*
X106025000Y-92075000D03*
G04 #@! TO.P,J1,A7,D-*
G04 #@! TO.N,/D-*
X106025000Y-92925000D03*
G04 #@! TO.P,J1,A8,SBU1*
G04 #@! TO.N,unconnected-(J1-SBU1-PadA8)*
X106025000Y-93775000D03*
G04 #@! TO.P,J1,A9,VBUS*
G04 #@! TO.N,+5V*
X106025000Y-94625000D03*
G04 #@! TO.P,J1,A12,GND*
G04 #@! TO.N,GND*
X106025000Y-95475000D03*
G04 #@! TO.P,J1,B1,GND*
X104675000Y-95475000D03*
G04 #@! TO.P,J1,B4,VBUS*
G04 #@! TO.N,+5V*
X104675000Y-94625000D03*
G04 #@! TO.P,J1,B5,CC2*
G04 #@! TO.N,unconnected-(J1-CC2-PadB5)*
X104675000Y-93775000D03*
G04 #@! TO.P,J1,B6,D+*
G04 #@! TO.N,unconnected-(J1-D+-PadB6)*
X104675000Y-92925000D03*
G04 #@! TO.P,J1,B7,D-*
G04 #@! TO.N,unconnected-(J1-D--PadB7)*
X104675000Y-92075000D03*
G04 #@! TO.P,J1,B8,SBU2*
G04 #@! TO.N,unconnected-(J1-SBU2-PadB8)*
X104675000Y-91225000D03*
G04 #@! TO.P,J1,B9,VBUS*
G04 #@! TO.N,+5V*
X104675000Y-90375000D03*
G04 #@! TO.P,J1,B12,GND*
G04 #@! TO.N,GND*
X104675000Y-89525000D03*
D18*
G04 #@! TO.P,J1,S1,SHIELD*
X105045000Y-88175000D03*
D19*
X101665000Y-88175000D03*
D18*
X105045000Y-96825000D03*
D19*
X101665000Y-96825000D03*
G04 #@! TD*
D20*
G04 #@! TO.P,U1,1,GND*
G04 #@! TO.N,GND*
X142425000Y-74240000D03*
G04 #@! TO.P,U1,2,3V3*
G04 #@! TO.N,+3V3*
X142425000Y-75510000D03*
G04 #@! TO.P,U1,3,EN*
X142425000Y-76780000D03*
G04 #@! TO.P,U1,4,IO4*
G04 #@! TO.N,/MICSCK*
X142425000Y-78050000D03*
G04 #@! TO.P,U1,5,IO5*
G04 #@! TO.N,/MICWS*
X142425000Y-79320000D03*
G04 #@! TO.P,U1,6,IO6*
G04 #@! TO.N,unconnected-(U1-IO6-Pad6)*
X142425000Y-80590000D03*
G04 #@! TO.P,U1,7,IO7*
G04 #@! TO.N,unconnected-(U1-IO7-Pad7)*
X142425000Y-81860000D03*
G04 #@! TO.P,U1,8,IO15*
G04 #@! TO.N,unconnected-(U1-IO15-Pad8)*
X142425000Y-83130000D03*
G04 #@! TO.P,U1,9,IO16*
G04 #@! TO.N,unconnected-(U1-IO16-Pad9)*
X142425000Y-84400000D03*
G04 #@! TO.P,U1,10,IO17*
G04 #@! TO.N,unconnected-(U1-IO17-Pad10)*
X142425000Y-85670000D03*
G04 #@! TO.P,U1,11,IO18*
G04 #@! TO.N,/MICSDA*
X142425000Y-86940000D03*
G04 #@! TO.P,U1,12,IO8*
G04 #@! TO.N,/MICEN*
X142425000Y-88210000D03*
G04 #@! TO.P,U1,13,IO19*
G04 #@! TO.N,/D-*
X142425000Y-89480000D03*
G04 #@! TO.P,U1,14,IO20*
G04 #@! TO.N,/D+*
X142425000Y-90750000D03*
D21*
G04 #@! TO.P,U1,15,IO3*
G04 #@! TO.N,unconnected-(U1-IO3-Pad15)*
X144190000Y-92000000D03*
G04 #@! TO.P,U1,16,IO46*
G04 #@! TO.N,unconnected-(U1-IO46-Pad16)*
X145460000Y-92000000D03*
G04 #@! TO.P,U1,17,IO9*
G04 #@! TO.N,unconnected-(U1-IO9-Pad17)*
X146730000Y-92000000D03*
G04 #@! TO.P,U1,18,IO10*
G04 #@! TO.N,unconnected-(U1-IO10-Pad18)*
X148000000Y-92000000D03*
G04 #@! TO.P,U1,19,IO11*
G04 #@! TO.N,unconnected-(U1-IO11-Pad19)*
X149270000Y-92000000D03*
G04 #@! TO.P,U1,20,IO12*
G04 #@! TO.N,/A_LRCLK*
X150540000Y-92000000D03*
G04 #@! TO.P,U1,21,IO13*
G04 #@! TO.N,/A_BCLK*
X151810000Y-92000000D03*
G04 #@! TO.P,U1,22,IO14*
G04 #@! TO.N,/A_Din*
X153080000Y-92000000D03*
G04 #@! TO.P,U1,23,IO21*
G04 #@! TO.N,/A_GAIN*
X154350000Y-92000000D03*
G04 #@! TO.P,U1,24,IO47*
G04 #@! TO.N,/A_SDMODEB*
X155620000Y-92000000D03*
G04 #@! TO.P,U1,25,IO48*
G04 #@! TO.N,unconnected-(U1-IO48-Pad25)*
X156890000Y-92000000D03*
G04 #@! TO.P,U1,26,IO45*
G04 #@! TO.N,unconnected-(U1-IO45-Pad26)*
X158160000Y-92000000D03*
D20*
G04 #@! TO.P,U1,27,IO0*
G04 #@! TO.N,unconnected-(U1-IO0-Pad27)*
X159925000Y-90750000D03*
G04 #@! TO.P,U1,28,IO35*
G04 #@! TO.N,unconnected-(U1-IO35-Pad28)*
X159925000Y-89480000D03*
G04 #@! TO.P,U1,29,IO36*
G04 #@! TO.N,unconnected-(U1-IO36-Pad29)*
X159925000Y-88210000D03*
G04 #@! TO.P,U1,30,IO37*
G04 #@! TO.N,unconnected-(U1-IO37-Pad30)*
X159925000Y-86940000D03*
G04 #@! TO.P,U1,31,IO38*
G04 #@! TO.N,unconnected-(U1-IO38-Pad31)*
X159925000Y-85670000D03*
G04 #@! TO.P,U1,32,IO39*
G04 #@! TO.N,/SDA_LCD*
X159925000Y-84400000D03*
G04 #@! TO.P,U1,33,IO40*
G04 #@! TO.N,/SCL_LCD*
X159925000Y-83130000D03*
G04 #@! TO.P,U1,34,IO41*
G04 #@! TO.N,unconnected-(U1-IO41-Pad34)*
X159925000Y-81860000D03*
G04 #@! TO.P,U1,35,IO42*
G04 #@! TO.N,unconnected-(U1-IO42-Pad35)*
X159925000Y-80590000D03*
G04 #@! TO.P,U1,36,RXD0*
G04 #@! TO.N,/TXS*
X159925000Y-79320000D03*
G04 #@! TO.P,U1,37,TXD0*
G04 #@! TO.N,/RXS*
X159925000Y-78050000D03*
G04 #@! TO.P,U1,38,IO2*
G04 #@! TO.N,unconnected-(U1-IO2-Pad38)*
X159925000Y-76780000D03*
G04 #@! TO.P,U1,39,IO1*
G04 #@! TO.N,unconnected-(U1-IO1-Pad39)*
X159925000Y-75510000D03*
G04 #@! TO.P,U1,40,GND*
G04 #@! TO.N,GND*
X159925000Y-74240000D03*
D22*
G04 #@! TO.P,U1,41,GND*
X148275000Y-81260000D03*
X148275000Y-82660000D03*
X148975000Y-80560000D03*
X148975000Y-81960000D03*
X148975000Y-83360000D03*
X149675000Y-81260000D03*
D23*
X149675000Y-81960000D03*
D22*
X149675000Y-82660000D03*
X150375000Y-80560000D03*
X150375000Y-81960000D03*
X150375000Y-83360000D03*
X151075000Y-81260000D03*
X151075000Y-82660000D03*
G04 #@! TD*
D15*
G04 #@! TO.P,R1,1*
G04 #@! TO.N,GND*
X136000000Y-86000000D03*
G04 #@! TO.P,R1,2*
G04 #@! TO.N,/MICSDA*
X138000000Y-86000000D03*
G04 #@! TD*
D14*
G04 #@! TO.P,C6,1*
G04 #@! TO.N,+5V*
X105500000Y-106500000D03*
G04 #@! TO.P,C6,2*
G04 #@! TO.N,GND*
X107575000Y-106500000D03*
G04 #@! TD*
D24*
G04 #@! TO.P,U2,1,VI*
G04 #@! TO.N,+5V*
X113000000Y-94200000D03*
G04 #@! TO.P,U2,2,GND*
G04 #@! TO.N,GND*
X113000000Y-96500000D03*
D25*
X119300000Y-96500000D03*
D24*
G04 #@! TO.P,U2,3,VO*
G04 #@! TO.N,+3V3*
X113000000Y-98800000D03*
G04 #@! TD*
D15*
G04 #@! TO.P,R4,1*
G04 #@! TO.N,+5V*
X105500000Y-116000000D03*
G04 #@! TO.P,R4,2*
G04 #@! TO.N,/SCL_LCD*
X107500000Y-116000000D03*
G04 #@! TD*
D26*
G04 #@! TO.N,GND*
X145000000Y-105000000D03*
X128000000Y-116000000D03*
X103000000Y-103000000D03*
X119000000Y-112500000D03*
X114500000Y-104500000D03*
G04 #@! TO.N,+3V3*
X126000000Y-73500000D03*
X136500000Y-95500000D03*
G04 #@! TO.N,/D+*
X139000000Y-93500000D03*
X130000000Y-92000000D03*
G04 #@! TO.N,/MICSDA*
X130500000Y-86500000D03*
X138500000Y-83000000D03*
G04 #@! TD*
D27*
G04 #@! TO.N,GND*
X111000000Y-98500000D02*
X111000000Y-104000000D01*
X103000000Y-99000000D02*
X105045000Y-96955000D01*
X104675000Y-89525000D02*
X106025000Y-89525000D01*
X113000000Y-96500000D02*
X111000000Y-98500000D01*
X114000000Y-104000000D02*
X114500000Y-104500000D01*
X104025000Y-89680026D02*
X104180026Y-89525000D01*
X105045000Y-96955000D02*
X105045000Y-96825000D01*
X111000000Y-104000000D02*
X114000000Y-104000000D01*
X103000000Y-99000000D02*
X103000000Y-103000000D01*
X104025000Y-95319974D02*
X104025000Y-89680026D01*
X104675000Y-95475000D02*
X104180026Y-95475000D01*
X104180026Y-89525000D02*
X104675000Y-89525000D01*
X128000000Y-116000000D02*
X137200000Y-116000000D01*
X104180026Y-95475000D02*
X104025000Y-95319974D01*
G04 #@! TO.N,+5V*
X109834744Y-116750000D02*
X108084744Y-115000000D01*
D28*
X112575000Y-94625000D02*
X113000000Y-94200000D01*
D27*
X117400000Y-114850000D02*
X115500000Y-116750000D01*
X105462500Y-101500000D02*
X105700000Y-101500000D01*
X105500000Y-116000000D02*
X105500000Y-111500000D01*
X105375000Y-94469974D02*
X105219974Y-94625000D01*
X138590000Y-114850000D02*
X117400000Y-114850000D01*
X105219974Y-94625000D02*
X104675000Y-94625000D01*
X115500000Y-116750000D02*
X109834744Y-116750000D01*
X106025000Y-90375000D02*
X105530026Y-90375000D01*
X104675000Y-90375000D02*
X106025000Y-90375000D01*
X108084744Y-115000000D02*
X106500000Y-115000000D01*
X106500000Y-115000000D02*
X105500000Y-116000000D01*
X105530026Y-90375000D02*
X105375000Y-90530026D01*
D28*
X106025000Y-94625000D02*
X112575000Y-94625000D01*
D27*
X105500000Y-101537500D02*
X105462500Y-101500000D01*
X105500000Y-111500000D02*
X105500000Y-106500000D01*
X105375000Y-90530026D02*
X105375000Y-94469974D01*
X104675000Y-94625000D02*
X106025000Y-94625000D01*
X139740000Y-116000000D02*
X138590000Y-114850000D01*
X105500000Y-106500000D02*
X105500000Y-101537500D01*
X105700000Y-101500000D02*
X113000000Y-94200000D01*
G04 #@! TO.N,+3V3*
X133500000Y-102500000D02*
X136930000Y-99070000D01*
X122000000Y-73500000D02*
X118250000Y-77250000D01*
X135220000Y-76780000D02*
X142425000Y-76780000D01*
X157430000Y-99070000D02*
X158580000Y-97920000D01*
X126000000Y-73500000D02*
X122000000Y-73500000D01*
X133500000Y-76950000D02*
X133500000Y-78000000D01*
X126037500Y-102500000D02*
X133500000Y-102500000D01*
X126037500Y-101775000D02*
X123062500Y-98800000D01*
X126000000Y-107500000D02*
X126000000Y-102537500D01*
X136930000Y-99070000D02*
X157430000Y-99070000D01*
X136930000Y-99070000D02*
X136930000Y-95930000D01*
X136930000Y-95930000D02*
X136500000Y-95500000D01*
X134000000Y-78000000D02*
X135220000Y-76780000D01*
X126037500Y-102500000D02*
X126037500Y-101775000D01*
X118250000Y-77250000D02*
X111750000Y-77250000D01*
X126000000Y-73500000D02*
X130050000Y-73500000D01*
X123062500Y-98800000D02*
X113000000Y-98800000D01*
X133500000Y-78000000D02*
X134000000Y-78000000D01*
X126037500Y-107537500D02*
X126000000Y-107500000D01*
X126000000Y-102537500D02*
X126037500Y-102500000D01*
X142425000Y-76780000D02*
X142425000Y-75510000D01*
X130050000Y-73500000D02*
X133500000Y-76950000D01*
X126037500Y-112500000D02*
X126037500Y-107537500D01*
G04 #@! TO.N,Net-(C5-Pad1)*
X135537500Y-107500000D02*
X135537500Y-102537500D01*
X135537500Y-102537500D02*
X135500000Y-102500000D01*
G04 #@! TO.N,/D-*
X106025000Y-92925000D02*
X138450000Y-92925000D01*
X141895000Y-89480000D02*
X142425000Y-89480000D01*
X138450000Y-92925000D02*
X141895000Y-89480000D01*
G04 #@! TO.N,/D+*
X139000000Y-93500000D02*
X139500000Y-93000000D01*
X106025000Y-92075000D02*
X130000000Y-92000000D01*
X140175000Y-93000000D02*
X142425000Y-90750000D01*
X139500000Y-93000000D02*
X140175000Y-93000000D01*
G04 #@! TO.N,/A_Din*
X153080000Y-93260000D02*
X153080000Y-92000000D01*
X148420000Y-97920000D02*
X153080000Y-93260000D01*
G04 #@! TO.N,/A_SDMODEB*
X155620000Y-95800000D02*
X155620000Y-92000000D01*
X153500000Y-97920000D02*
X155620000Y-95800000D01*
G04 #@! TO.N,/A_LRCLK*
X144490000Y-96770000D02*
X146356346Y-96770000D01*
X143340000Y-97920000D02*
X144490000Y-96770000D01*
X146356346Y-96770000D02*
X150540000Y-92586346D01*
X150540000Y-92586346D02*
X150540000Y-92000000D01*
G04 #@! TO.N,/A_GAIN*
X154350000Y-94530000D02*
X154350000Y-92000000D01*
X150960000Y-97920000D02*
X154350000Y-94530000D01*
G04 #@! TO.N,/A_BCLK*
X146420000Y-97920000D02*
X151810000Y-92530000D01*
X151810000Y-92530000D02*
X151810000Y-92000000D01*
X145880000Y-97920000D02*
X146420000Y-97920000D01*
G04 #@! TO.N,/TXS*
X159925000Y-79320000D02*
X166280000Y-79320000D01*
X166280000Y-79320000D02*
X167500000Y-80540000D01*
G04 #@! TO.N,/RXS*
X167450000Y-78050000D02*
X167500000Y-78000000D01*
X159925000Y-78050000D02*
X167450000Y-78050000D01*
G04 #@! TO.N,/SDA_LCD*
X160975000Y-84500000D02*
X160875000Y-84400000D01*
X143313173Y-114966827D02*
X142280000Y-116000000D01*
X140730000Y-114450000D02*
X142280000Y-116000000D01*
X143313173Y-114813173D02*
X160975000Y-97151346D01*
X143313173Y-114813173D02*
X143313173Y-114966827D01*
X160975000Y-97151346D02*
X160975000Y-84500000D01*
X160875000Y-84400000D02*
X159925000Y-84400000D01*
X111250000Y-114450000D02*
X140730000Y-114450000D01*
X110850000Y-114850000D02*
X111250000Y-114450000D01*
X143276346Y-114850000D02*
X143313173Y-114813173D01*
X107500000Y-111500000D02*
X110850000Y-114850000D01*
G04 #@! TO.N,/SCL_LCD*
X107500000Y-116000000D02*
X108650000Y-117150000D01*
X143670000Y-117150000D02*
X144820000Y-116000000D01*
X161375000Y-99445000D02*
X161375000Y-83630000D01*
X161375000Y-83630000D02*
X160875000Y-83130000D01*
X108650000Y-117150000D02*
X143670000Y-117150000D01*
X144820000Y-116000000D02*
X161375000Y-99445000D01*
X160875000Y-83130000D02*
X159925000Y-83130000D01*
G04 #@! TO.N,/MICSDA*
X138500000Y-83500000D02*
X138000000Y-84000000D01*
X138000000Y-84000000D02*
X138000000Y-86000000D01*
X124500000Y-80500000D02*
X130500000Y-86500000D01*
X138000000Y-86000000D02*
X138940000Y-86940000D01*
X138940000Y-86940000D02*
X142425000Y-86940000D01*
X138500000Y-83000000D02*
X138500000Y-83500000D01*
G04 #@! TO.N,/MICEN*
X134503654Y-88210000D02*
X142425000Y-88210000D01*
X120710000Y-81750000D02*
X124500000Y-77960000D01*
X128000000Y-76000000D02*
X126460000Y-76000000D01*
X118250000Y-81750000D02*
X120710000Y-81750000D01*
X126460000Y-76000000D02*
X124500000Y-77960000D01*
X124500000Y-77960000D02*
X124500000Y-78206346D01*
X111750000Y-81750000D02*
X118250000Y-81750000D01*
X124500000Y-78206346D02*
X134503654Y-88210000D01*
G04 #@! TO.N,/MICSCK*
X133500000Y-80540000D02*
X135990000Y-78050000D01*
X135990000Y-78050000D02*
X142425000Y-78050000D01*
G04 #@! TO.N,/MICWS*
X137260000Y-79320000D02*
X142425000Y-79320000D01*
X133500000Y-83080000D02*
X137260000Y-79320000D01*
G04 #@! TD*
G04 #@! TA.AperFunction,Conductor*
G04 #@! TO.N,GND*
G36*
X135793039Y-115470185D02*
G01*
X135838794Y-115522989D01*
X135850000Y-115574500D01*
X135850000Y-115750000D01*
X136766988Y-115750000D01*
X136734075Y-115807007D01*
X136700000Y-115934174D01*
X136700000Y-116065826D01*
X136734075Y-116192993D01*
X136766988Y-116250000D01*
X135850000Y-116250000D01*
X135850000Y-116425500D01*
X135830315Y-116492539D01*
X135777511Y-116538294D01*
X135726000Y-116549500D01*
X116849097Y-116549500D01*
X116782058Y-116529815D01*
X116736303Y-116477011D01*
X116726359Y-116407853D01*
X116755384Y-116344297D01*
X116761416Y-116337819D01*
X117099237Y-115999999D01*
X117612417Y-115486819D01*
X117673740Y-115453334D01*
X117700098Y-115450500D01*
X135726000Y-115450500D01*
X135793039Y-115470185D01*
G37*
G04 #@! TD.AperFunction*
G04 #@! TA.AperFunction,Conductor*
G36*
X157374287Y-99690185D02*
G01*
X157420042Y-99742989D01*
X157429986Y-99812147D01*
X157400961Y-99875703D01*
X157394929Y-99882181D01*
X142832653Y-114444457D01*
X142832647Y-114444461D01*
X142795828Y-114481282D01*
X142714005Y-114623003D01*
X142663437Y-114671218D01*
X142594830Y-114684440D01*
X142574525Y-114680777D01*
X142515413Y-114664938D01*
X142515403Y-114664936D01*
X142280001Y-114644341D01*
X142279999Y-114644341D01*
X142044596Y-114664936D01*
X142044583Y-114664939D01*
X141916241Y-114699327D01*
X141846392Y-114697664D01*
X141796468Y-114667233D01*
X141217590Y-114088355D01*
X141217588Y-114088352D01*
X141098717Y-113969481D01*
X141098716Y-113969480D01*
X141011904Y-113919360D01*
X141011904Y-113919359D01*
X141011900Y-113919358D01*
X140961785Y-113890423D01*
X140809057Y-113849499D01*
X140650943Y-113849499D01*
X140643347Y-113849499D01*
X140643331Y-113849500D01*
X126824043Y-113849500D01*
X126757004Y-113829815D01*
X126711249Y-113777011D01*
X126701305Y-113707853D01*
X126730330Y-113644297D01*
X126758946Y-113619961D01*
X126843656Y-113567712D01*
X126967712Y-113443656D01*
X127059814Y-113294334D01*
X127114999Y-113127797D01*
X127125500Y-113025009D01*
X127125499Y-111974992D01*
X127114999Y-111872203D01*
X127059814Y-111705666D01*
X126967712Y-111556344D01*
X126843656Y-111432288D01*
X126696902Y-111341770D01*
X126650179Y-111289823D01*
X126638000Y-111236232D01*
X126638000Y-108740638D01*
X126657685Y-108673599D01*
X126696901Y-108635100D01*
X126806156Y-108567712D01*
X126930212Y-108443656D01*
X127022314Y-108294334D01*
X127077499Y-108127797D01*
X127088000Y-108025009D01*
X127088000Y-108024986D01*
X132375001Y-108024986D01*
X132385494Y-108127697D01*
X132440641Y-108294119D01*
X132440643Y-108294124D01*
X132532684Y-108443345D01*
X132656654Y-108567315D01*
X132805875Y-108659356D01*
X132805880Y-108659358D01*
X132972302Y-108714505D01*
X132972309Y-108714506D01*
X133075019Y-108724999D01*
X133212499Y-108724999D01*
X133212500Y-108724998D01*
X133212500Y-107750000D01*
X132375001Y-107750000D01*
X132375001Y-108024986D01*
X127088000Y-108024986D01*
X127087999Y-106975013D01*
X132375000Y-106975013D01*
X132375000Y-107250000D01*
X133212500Y-107250000D01*
X133212500Y-106275000D01*
X133075027Y-106275000D01*
X133075012Y-106275001D01*
X132972302Y-106285494D01*
X132805880Y-106340641D01*
X132805875Y-106340643D01*
X132656654Y-106432684D01*
X132532684Y-106556654D01*
X132440643Y-106705875D01*
X132440641Y-106705880D01*
X132385494Y-106872302D01*
X132385493Y-106872309D01*
X132375000Y-106975013D01*
X127087999Y-106975013D01*
X127087999Y-106974992D01*
X127077499Y-106872203D01*
X127022314Y-106705666D01*
X126930212Y-106556344D01*
X126806156Y-106432288D01*
X126659402Y-106341770D01*
X126612679Y-106289823D01*
X126600500Y-106236232D01*
X126600500Y-103780448D01*
X126620185Y-103713409D01*
X126672989Y-103667654D01*
X126685488Y-103662744D01*
X126694334Y-103659814D01*
X126843656Y-103567712D01*
X126967712Y-103443656D01*
X127059814Y-103294334D01*
X127095879Y-103185494D01*
X127135652Y-103128051D01*
X127200167Y-103101228D01*
X127213585Y-103100500D01*
X132319699Y-103100500D01*
X132386738Y-103120185D01*
X132432493Y-103172989D01*
X132437405Y-103185496D01*
X132465185Y-103269331D01*
X132465187Y-103269336D01*
X132480604Y-103294331D01*
X132557288Y-103418656D01*
X132681344Y-103542712D01*
X132830666Y-103634814D01*
X132997203Y-103689999D01*
X133099991Y-103700500D01*
X133900008Y-103700499D01*
X133900016Y-103700498D01*
X133900019Y-103700498D01*
X133956302Y-103694748D01*
X134002797Y-103689999D01*
X134169334Y-103634814D01*
X134318656Y-103542712D01*
X134412319Y-103449049D01*
X134473642Y-103415564D01*
X134543334Y-103420548D01*
X134587681Y-103449049D01*
X134681344Y-103542712D01*
X134830666Y-103634814D01*
X134852001Y-103641883D01*
X134909446Y-103681653D01*
X134936271Y-103746167D01*
X134937000Y-103759590D01*
X134937000Y-106236232D01*
X134917315Y-106303271D01*
X134878098Y-106341769D01*
X134782423Y-106400781D01*
X134731342Y-106432289D01*
X134607288Y-106556343D01*
X134607283Y-106556349D01*
X134605241Y-106559661D01*
X134603247Y-106561453D01*
X134602807Y-106562011D01*
X134602711Y-106561935D01*
X134553291Y-106606383D01*
X134484328Y-106617602D01*
X134420247Y-106589755D01*
X134394168Y-106559656D01*
X134392319Y-106556659D01*
X134392316Y-106556655D01*
X134268345Y-106432684D01*
X134119124Y-106340643D01*
X134119119Y-106340641D01*
X133952697Y-106285494D01*
X133952690Y-106285493D01*
X133849986Y-106275000D01*
X133712500Y-106275000D01*
X133712500Y-108724999D01*
X133849972Y-108724999D01*
X133849986Y-108724998D01*
X133952697Y-108714505D01*
X134119119Y-108659358D01*
X134119124Y-108659356D01*
X134268345Y-108567315D01*
X134392318Y-108443342D01*
X134394165Y-108440348D01*
X134395969Y-108438724D01*
X134396798Y-108437677D01*
X134396976Y-108437818D01*
X134446110Y-108393621D01*
X134515073Y-108382396D01*
X134579156Y-108410236D01*
X134605243Y-108440341D01*
X134607288Y-108443656D01*
X134731344Y-108567712D01*
X134880666Y-108659814D01*
X135047203Y-108714999D01*
X135149991Y-108725500D01*
X135925008Y-108725499D01*
X135925016Y-108725498D01*
X135925019Y-108725498D01*
X135981302Y-108719748D01*
X136027797Y-108714999D01*
X136194334Y-108659814D01*
X136343656Y-108567712D01*
X136467712Y-108443656D01*
X136559814Y-108294334D01*
X136614999Y-108127797D01*
X136625500Y-108025009D01*
X136625499Y-106974992D01*
X136614999Y-106872203D01*
X136559814Y-106705666D01*
X136467712Y-106556344D01*
X136343656Y-106432288D01*
X136196902Y-106341770D01*
X136150179Y-106289823D01*
X136138000Y-106236232D01*
X136138000Y-103723347D01*
X136157685Y-103656308D01*
X136196901Y-103617810D01*
X136318656Y-103542712D01*
X136442712Y-103418656D01*
X136534814Y-103269334D01*
X136589999Y-103102797D01*
X136600500Y-103000009D01*
X136600499Y-101999992D01*
X136597947Y-101975013D01*
X136589999Y-101897203D01*
X136589998Y-101897200D01*
X136581631Y-101871949D01*
X136534814Y-101730666D01*
X136442712Y-101581344D01*
X136318656Y-101457288D01*
X136169334Y-101365186D01*
X136002797Y-101310001D01*
X136002795Y-101310000D01*
X135900016Y-101299500D01*
X135900009Y-101299500D01*
X135849097Y-101299500D01*
X135782058Y-101279815D01*
X135736303Y-101227011D01*
X135726359Y-101157853D01*
X135755384Y-101094297D01*
X135761416Y-101087819D01*
X136416552Y-100432684D01*
X137142417Y-99706819D01*
X137203740Y-99673334D01*
X137230098Y-99670500D01*
X157307248Y-99670500D01*
X157374287Y-99690185D01*
G37*
G04 #@! TD.AperFunction*
G04 #@! TA.AperFunction,Conductor*
G36*
X111419334Y-96732413D02*
G01*
X111475267Y-96774285D01*
X111499684Y-96839749D01*
X111500000Y-96848595D01*
X111500000Y-96951096D01*
X111502897Y-96993824D01*
X111548831Y-97178523D01*
X111633390Y-97349022D01*
X111633392Y-97349025D01*
X111752630Y-97497364D01*
X111821884Y-97553031D01*
X111861803Y-97610375D01*
X111864383Y-97680197D01*
X111828805Y-97740329D01*
X111821885Y-97746326D01*
X111752276Y-97802280D01*
X111632969Y-97950704D01*
X111632967Y-97950707D01*
X111548360Y-98121302D01*
X111502400Y-98306107D01*
X111499500Y-98348879D01*
X111499500Y-99251122D01*
X111499501Y-99251125D01*
X111502399Y-99293886D01*
X111502399Y-99293887D01*
X111518430Y-99358347D01*
X111546861Y-99472671D01*
X111548360Y-99478696D01*
X111632967Y-99649292D01*
X111632969Y-99649295D01*
X111752277Y-99797721D01*
X111752278Y-99797722D01*
X111900704Y-99917030D01*
X111900707Y-99917032D01*
X112071302Y-100001639D01*
X112071303Y-100001639D01*
X112071307Y-100001641D01*
X112256111Y-100047600D01*
X112298877Y-100050500D01*
X113701122Y-100050499D01*
X113743889Y-100047600D01*
X113928693Y-100001641D01*
X114099296Y-99917030D01*
X114247722Y-99797722D01*
X114367030Y-99649296D01*
X114451641Y-99478693D01*
X114454628Y-99472671D01*
X114456535Y-99473617D01*
X114492131Y-99425590D01*
X114557478Y-99400860D01*
X114566916Y-99400500D01*
X122762403Y-99400500D01*
X122829442Y-99420185D01*
X122850084Y-99436819D01*
X124480293Y-101067028D01*
X124513778Y-101128351D01*
X124508794Y-101198043D01*
X124466922Y-101253976D01*
X124401458Y-101278393D01*
X124380013Y-101278067D01*
X124349995Y-101275001D01*
X124349974Y-101275000D01*
X124212500Y-101275000D01*
X124212500Y-103724999D01*
X124349972Y-103724999D01*
X124349986Y-103724998D01*
X124452697Y-103714505D01*
X124619119Y-103659358D01*
X124619124Y-103659356D01*
X124768345Y-103567315D01*
X124892318Y-103443342D01*
X124894165Y-103440348D01*
X124895969Y-103438724D01*
X124896798Y-103437677D01*
X124896976Y-103437818D01*
X124946110Y-103393621D01*
X125015073Y-103382396D01*
X125079156Y-103410236D01*
X125105243Y-103440341D01*
X125107288Y-103443656D01*
X125231344Y-103567712D01*
X125340597Y-103635099D01*
X125387321Y-103687047D01*
X125399500Y-103740638D01*
X125399500Y-106236232D01*
X125379815Y-106303271D01*
X125340598Y-106341769D01*
X125244923Y-106400781D01*
X125193842Y-106432289D01*
X125069788Y-106556343D01*
X125069783Y-106556349D01*
X125067741Y-106559661D01*
X125065747Y-106561453D01*
X125065307Y-106562011D01*
X125065211Y-106561935D01*
X125015791Y-106606383D01*
X124946828Y-106617602D01*
X124882747Y-106589755D01*
X124856668Y-106559656D01*
X124854819Y-106556659D01*
X124854816Y-106556655D01*
X124730845Y-106432684D01*
X124581624Y-106340643D01*
X124581619Y-106340641D01*
X124415197Y-106285494D01*
X124415190Y-106285493D01*
X124312486Y-106275000D01*
X124175000Y-106275000D01*
X124175000Y-108724999D01*
X124312472Y-108724999D01*
X124312486Y-108724998D01*
X124415197Y-108714505D01*
X124581619Y-108659358D01*
X124581624Y-108659356D01*
X124730845Y-108567315D01*
X124854818Y-108443342D01*
X124856665Y-108440348D01*
X124858469Y-108438724D01*
X124859298Y-108437677D01*
X124859476Y-108437818D01*
X124908610Y-108393621D01*
X124977573Y-108382396D01*
X125041656Y-108410236D01*
X125067743Y-108440341D01*
X125069788Y-108443656D01*
X125193844Y-108567712D01*
X125343166Y-108659814D01*
X125351998Y-108662740D01*
X125409444Y-108702508D01*
X125436271Y-108767022D01*
X125437000Y-108780448D01*
X125437000Y-111236232D01*
X125417315Y-111303271D01*
X125378098Y-111341769D01*
X125282423Y-111400781D01*
X125231342Y-111432289D01*
X125107288Y-111556343D01*
X125107283Y-111556349D01*
X125105241Y-111559661D01*
X125103247Y-111561453D01*
X125102807Y-111562011D01*
X125102711Y-111561935D01*
X125053291Y-111606383D01*
X124984328Y-111617602D01*
X124920247Y-111589755D01*
X124894168Y-111559656D01*
X124892319Y-111556659D01*
X124892316Y-111556655D01*
X124768345Y-111432684D01*
X124619124Y-111340643D01*
X124619119Y-111340641D01*
X124452697Y-111285494D01*
X124452690Y-111285493D01*
X124349986Y-111275000D01*
X124212500Y-111275000D01*
X124212500Y-112626000D01*
X124192815Y-112693039D01*
X124140011Y-112738794D01*
X124088500Y-112750000D01*
X122875001Y-112750000D01*
X122875001Y-113024986D01*
X122885494Y-113127697D01*
X122940641Y-113294119D01*
X122940643Y-113294124D01*
X123032684Y-113443345D01*
X123156654Y-113567315D01*
X123242006Y-113619961D01*
X123288730Y-113671909D01*
X123299953Y-113740872D01*
X123272109Y-113804954D01*
X123214040Y-113843810D01*
X123176909Y-113849500D01*
X111170940Y-113849500D01*
X111130019Y-113860464D01*
X111130019Y-113860465D01*
X111074117Y-113875444D01*
X111018215Y-113890423D01*
X110924016Y-113944808D01*
X110856115Y-113961279D01*
X110790089Y-113938426D01*
X110774336Y-113925101D01*
X108824248Y-111975013D01*
X122875000Y-111975013D01*
X122875000Y-112250000D01*
X123712500Y-112250000D01*
X123712500Y-111275000D01*
X123575027Y-111275000D01*
X123575012Y-111275001D01*
X123472302Y-111285494D01*
X123305880Y-111340641D01*
X123305875Y-111340643D01*
X123156654Y-111432684D01*
X123032684Y-111556654D01*
X122940643Y-111705875D01*
X122940641Y-111705880D01*
X122885494Y-111872302D01*
X122885493Y-111872309D01*
X122875000Y-111975013D01*
X108824248Y-111975013D01*
X108636818Y-111787583D01*
X108603333Y-111726260D01*
X108600499Y-111699902D01*
X108600499Y-110999998D01*
X108600498Y-110999981D01*
X108589999Y-110897203D01*
X108589998Y-110897200D01*
X108534814Y-110730666D01*
X108442712Y-110581344D01*
X108318656Y-110457288D01*
X108169334Y-110365186D01*
X108002797Y-110310001D01*
X108002795Y-110310000D01*
X107900010Y-110299500D01*
X107099998Y-110299500D01*
X107099980Y-110299501D01*
X106997203Y-110310000D01*
X106997200Y-110310001D01*
X106830668Y-110365185D01*
X106830663Y-110365187D01*
X106681342Y-110457289D01*
X106587681Y-110550951D01*
X106526358Y-110584436D01*
X106456666Y-110579452D01*
X106412319Y-110550951D01*
X106318657Y-110457289D01*
X106318656Y-110457288D01*
X106169334Y-110365186D01*
X106169332Y-110365185D01*
X106163187Y-110361395D01*
X106164290Y-110359605D01*
X106119649Y-110320290D01*
X106100500Y-110254091D01*
X106100500Y-108024986D01*
X122837501Y-108024986D01*
X122847994Y-108127697D01*
X122903141Y-108294119D01*
X122903143Y-108294124D01*
X122995184Y-108443345D01*
X123119154Y-108567315D01*
X123268375Y-108659356D01*
X123268380Y-108659358D01*
X123434802Y-108714505D01*
X123434809Y-108714506D01*
X123537519Y-108724999D01*
X123674999Y-108724999D01*
X123675000Y-108724998D01*
X123675000Y-107750000D01*
X122837501Y-107750000D01*
X122837501Y-108024986D01*
X106100500Y-108024986D01*
X106100500Y-107763767D01*
X106120185Y-107696728D01*
X106159401Y-107658230D01*
X106306156Y-107567712D01*
X106430212Y-107443656D01*
X106432252Y-107440347D01*
X106434245Y-107438555D01*
X106434693Y-107437989D01*
X106434789Y-107438065D01*
X106484194Y-107393623D01*
X106553156Y-107382395D01*
X106617240Y-107410234D01*
X106643329Y-107440339D01*
X106645181Y-107443341D01*
X106645183Y-107443344D01*
X106769154Y-107567315D01*
X106918375Y-107659356D01*
X106918380Y-107659358D01*
X107084802Y-107714505D01*
X107084809Y-107714506D01*
X107187519Y-107724999D01*
X107324999Y-107724999D01*
X107825000Y-107724999D01*
X107962472Y-107724999D01*
X107962486Y-107724998D01*
X108065197Y-107714505D01*
X108231619Y-107659358D01*
X108231624Y-107659356D01*
X108380845Y-107567315D01*
X108504815Y-107443345D01*
X108596856Y-107294124D01*
X108596858Y-107294119D01*
X108652005Y-107127697D01*
X108652006Y-107127690D01*
X108662499Y-107024986D01*
X108662500Y-107024973D01*
X108662500Y-106975013D01*
X122837500Y-106975013D01*
X122837500Y-107250000D01*
X123675000Y-107250000D01*
X123675000Y-106275000D01*
X123537527Y-106275000D01*
X123537512Y-106275001D01*
X123434802Y-106285494D01*
X123268380Y-106340641D01*
X123268375Y-106340643D01*
X123119154Y-106432684D01*
X122995184Y-106556654D01*
X122903143Y-106705875D01*
X122903141Y-106705880D01*
X122847994Y-106872302D01*
X122847993Y-106872309D01*
X122837500Y-106975013D01*
X108662500Y-106975013D01*
X108662500Y-106750000D01*
X107825000Y-106750000D01*
X107825000Y-107724999D01*
X107324999Y-107724999D01*
X107325000Y-107724998D01*
X107325000Y-106250000D01*
X107825000Y-106250000D01*
X108662499Y-106250000D01*
X108662499Y-105975028D01*
X108662498Y-105975013D01*
X108652005Y-105872302D01*
X108596858Y-105705880D01*
X108596856Y-105705875D01*
X108504815Y-105556654D01*
X108380845Y-105432684D01*
X108231624Y-105340643D01*
X108231619Y-105340641D01*
X108065197Y-105285494D01*
X108065190Y-105285493D01*
X107962486Y-105275000D01*
X107825000Y-105275000D01*
X107825000Y-106250000D01*
X107325000Y-106250000D01*
X107325000Y-105275000D01*
X107187527Y-105275000D01*
X107187512Y-105275001D01*
X107084802Y-105285494D01*
X106918380Y-105340641D01*
X106918375Y-105340643D01*
X106769154Y-105432684D01*
X106645183Y-105556655D01*
X106645179Y-105556660D01*
X106643326Y-105559665D01*
X106641518Y-105561290D01*
X106640702Y-105562323D01*
X106640525Y-105562183D01*
X106591374Y-105606385D01*
X106522411Y-105617601D01*
X106458331Y-105589752D01*
X106432253Y-105559653D01*
X106432237Y-105559628D01*
X106430212Y-105556344D01*
X106306156Y-105432288D01*
X106159402Y-105341770D01*
X106112679Y-105289823D01*
X106100500Y-105236232D01*
X106100500Y-103024986D01*
X122875001Y-103024986D01*
X122885494Y-103127697D01*
X122940641Y-103294119D01*
X122940643Y-103294124D01*
X123032684Y-103443345D01*
X123156654Y-103567315D01*
X123305875Y-103659356D01*
X123305880Y-103659358D01*
X123472302Y-103714505D01*
X123472309Y-103714506D01*
X123575019Y-103724999D01*
X123712499Y-103724999D01*
X123712500Y-103724998D01*
X123712500Y-102750000D01*
X122875001Y-102750000D01*
X122875001Y-103024986D01*
X106100500Y-103024986D01*
X106100500Y-102740638D01*
X106120185Y-102673599D01*
X106159401Y-102635100D01*
X106268656Y-102567712D01*
X106392712Y-102443656D01*
X106394752Y-102440347D01*
X106396745Y-102438555D01*
X106397193Y-102437989D01*
X106397289Y-102438065D01*
X106446694Y-102393623D01*
X106515656Y-102382395D01*
X106579740Y-102410234D01*
X106605829Y-102440339D01*
X106607681Y-102443341D01*
X106607683Y-102443344D01*
X106731654Y-102567315D01*
X106880875Y-102659356D01*
X106880880Y-102659358D01*
X107047302Y-102714505D01*
X107047309Y-102714506D01*
X107150019Y-102724999D01*
X107287499Y-102724999D01*
X107787500Y-102724999D01*
X107924972Y-102724999D01*
X107924986Y-102724998D01*
X108027697Y-102714505D01*
X108194119Y-102659358D01*
X108194124Y-102659356D01*
X108343345Y-102567315D01*
X108467315Y-102443345D01*
X108559356Y-102294124D01*
X108559358Y-102294119D01*
X108614505Y-102127697D01*
X108614506Y-102127690D01*
X108624999Y-102024986D01*
X108625000Y-102024973D01*
X108625000Y-101975013D01*
X122875000Y-101975013D01*
X122875000Y-102250000D01*
X123712500Y-102250000D01*
X123712500Y-101275000D01*
X123575027Y-101275000D01*
X123575012Y-101275001D01*
X123472302Y-101285494D01*
X123305880Y-101340641D01*
X123305875Y-101340643D01*
X123156654Y-101432684D01*
X123032684Y-101556654D01*
X122940643Y-101705875D01*
X122940641Y-101705880D01*
X122885494Y-101872302D01*
X122885493Y-101872309D01*
X122875000Y-101975013D01*
X108625000Y-101975013D01*
X108625000Y-101750000D01*
X107787500Y-101750000D01*
X107787500Y-102724999D01*
X107287499Y-102724999D01*
X107287500Y-102724998D01*
X107287500Y-101374000D01*
X107307185Y-101306961D01*
X107359989Y-101261206D01*
X107411500Y-101250000D01*
X108624999Y-101250000D01*
X108624999Y-100975028D01*
X108624998Y-100975013D01*
X108614505Y-100872302D01*
X108559358Y-100705880D01*
X108559356Y-100705875D01*
X108467315Y-100556654D01*
X108343345Y-100432684D01*
X108194124Y-100340643D01*
X108194119Y-100340641D01*
X108021270Y-100283365D01*
X108022157Y-100280687D01*
X107971774Y-100253387D01*
X107938092Y-100192172D01*
X107942851Y-100122465D01*
X107971489Y-100077744D01*
X111288321Y-96760912D01*
X111349642Y-96727429D01*
X111419334Y-96732413D01*
G37*
G04 #@! TD.AperFunction*
G04 #@! TA.AperFunction,Conductor*
G36*
X179442539Y-50520185D02*
G01*
X179488294Y-50572989D01*
X179499500Y-50624500D01*
X179499500Y-119375500D01*
X179479815Y-119442539D01*
X179427011Y-119488294D01*
X179375500Y-119499500D01*
X100624500Y-119499500D01*
X100557461Y-119479815D01*
X100511706Y-119427011D01*
X100500500Y-119375500D01*
X100500500Y-97688720D01*
X100520185Y-97621681D01*
X100572989Y-97575926D01*
X100642147Y-97565982D01*
X100693391Y-97585618D01*
X100815000Y-97666875D01*
X100815008Y-97666880D01*
X100987894Y-97738491D01*
X100987902Y-97738493D01*
X101171428Y-97774999D01*
X101171431Y-97775000D01*
X101415000Y-97775000D01*
X101415000Y-97125000D01*
X101915000Y-97125000D01*
X101915000Y-97775000D01*
X102158569Y-97775000D01*
X102158571Y-97774999D01*
X102342097Y-97738493D01*
X102342105Y-97738491D01*
X102514991Y-97666880D01*
X102515000Y-97666875D01*
X102670589Y-97562913D01*
X102670593Y-97562910D01*
X102802910Y-97430593D01*
X102802913Y-97430589D01*
X102906875Y-97275000D01*
X102906880Y-97274991D01*
X102978492Y-97102103D01*
X102978493Y-97102100D01*
X102983884Y-97075000D01*
X102231988Y-97075000D01*
X102249205Y-97065060D01*
X102305060Y-97009205D01*
X102344556Y-96940796D01*
X102365000Y-96864496D01*
X102365000Y-96785504D01*
X102344556Y-96709204D01*
X102305060Y-96640795D01*
X102249205Y-96584940D01*
X102231988Y-96575000D01*
X102983884Y-96575000D01*
X102983884Y-96574999D01*
X102978493Y-96547899D01*
X102978492Y-96547896D01*
X102906880Y-96375008D01*
X102906875Y-96374999D01*
X102802913Y-96219410D01*
X102802910Y-96219406D01*
X102670593Y-96087089D01*
X102670589Y-96087086D01*
X102515000Y-95983124D01*
X102514991Y-95983119D01*
X102342105Y-95911508D01*
X102342097Y-95911506D01*
X102158570Y-95875000D01*
X101915000Y-95875000D01*
X101915000Y-96525000D01*
X101415000Y-96525000D01*
X101415000Y-95875000D01*
X101171430Y-95875000D01*
X100987902Y-95911506D01*
X100987894Y-95911508D01*
X100815008Y-95983119D01*
X100814999Y-95983124D01*
X100693391Y-96064381D01*
X100626713Y-96085259D01*
X100559333Y-96066774D01*
X100512643Y-96014796D01*
X100500500Y-95961279D01*
X100500500Y-89038720D01*
X100520185Y-88971681D01*
X100572989Y-88925926D01*
X100642147Y-88915982D01*
X100693391Y-88935618D01*
X100815000Y-89016875D01*
X100815008Y-89016880D01*
X100987894Y-89088491D01*
X100987902Y-89088493D01*
X101171428Y-89124999D01*
X101171431Y-89125000D01*
X101415000Y-89125000D01*
X101415000Y-88475000D01*
X101915000Y-88475000D01*
X101915000Y-89125000D01*
X102158569Y-89125000D01*
X102158571Y-89124999D01*
X102342097Y-89088493D01*
X102342105Y-89088491D01*
X102514991Y-89016880D01*
X102515000Y-89016875D01*
X102670589Y-88912913D01*
X102670593Y-88912910D01*
X102802910Y-88780593D01*
X102802913Y-88780589D01*
X102906875Y-88625000D01*
X102906880Y-88624991D01*
X102978492Y-88452103D01*
X102978493Y-88452100D01*
X102983884Y-88425000D01*
X102231988Y-88425000D01*
X102249205Y-88415060D01*
X102305060Y-88359205D01*
X102344556Y-88290796D01*
X102365000Y-88214496D01*
X102365000Y-88135504D01*
X102344556Y-88059204D01*
X102305060Y-87990795D01*
X102249205Y-87934940D01*
X102231988Y-87925000D01*
X102983884Y-87925000D01*
X102983884Y-87924999D01*
X103376115Y-87924999D01*
X103376116Y-87925000D01*
X104128012Y-87925000D01*
X104110795Y-87934940D01*
X104054940Y-87990795D01*
X104015444Y-88059204D01*
X103995000Y-88135504D01*
X103995000Y-88214496D01*
X104015444Y-88290796D01*
X104054940Y-88359205D01*
X104110795Y-88415060D01*
X104128012Y-88425000D01*
X103376116Y-88425000D01*
X103381506Y-88452100D01*
X103381507Y-88452103D01*
X103453119Y-88624991D01*
X103453124Y-88625000D01*
X103557086Y-88780589D01*
X103557089Y-88780593D01*
X103689409Y-88912913D01*
X103850072Y-89020264D01*
X103848656Y-89022381D01*
X103890569Y-89063568D01*
X103906017Y-89131708D01*
X103895546Y-89174363D01*
X103894212Y-89177359D01*
X103838996Y-89347297D01*
X103838995Y-89347299D01*
X103820318Y-89525000D01*
X103838995Y-89702700D01*
X103838996Y-89702702D01*
X103894209Y-89872631D01*
X103894210Y-89872633D01*
X103923346Y-89923098D01*
X104361227Y-89485218D01*
X104475000Y-89485218D01*
X104475000Y-89564782D01*
X104505448Y-89638291D01*
X104561709Y-89694552D01*
X104635218Y-89725000D01*
X104714782Y-89725000D01*
X104788291Y-89694552D01*
X104844552Y-89638291D01*
X104875000Y-89564782D01*
X104875000Y-89485218D01*
X104844552Y-89411709D01*
X104788291Y-89355448D01*
X104714782Y-89325000D01*
X104635218Y-89325000D01*
X104561709Y-89355448D01*
X104505448Y-89411709D01*
X104475000Y-89485218D01*
X104361227Y-89485218D01*
X104587318Y-89259127D01*
X104648641Y-89225642D01*
X104718332Y-89230626D01*
X104762680Y-89259127D01*
X104940872Y-89437319D01*
X104974357Y-89498642D01*
X104969373Y-89568334D01*
X104940872Y-89612681D01*
X104815372Y-89738181D01*
X104754049Y-89771666D01*
X104727691Y-89774500D01*
X104595943Y-89774500D01*
X104443216Y-89815423D01*
X104443209Y-89815426D01*
X104306290Y-89894475D01*
X104306282Y-89894481D01*
X104194481Y-90006282D01*
X104194475Y-90006290D01*
X104115426Y-90143209D01*
X104115423Y-90143216D01*
X104074500Y-90295943D01*
X104074500Y-90454056D01*
X104115423Y-90606783D01*
X104115426Y-90606790D01*
X104194475Y-90743709D01*
X104194481Y-90743717D01*
X104238909Y-90788145D01*
X104272394Y-90849468D01*
X104267410Y-90919160D01*
X104253089Y-90943311D01*
X104254418Y-90944166D01*
X104249622Y-90951628D01*
X104189834Y-91082543D01*
X104169353Y-91225000D01*
X104189834Y-91367456D01*
X104249333Y-91497738D01*
X104249623Y-91498373D01*
X104302697Y-91559624D01*
X104310646Y-91568798D01*
X104339670Y-91632354D01*
X104329726Y-91701512D01*
X104310646Y-91731202D01*
X104249623Y-91801627D01*
X104249622Y-91801628D01*
X104189834Y-91932543D01*
X104169353Y-92075000D01*
X104189834Y-92217456D01*
X104237426Y-92321666D01*
X104249623Y-92348373D01*
X104300086Y-92406611D01*
X104310646Y-92418798D01*
X104339670Y-92482354D01*
X104329726Y-92551512D01*
X104310646Y-92581202D01*
X104249623Y-92651627D01*
X104249622Y-92651628D01*
X104189834Y-92782543D01*
X104169353Y-92925000D01*
X104189834Y-93067456D01*
X104210260Y-93112181D01*
X104249623Y-93198373D01*
X104302697Y-93259624D01*
X104310646Y-93268798D01*
X104339670Y-93332354D01*
X104329726Y-93401512D01*
X104310646Y-93431202D01*
X104249623Y-93501627D01*
X104249622Y-93501628D01*
X104189834Y-93632543D01*
X104169353Y-93775000D01*
X104189834Y-93917456D01*
X104249622Y-94048371D01*
X104254418Y-94055834D01*
X104251635Y-94057621D01*
X104273969Y-94106551D01*
X104264012Y-94175707D01*
X104238910Y-94211853D01*
X104194481Y-94256282D01*
X104194475Y-94256290D01*
X104115426Y-94393209D01*
X104115423Y-94393216D01*
X104074500Y-94545943D01*
X104074500Y-94704057D01*
X104099910Y-94798886D01*
X104115423Y-94856783D01*
X104115426Y-94856790D01*
X104194475Y-94993709D01*
X104194479Y-94993714D01*
X104194480Y-94993716D01*
X104306284Y-95105520D01*
X104306286Y-95105521D01*
X104306290Y-95105524D01*
X104384154Y-95150478D01*
X104443216Y-95184577D01*
X104595943Y-95225500D01*
X104727691Y-95225500D01*
X104794730Y-95245185D01*
X104815372Y-95261819D01*
X104940872Y-95387319D01*
X104974357Y-95448642D01*
X104969373Y-95518334D01*
X104940872Y-95562681D01*
X104762681Y-95740872D01*
X104701358Y-95774357D01*
X104631666Y-95769373D01*
X104587319Y-95740872D01*
X104281665Y-95435218D01*
X104475000Y-95435218D01*
X104475000Y-95514782D01*
X104505448Y-95588291D01*
X104561709Y-95644552D01*
X104635218Y-95675000D01*
X104714782Y-95675000D01*
X104788291Y-95644552D01*
X104844552Y-95588291D01*
X104875000Y-95514782D01*
X104875000Y-95435218D01*
X104844552Y-95361709D01*
X104788291Y-95305448D01*
X104714782Y-95275000D01*
X104635218Y-95275000D01*
X104561709Y-95305448D01*
X104505448Y-95361709D01*
X104475000Y-95435218D01*
X104281665Y-95435218D01*
X103923347Y-95076900D01*
X103894208Y-95127370D01*
X103838996Y-95297297D01*
X103838995Y-95297299D01*
X103820318Y-95475000D01*
X103838995Y-95652700D01*
X103838996Y-95652702D01*
X103894208Y-95822627D01*
X103895541Y-95825621D01*
X103895793Y-95827508D01*
X103896217Y-95828810D01*
X103895978Y-95828887D01*
X103904825Y-95894871D01*
X103875197Y-95958147D01*
X103849319Y-95978611D01*
X103850071Y-95979736D01*
X103689410Y-96087086D01*
X103689406Y-96087089D01*
X103557089Y-96219406D01*
X103557086Y-96219410D01*
X103453124Y-96374999D01*
X103453119Y-96375008D01*
X103381507Y-96547896D01*
X103381506Y-96547899D01*
X103376115Y-96574999D01*
X103376116Y-96575000D01*
X104128012Y-96575000D01*
X104110795Y-96584940D01*
X104054940Y-96640795D01*
X104015444Y-96709204D01*
X103995000Y-96785504D01*
X103995000Y-96864496D01*
X104015444Y-96940796D01*
X104054940Y-97009205D01*
X104110795Y-97065060D01*
X104128012Y-97075000D01*
X103376116Y-97075000D01*
X103381506Y-97102100D01*
X103381507Y-97102103D01*
X103453119Y-97274991D01*
X103453124Y-97275000D01*
X103557086Y-97430589D01*
X103557089Y-97430593D01*
X103689406Y-97562910D01*
X103689410Y-97562913D01*
X103844999Y-97666875D01*
X103845008Y-97666880D01*
X104017894Y-97738491D01*
X104017902Y-97738493D01*
X104201428Y-97774999D01*
X104201431Y-97775000D01*
X104795000Y-97775000D01*
X104795000Y-97125000D01*
X105295000Y-97125000D01*
X105295000Y-97775000D01*
X105888569Y-97775000D01*
X105888571Y-97774999D01*
X106072097Y-97738493D01*
X106072105Y-97738491D01*
X106244991Y-97666880D01*
X106245000Y-97666875D01*
X106400589Y-97562913D01*
X106400593Y-97562910D01*
X106532910Y-97430593D01*
X106532913Y-97430589D01*
X106636875Y-97275000D01*
X106636880Y-97274991D01*
X106708492Y-97102103D01*
X106708493Y-97102100D01*
X106713884Y-97075000D01*
X105961988Y-97075000D01*
X105979205Y-97065060D01*
X106035060Y-97009205D01*
X106074556Y-96940796D01*
X106095000Y-96864496D01*
X106095000Y-96785504D01*
X106074556Y-96709204D01*
X106035060Y-96640795D01*
X105979205Y-96584940D01*
X105961988Y-96575000D01*
X106713884Y-96575000D01*
X106713884Y-96574999D01*
X106708493Y-96547899D01*
X106708492Y-96547896D01*
X106636880Y-96375008D01*
X106537146Y-96225745D01*
X106515871Y-96223650D01*
X106506027Y-96229026D01*
X106436335Y-96224042D01*
X106391988Y-96195541D01*
X105830490Y-95634043D01*
X105797005Y-95572720D01*
X105801989Y-95503028D01*
X105825000Y-95472289D01*
X105825000Y-95514782D01*
X105855448Y-95588291D01*
X105911709Y-95644552D01*
X105985218Y-95675000D01*
X106064782Y-95675000D01*
X106138291Y-95644552D01*
X106194552Y-95588291D01*
X106225000Y-95514782D01*
X106225000Y-95435218D01*
X106220975Y-95425500D01*
X106277691Y-95425500D01*
X106344730Y-95445185D01*
X106365372Y-95461819D01*
X106776651Y-95873099D01*
X106776652Y-95873099D01*
X106805790Y-95822631D01*
X106861003Y-95652702D01*
X106861004Y-95652699D01*
X106873214Y-95536538D01*
X106899799Y-95471923D01*
X106957097Y-95431939D01*
X106996535Y-95425500D01*
X110625903Y-95425500D01*
X110692942Y-95445185D01*
X110738697Y-95497989D01*
X110748641Y-95567147D01*
X110719616Y-95630703D01*
X110713584Y-95637181D01*
X106091729Y-100259034D01*
X106030406Y-100292519D01*
X105965044Y-100289059D01*
X105952798Y-100285001D01*
X105850010Y-100274500D01*
X105074998Y-100274500D01*
X105074980Y-100274501D01*
X104972203Y-100285000D01*
X104972200Y-100285001D01*
X104805668Y-100340185D01*
X104805663Y-100340187D01*
X104656342Y-100432289D01*
X104532289Y-100556342D01*
X104440187Y-100705663D01*
X104440185Y-100705668D01*
X104440115Y-100705880D01*
X104385001Y-100872203D01*
X104385001Y-100872204D01*
X104385000Y-100872204D01*
X104374500Y-100974983D01*
X104374500Y-102025001D01*
X104374501Y-102025019D01*
X104385000Y-102127796D01*
X104385001Y-102127799D01*
X104425495Y-102250000D01*
X104440186Y-102294334D01*
X104532288Y-102443656D01*
X104656344Y-102567712D01*
X104805666Y-102659814D01*
X104814498Y-102662740D01*
X104871944Y-102702508D01*
X104898771Y-102767022D01*
X104899500Y-102780448D01*
X104899500Y-105236232D01*
X104879815Y-105303271D01*
X104840598Y-105341769D01*
X104744923Y-105400781D01*
X104693842Y-105432289D01*
X104569789Y-105556342D01*
X104477687Y-105705663D01*
X104477685Y-105705668D01*
X104477615Y-105705880D01*
X104422501Y-105872203D01*
X104422501Y-105872204D01*
X104422500Y-105872204D01*
X104412000Y-105974983D01*
X104412000Y-107025001D01*
X104412001Y-107025019D01*
X104422500Y-107127796D01*
X104422501Y-107127799D01*
X104462995Y-107250000D01*
X104477686Y-107294334D01*
X104569788Y-107443656D01*
X104693844Y-107567712D01*
X104840597Y-107658229D01*
X104887321Y-107710175D01*
X104899500Y-107763767D01*
X104899500Y-110254091D01*
X104879815Y-110321130D01*
X104835731Y-110359641D01*
X104836813Y-110361395D01*
X104830667Y-110365185D01*
X104830666Y-110365186D01*
X104732419Y-110425784D01*
X104681342Y-110457289D01*
X104557289Y-110581342D01*
X104465187Y-110730663D01*
X104465186Y-110730666D01*
X104410001Y-110897203D01*
X104410001Y-110897204D01*
X104410000Y-110897204D01*
X104399500Y-110999983D01*
X104399500Y-112000001D01*
X104399501Y-112000019D01*
X104410000Y-112102796D01*
X104410001Y-112102799D01*
X104458779Y-112250000D01*
X104465186Y-112269334D01*
X104557288Y-112418656D01*
X104681344Y-112542712D01*
X104830666Y-112634814D01*
X104830667Y-112634814D01*
X104836813Y-112638605D01*
X104835706Y-112640399D01*
X104880337Y-112679687D01*
X104899500Y-112745908D01*
X104899500Y-114754091D01*
X104879815Y-114821130D01*
X104835731Y-114859641D01*
X104836813Y-114861395D01*
X104830667Y-114865185D01*
X104830666Y-114865186D01*
X104732419Y-114925784D01*
X104681342Y-114957289D01*
X104557289Y-115081342D01*
X104465187Y-115230663D01*
X104465185Y-115230668D01*
X104454743Y-115262181D01*
X104410001Y-115397203D01*
X104410001Y-115397204D01*
X104410000Y-115397204D01*
X104399500Y-115499983D01*
X104399500Y-116500001D01*
X104399501Y-116500019D01*
X104410000Y-116602796D01*
X104410001Y-116602799D01*
X104465185Y-116769331D01*
X104465186Y-116769334D01*
X104557288Y-116918656D01*
X104681344Y-117042712D01*
X104830666Y-117134814D01*
X104997203Y-117189999D01*
X105099991Y-117200500D01*
X105900008Y-117200499D01*
X105900016Y-117200498D01*
X105900019Y-117200498D01*
X105956302Y-117194748D01*
X106002797Y-117189999D01*
X106169334Y-117134814D01*
X106318656Y-117042712D01*
X106412319Y-116949049D01*
X106473642Y-116915564D01*
X106543334Y-116920548D01*
X106587681Y-116949049D01*
X106681344Y-117042712D01*
X106830666Y-117134814D01*
X106997203Y-117189999D01*
X107099991Y-117200500D01*
X107799901Y-117200499D01*
X107866940Y-117220183D01*
X107887582Y-117236818D01*
X108281284Y-117630520D01*
X108281286Y-117630521D01*
X108281290Y-117630524D01*
X108418209Y-117709573D01*
X108418216Y-117709577D01*
X108570943Y-117750501D01*
X108570945Y-117750501D01*
X108736654Y-117750501D01*
X108736670Y-117750500D01*
X143583331Y-117750500D01*
X143583347Y-117750501D01*
X143590943Y-117750501D01*
X143749054Y-117750501D01*
X143749057Y-117750501D01*
X143901785Y-117709577D01*
X143951904Y-117680639D01*
X144038716Y-117630520D01*
X144150520Y-117518716D01*
X144150520Y-117518714D01*
X144160728Y-117508507D01*
X144160730Y-117508504D01*
X144336470Y-117332763D01*
X144397791Y-117299280D01*
X144456238Y-117300670D01*
X144584592Y-117335063D01*
X144772918Y-117351539D01*
X144819999Y-117355659D01*
X144820000Y-117355659D01*
X144820001Y-117355659D01*
X144859234Y-117352226D01*
X145055408Y-117335063D01*
X145283663Y-117273903D01*
X145497830Y-117174035D01*
X145691401Y-117038495D01*
X145858495Y-116871401D01*
X145994035Y-116677830D01*
X146093903Y-116463663D01*
X146155063Y-116235408D01*
X146175659Y-116000000D01*
X146155063Y-115764592D01*
X146120671Y-115636239D01*
X146122334Y-115566393D01*
X146152763Y-115516470D01*
X161855520Y-99813716D01*
X161934577Y-99676784D01*
X161975501Y-99524057D01*
X161975501Y-99365942D01*
X161975501Y-99358347D01*
X161975500Y-99358329D01*
X161975500Y-83719060D01*
X161975501Y-83719047D01*
X161975501Y-83550944D01*
X161975501Y-83550943D01*
X161934577Y-83398216D01*
X161916048Y-83366122D01*
X161855524Y-83261290D01*
X161855518Y-83261282D01*
X161243717Y-82649481D01*
X161243712Y-82649477D01*
X161108643Y-82571496D01*
X161108633Y-82571490D01*
X161106789Y-82570425D01*
X161106787Y-82570424D01*
X161106785Y-82570423D01*
X160954057Y-82529499D01*
X160935751Y-82529499D01*
X160868712Y-82509814D01*
X160822957Y-82457010D01*
X160813013Y-82387852D01*
X160814942Y-82380810D01*
X160814385Y-82380700D01*
X160825500Y-82324822D01*
X160825500Y-81395177D01*
X160816768Y-81351282D01*
X160816767Y-81351281D01*
X160816767Y-81351278D01*
X160783504Y-81301496D01*
X160783502Y-81301495D01*
X160778422Y-81293891D01*
X160757544Y-81227213D01*
X160776029Y-81159833D01*
X160778422Y-81156109D01*
X160783502Y-81148504D01*
X160783504Y-81148504D01*
X160816767Y-81098722D01*
X160825500Y-81054820D01*
X160825500Y-80125180D01*
X160825500Y-80125177D01*
X160814385Y-80069300D01*
X160818664Y-80068448D01*
X160813715Y-80022510D01*
X160844976Y-79960024D01*
X160905057Y-79924359D01*
X160935750Y-79920500D01*
X165979903Y-79920500D01*
X166046942Y-79940185D01*
X166067584Y-79956819D01*
X166167233Y-80056468D01*
X166200718Y-80117791D01*
X166199327Y-80176241D01*
X166164939Y-80304583D01*
X166164936Y-80304596D01*
X166144341Y-80539999D01*
X166144341Y-80540000D01*
X166164936Y-80775403D01*
X166164938Y-80775413D01*
X166226094Y-81003655D01*
X166226096Y-81003659D01*
X166226097Y-81003663D01*
X166313221Y-81190500D01*
X166325965Y-81217830D01*
X166325967Y-81217834D01*
X166461501Y-81411395D01*
X166461506Y-81411402D01*
X166628597Y-81578493D01*
X166628603Y-81578498D01*
X166814158Y-81708425D01*
X166857783Y-81763002D01*
X166864977Y-81832500D01*
X166833454Y-81894855D01*
X166814158Y-81911575D01*
X166628597Y-82041505D01*
X166461505Y-82208597D01*
X166325965Y-82402169D01*
X166325964Y-82402171D01*
X166226098Y-82616335D01*
X166226094Y-82616344D01*
X166164938Y-82844586D01*
X166164936Y-82844596D01*
X166144341Y-83079999D01*
X166144341Y-83080000D01*
X166164936Y-83315403D01*
X166164938Y-83315413D01*
X166226094Y-83543655D01*
X166226096Y-83543659D01*
X166226097Y-83543663D01*
X166313221Y-83730500D01*
X166325965Y-83757830D01*
X166325967Y-83757834D01*
X166403603Y-83868709D01*
X166440179Y-83920945D01*
X166461501Y-83951395D01*
X166461506Y-83951402D01*
X166628597Y-84118493D01*
X166628603Y-84118498D01*
X166814158Y-84248425D01*
X166857783Y-84303002D01*
X166864977Y-84372500D01*
X166833454Y-84434855D01*
X166814158Y-84451575D01*
X166628597Y-84581505D01*
X166461505Y-84748597D01*
X166325965Y-84942169D01*
X166325964Y-84942171D01*
X166226098Y-85156335D01*
X166226094Y-85156344D01*
X166164938Y-85384586D01*
X166164936Y-85384596D01*
X166144341Y-85619999D01*
X166144341Y-85620000D01*
X166164936Y-85855403D01*
X166164938Y-85855413D01*
X166226094Y-86083655D01*
X166226096Y-86083659D01*
X166226097Y-86083663D01*
X166313221Y-86270500D01*
X166325965Y-86297830D01*
X166325967Y-86297834D01*
X166419406Y-86431278D01*
X166461505Y-86491401D01*
X166628599Y-86658495D01*
X166786893Y-86769334D01*
X166814594Y-86788730D01*
X166858219Y-86843307D01*
X166865413Y-86912805D01*
X166833890Y-86975160D01*
X166814595Y-86991880D01*
X166628922Y-87121890D01*
X166628920Y-87121891D01*
X166461891Y-87288920D01*
X166461886Y-87288926D01*
X166326400Y-87482420D01*
X166326399Y-87482422D01*
X166226570Y-87696507D01*
X166226567Y-87696513D01*
X166169364Y-87909999D01*
X166169364Y-87910000D01*
X167066988Y-87910000D01*
X167034075Y-87967007D01*
X167000000Y-88094174D01*
X167000000Y-88225826D01*
X167034075Y-88352993D01*
X167066988Y-88410000D01*
X166169364Y-88410000D01*
X166226567Y-88623486D01*
X166226570Y-88623492D01*
X166326399Y-88837578D01*
X166461894Y-89031082D01*
X166628917Y-89198105D01*
X166822421Y-89333600D01*
X167036507Y-89433429D01*
X167036516Y-89433433D01*
X167250000Y-89490634D01*
X167250000Y-88593012D01*
X167307007Y-88625925D01*
X167434174Y-88660000D01*
X167565826Y-88660000D01*
X167692993Y-88625925D01*
X167750000Y-88593012D01*
X167750000Y-89490633D01*
X167963483Y-89433433D01*
X167963492Y-89433429D01*
X168177578Y-89333600D01*
X168371082Y-89198105D01*
X168538105Y-89031082D01*
X168673600Y-88837578D01*
X168773429Y-88623492D01*
X168773432Y-88623486D01*
X168830636Y-88410000D01*
X167933012Y-88410000D01*
X167965925Y-88352993D01*
X168000000Y-88225826D01*
X168000000Y-88094174D01*
X167965925Y-87967007D01*
X167933012Y-87910000D01*
X168830636Y-87910000D01*
X168830635Y-87909999D01*
X168773432Y-87696513D01*
X168773429Y-87696507D01*
X168673600Y-87482422D01*
X168673599Y-87482420D01*
X168538113Y-87288926D01*
X168538108Y-87288920D01*
X168371078Y-87121890D01*
X168185405Y-86991879D01*
X168141780Y-86937302D01*
X168134588Y-86867804D01*
X168166110Y-86805449D01*
X168185406Y-86788730D01*
X168371401Y-86658495D01*
X168538495Y-86491401D01*
X168674035Y-86297830D01*
X168773903Y-86083663D01*
X168835063Y-85855408D01*
X168855659Y-85620000D01*
X168835063Y-85384592D01*
X168773903Y-85156337D01*
X168674035Y-84942171D01*
X168650614Y-84908721D01*
X168538494Y-84748597D01*
X168371402Y-84581506D01*
X168371396Y-84581501D01*
X168185842Y-84451575D01*
X168142217Y-84396998D01*
X168135023Y-84327500D01*
X168166546Y-84265145D01*
X168185842Y-84248425D01*
X168323428Y-84152086D01*
X168371401Y-84118495D01*
X168538495Y-83951401D01*
X168674035Y-83757830D01*
X168773903Y-83543663D01*
X168835063Y-83315408D01*
X168855659Y-83080000D01*
X168835063Y-82844592D01*
X168773903Y-82616337D01*
X168674035Y-82402171D01*
X168658031Y-82379314D01*
X168538494Y-82208597D01*
X168371402Y-82041506D01*
X168371396Y-82041501D01*
X168185842Y-81911575D01*
X168142217Y-81856998D01*
X168135023Y-81787500D01*
X168166546Y-81725145D01*
X168185842Y-81708425D01*
X168242532Y-81668730D01*
X168371401Y-81578495D01*
X168538495Y-81411401D01*
X168674035Y-81217830D01*
X168773903Y-81003663D01*
X168835063Y-80775408D01*
X168855659Y-80540000D01*
X168835063Y-80304592D01*
X168773903Y-80076337D01*
X168674035Y-79862171D01*
X168650614Y-79828721D01*
X168538494Y-79668597D01*
X168371402Y-79501506D01*
X168371396Y-79501501D01*
X168185842Y-79371575D01*
X168142217Y-79316998D01*
X168135023Y-79247500D01*
X168166546Y-79185145D01*
X168185842Y-79168425D01*
X168208026Y-79152891D01*
X168371401Y-79038495D01*
X168538495Y-78871401D01*
X168674035Y-78677830D01*
X168773903Y-78463663D01*
X168835063Y-78235408D01*
X168855659Y-78000000D01*
X168835063Y-77764592D01*
X168773903Y-77536337D01*
X168674035Y-77322171D01*
X168664009Y-77307853D01*
X168538496Y-77128600D01*
X168512012Y-77102116D01*
X168416567Y-77006671D01*
X168383084Y-76945351D01*
X168388068Y-76875659D01*
X168429939Y-76819725D01*
X168460915Y-76802810D01*
X168592331Y-76753796D01*
X168707546Y-76667546D01*
X168793796Y-76552331D01*
X168844091Y-76417483D01*
X168850500Y-76357873D01*
X168850499Y-74562128D01*
X168844091Y-74502517D01*
X168839422Y-74490000D01*
X168793797Y-74367671D01*
X168793793Y-74367664D01*
X168707547Y-74252455D01*
X168707544Y-74252452D01*
X168592335Y-74166206D01*
X168592328Y-74166202D01*
X168457482Y-74115908D01*
X168457483Y-74115908D01*
X168397883Y-74109501D01*
X168397881Y-74109500D01*
X168397873Y-74109500D01*
X168397864Y-74109500D01*
X166602129Y-74109500D01*
X166602123Y-74109501D01*
X166542516Y-74115908D01*
X166407671Y-74166202D01*
X166407664Y-74166206D01*
X166292455Y-74252452D01*
X166292452Y-74252455D01*
X166206206Y-74367664D01*
X166206202Y-74367671D01*
X166155908Y-74502517D01*
X166149501Y-74562116D01*
X166149501Y-74562123D01*
X166149500Y-74562135D01*
X166149500Y-76357870D01*
X166149501Y-76357876D01*
X166155908Y-76417483D01*
X166206202Y-76552328D01*
X166206206Y-76552335D01*
X166292452Y-76667544D01*
X166292455Y-76667547D01*
X166407664Y-76753793D01*
X166407671Y-76753797D01*
X166539081Y-76802810D01*
X166595015Y-76844681D01*
X166619432Y-76910145D01*
X166604580Y-76978418D01*
X166583430Y-77006673D01*
X166461503Y-77128600D01*
X166325966Y-77322168D01*
X166299975Y-77377906D01*
X166253802Y-77430345D01*
X166187593Y-77449500D01*
X160935750Y-77449500D01*
X160868711Y-77429815D01*
X160822956Y-77377011D01*
X160813012Y-77307853D01*
X160814944Y-77300811D01*
X160814385Y-77300700D01*
X160825500Y-77244822D01*
X160825500Y-76315177D01*
X160816768Y-76271282D01*
X160816767Y-76271281D01*
X160816767Y-76271278D01*
X160783504Y-76221496D01*
X160783502Y-76221495D01*
X160778422Y-76213891D01*
X160757544Y-76147213D01*
X160776029Y-76079833D01*
X160778422Y-76076109D01*
X160783502Y-76068504D01*
X160783504Y-76068504D01*
X160816767Y-76018722D01*
X160825500Y-75974820D01*
X160825500Y-75253608D01*
X160845185Y-75186569D01*
X160897989Y-75140814D01*
X160906171Y-75137425D01*
X160917089Y-75133353D01*
X160917091Y-75133351D01*
X161032187Y-75047190D01*
X161032190Y-75047187D01*
X161118350Y-74932093D01*
X161118354Y-74932086D01*
X161168596Y-74797379D01*
X161168598Y-74797372D01*
X161174999Y-74737844D01*
X161175000Y-74737827D01*
X161175000Y-74490000D01*
X158675000Y-74490000D01*
X158675000Y-74737844D01*
X158681401Y-74797372D01*
X158681403Y-74797379D01*
X158731645Y-74932086D01*
X158731649Y-74932093D01*
X158817809Y-75047187D01*
X158817812Y-75047190D01*
X158932908Y-75133351D01*
X158932910Y-75133353D01*
X158943829Y-75137425D01*
X158999764Y-75179294D01*
X159024184Y-75244757D01*
X159024500Y-75253608D01*
X159024500Y-75974820D01*
X159024500Y-75974822D01*
X159024499Y-75974822D01*
X159033231Y-76018717D01*
X159033232Y-76018720D01*
X159033232Y-76018721D01*
X159033233Y-76018722D01*
X159041805Y-76031551D01*
X159071578Y-76076110D01*
X159092455Y-76142788D01*
X159073970Y-76210168D01*
X159071578Y-76213890D01*
X159033232Y-76271279D01*
X159033231Y-76271282D01*
X159024500Y-76315177D01*
X159024500Y-76315180D01*
X159024500Y-77244820D01*
X159024500Y-77244822D01*
X159024499Y-77244822D01*
X159033231Y-77288717D01*
X159033232Y-77288720D01*
X159033232Y-77288721D01*
X159033233Y-77288722D01*
X159041311Y-77300811D01*
X159071578Y-77346110D01*
X159092455Y-77412788D01*
X159073970Y-77480168D01*
X159071578Y-77483890D01*
X159033232Y-77541279D01*
X159033231Y-77541282D01*
X159024500Y-77585177D01*
X159024500Y-77585180D01*
X159024500Y-78514820D01*
X159024500Y-78514822D01*
X159024499Y-78514822D01*
X159033231Y-78558717D01*
X159033232Y-78558720D01*
X159071578Y-78616110D01*
X159092455Y-78682788D01*
X159073970Y-78750168D01*
X159071578Y-78753890D01*
X159033232Y-78811279D01*
X159033231Y-78811282D01*
X159024500Y-78855177D01*
X159024500Y-78855180D01*
X159024500Y-79784820D01*
X159024500Y-79784822D01*
X159024499Y-79784822D01*
X159033231Y-79828717D01*
X159033232Y-79828720D01*
X159071578Y-79886110D01*
X159092455Y-79952788D01*
X159073970Y-80020168D01*
X159071578Y-80023890D01*
X159033232Y-80081279D01*
X159033231Y-80081282D01*
X159024500Y-80125177D01*
X159024500Y-80125180D01*
X159024500Y-81054820D01*
X159024500Y-81054822D01*
X159024499Y-81054822D01*
X159033231Y-81098717D01*
X159033232Y-81098720D01*
X159071578Y-81156110D01*
X159092455Y-81222788D01*
X159073970Y-81290168D01*
X159071578Y-81293890D01*
X159033232Y-81351279D01*
X159033231Y-81351282D01*
X159024500Y-81395177D01*
X159024500Y-81395180D01*
X159024500Y-82324820D01*
X159024500Y-82324822D01*
X159024499Y-82324822D01*
X159033231Y-82368717D01*
X159033232Y-82368720D01*
X159033232Y-82368721D01*
X159033233Y-82368722D01*
X159041310Y-82380810D01*
X159071578Y-82426110D01*
X159092455Y-82492788D01*
X159073970Y-82560168D01*
X159071578Y-82563890D01*
X159033232Y-82621279D01*
X159033231Y-82621282D01*
X159024500Y-82665177D01*
X159024500Y-82665180D01*
X159024500Y-83594820D01*
X159024500Y-83594822D01*
X159024499Y-83594822D01*
X159033231Y-83638717D01*
X159033232Y-83638720D01*
X159071578Y-83696110D01*
X159092455Y-83762788D01*
X159073970Y-83830168D01*
X159071578Y-83833890D01*
X159033232Y-83891279D01*
X159033231Y-83891282D01*
X159024500Y-83935177D01*
X159024500Y-83935180D01*
X159024500Y-84864820D01*
X159024500Y-84864822D01*
X159024499Y-84864822D01*
X159033231Y-84908717D01*
X159033232Y-84908720D01*
X159071578Y-84966110D01*
X159092455Y-85032788D01*
X159073970Y-85100168D01*
X159071578Y-85103890D01*
X159033232Y-85161279D01*
X159033231Y-85161282D01*
X159024500Y-85205177D01*
X159024500Y-85205180D01*
X159024500Y-86134820D01*
X159024500Y-86134822D01*
X159024499Y-86134822D01*
X159033231Y-86178717D01*
X159033232Y-86178720D01*
X159033232Y-86178721D01*
X159033233Y-86178722D01*
X159041805Y-86191551D01*
X159071578Y-86236110D01*
X159092455Y-86302788D01*
X159073970Y-86370168D01*
X159071578Y-86373890D01*
X159033232Y-86431279D01*
X159033231Y-86431282D01*
X159024500Y-86475177D01*
X159024500Y-86475180D01*
X159024500Y-87404820D01*
X159024500Y-87404822D01*
X159024499Y-87404822D01*
X159033231Y-87448717D01*
X159033232Y-87448720D01*
X159033232Y-87448721D01*
X159033233Y-87448722D01*
X159061150Y-87490503D01*
X159071578Y-87506110D01*
X159092455Y-87572788D01*
X159073970Y-87640168D01*
X159071578Y-87643890D01*
X159033232Y-87701279D01*
X159033231Y-87701282D01*
X159024500Y-87745177D01*
X159024500Y-87745180D01*
X159024500Y-88674820D01*
X159024500Y-88674822D01*
X159024499Y-88674822D01*
X159033231Y-88718717D01*
X159033232Y-88718720D01*
X159033232Y-88718721D01*
X159033233Y-88718722D01*
X159047879Y-88740641D01*
X159071578Y-88776110D01*
X159092455Y-88842788D01*
X159073970Y-88910168D01*
X159071578Y-88913890D01*
X159033232Y-88971279D01*
X159033231Y-88971282D01*
X159024500Y-89015177D01*
X159024500Y-89015180D01*
X159024500Y-89944820D01*
X159024500Y-89944822D01*
X159024499Y-89944822D01*
X159033231Y-89988717D01*
X159033232Y-89988720D01*
X159033232Y-89988721D01*
X159033233Y-89988722D01*
X159061150Y-90030503D01*
X159071578Y-90046110D01*
X159092455Y-90112788D01*
X159073970Y-90180168D01*
X159071578Y-90183890D01*
X159033232Y-90241279D01*
X159033231Y-90241282D01*
X159024500Y-90285177D01*
X159024500Y-90285180D01*
X159024500Y-91214820D01*
X159024500Y-91214822D01*
X159024499Y-91214822D01*
X159033231Y-91258717D01*
X159033232Y-91258721D01*
X159033233Y-91258722D01*
X159066496Y-91308504D01*
X159116278Y-91341767D01*
X159116281Y-91341767D01*
X159116282Y-91341768D01*
X159160177Y-91350500D01*
X159160180Y-91350500D01*
X160250500Y-91350500D01*
X160317539Y-91370185D01*
X160363294Y-91422989D01*
X160374500Y-91474500D01*
X160374500Y-96851248D01*
X160354815Y-96918287D01*
X160338181Y-96938929D01*
X159968588Y-97308521D01*
X159907265Y-97342006D01*
X159837573Y-97337022D01*
X159781640Y-97295150D01*
X159768525Y-97273245D01*
X159754035Y-97242171D01*
X159754032Y-97242167D01*
X159754032Y-97242166D01*
X159618494Y-97048597D01*
X159451402Y-96881506D01*
X159451395Y-96881501D01*
X159257834Y-96745967D01*
X159257830Y-96745965D01*
X159228768Y-96732413D01*
X159043663Y-96646097D01*
X159043659Y-96646096D01*
X159043655Y-96646094D01*
X158815413Y-96584938D01*
X158815403Y-96584936D01*
X158580001Y-96564341D01*
X158579999Y-96564341D01*
X158344596Y-96584936D01*
X158344586Y-96584938D01*
X158116344Y-96646094D01*
X158116335Y-96646098D01*
X157902171Y-96745964D01*
X157902169Y-96745965D01*
X157708597Y-96881505D01*
X157541508Y-97048594D01*
X157411269Y-97234595D01*
X157356692Y-97278219D01*
X157287193Y-97285412D01*
X157224839Y-97253890D01*
X157208119Y-97234594D01*
X157078113Y-97048926D01*
X157078108Y-97048920D01*
X156911082Y-96881894D01*
X156717578Y-96746399D01*
X156503492Y-96646570D01*
X156503486Y-96646567D01*
X156290000Y-96589364D01*
X156290000Y-97486988D01*
X156232993Y-97454075D01*
X156105826Y-97420000D01*
X155974174Y-97420000D01*
X155847007Y-97454075D01*
X155790000Y-97486988D01*
X155790000Y-96530597D01*
X155809685Y-96463558D01*
X155826316Y-96442919D01*
X156100520Y-96168716D01*
X156179577Y-96031784D01*
X156220501Y-95879057D01*
X156220501Y-95720942D01*
X156220501Y-95713347D01*
X156220500Y-95713329D01*
X156220500Y-93010750D01*
X156240185Y-92943711D01*
X156292989Y-92897956D01*
X156362147Y-92888012D01*
X156369188Y-92889944D01*
X156369300Y-92889385D01*
X156425177Y-92900500D01*
X156425180Y-92900500D01*
X157354822Y-92900500D01*
X157398717Y-92891768D01*
X157398717Y-92891767D01*
X157398722Y-92891767D01*
X157448504Y-92858504D01*
X157448504Y-92858502D01*
X157456109Y-92853422D01*
X157522787Y-92832544D01*
X157590167Y-92851029D01*
X157593891Y-92853422D01*
X157601495Y-92858502D01*
X157601496Y-92858504D01*
X157651278Y-92891767D01*
X157651281Y-92891767D01*
X157651282Y-92891768D01*
X157695177Y-92900500D01*
X157695180Y-92900500D01*
X158624822Y-92900500D01*
X158668717Y-92891768D01*
X158668717Y-92891767D01*
X158668722Y-92891767D01*
X158718504Y-92858504D01*
X158751767Y-92808722D01*
X158760500Y-92764820D01*
X158760500Y-91235180D01*
X158760500Y-91235177D01*
X158751768Y-91191282D01*
X158751767Y-91191281D01*
X158751767Y-91191278D01*
X158718504Y-91141496D01*
X158718503Y-91141495D01*
X158668724Y-91108234D01*
X158668717Y-91108231D01*
X158624822Y-91099500D01*
X158624820Y-91099500D01*
X157695180Y-91099500D01*
X157695178Y-91099500D01*
X157651282Y-91108231D01*
X157651279Y-91108232D01*
X157593890Y-91146578D01*
X157527212Y-91167455D01*
X157459832Y-91148970D01*
X157456110Y-91146578D01*
X157398723Y-91108234D01*
X157398722Y-91108233D01*
X157398721Y-91108232D01*
X157398720Y-91108232D01*
X157398717Y-91108231D01*
X157354822Y-91099500D01*
X157354820Y-91099500D01*
X156425180Y-91099500D01*
X156425178Y-91099500D01*
X156381282Y-91108231D01*
X156381279Y-91108232D01*
X156323890Y-91146578D01*
X156257212Y-91167455D01*
X156189832Y-91148970D01*
X156186110Y-91146578D01*
X156128723Y-91108234D01*
X156128722Y-91108233D01*
X156128721Y-91108232D01*
X156128720Y-91108232D01*
X156128717Y-91108231D01*
X156084822Y-91099500D01*
X156084820Y-91099500D01*
X155155180Y-91099500D01*
X155155178Y-91099500D01*
X155111282Y-91108231D01*
X155111279Y-91108232D01*
X155053890Y-91146578D01*
X154987212Y-91167455D01*
X154919832Y-91148970D01*
X154916110Y-91146578D01*
X154858723Y-91108234D01*
X154858722Y-91108233D01*
X154858721Y-91108232D01*
X154858720Y-91108232D01*
X154858717Y-91108231D01*
X154814822Y-91099500D01*
X154814820Y-91099500D01*
X153885180Y-91099500D01*
X153885178Y-91099500D01*
X153841282Y-91108231D01*
X153841279Y-91108232D01*
X153783890Y-91146578D01*
X153717212Y-91167455D01*
X153649832Y-91148970D01*
X153646110Y-91146578D01*
X153588723Y-91108234D01*
X153588722Y-91108233D01*
X153588721Y-91108232D01*
X153588720Y-91108232D01*
X153588717Y-91108231D01*
X153544822Y-91099500D01*
X153544820Y-91099500D01*
X152615180Y-91099500D01*
X152615178Y-91099500D01*
X152571282Y-91108231D01*
X152571279Y-91108232D01*
X152513890Y-91146578D01*
X152447212Y-91167455D01*
X152379832Y-91148970D01*
X152376110Y-91146578D01*
X152318723Y-91108234D01*
X152318722Y-91108233D01*
X152318721Y-91108232D01*
X152318720Y-91108232D01*
X152318717Y-91108231D01*
X152274822Y-91099500D01*
X152274820Y-91099500D01*
X151345180Y-91099500D01*
X151345178Y-91099500D01*
X151301282Y-91108231D01*
X151301279Y-91108232D01*
X151243890Y-91146578D01*
X151177212Y-91167455D01*
X151109832Y-91148970D01*
X151106110Y-91146578D01*
X151048723Y-91108234D01*
X151048722Y-91108233D01*
X151048721Y-91108232D01*
X151048720Y-91108232D01*
X151048717Y-91108231D01*
X151004822Y-91099500D01*
X151004820Y-91099500D01*
X150075180Y-91099500D01*
X150075178Y-91099500D01*
X150031282Y-91108231D01*
X150031279Y-91108232D01*
X149973890Y-91146578D01*
X149907212Y-91167455D01*
X149839832Y-91148970D01*
X149836110Y-91146578D01*
X149778723Y-91108234D01*
X149778722Y-91108233D01*
X149778721Y-91108232D01*
X149778720Y-91108232D01*
X149778717Y-91108231D01*
X149734822Y-91099500D01*
X149734820Y-91099500D01*
X148805180Y-91099500D01*
X148805178Y-91099500D01*
X148761282Y-91108231D01*
X148761279Y-91108232D01*
X148703890Y-91146578D01*
X148637212Y-91167455D01*
X148569832Y-91148970D01*
X148566110Y-91146578D01*
X148508723Y-91108234D01*
X148508722Y-91108233D01*
X148508721Y-91108232D01*
X148508720Y-91108232D01*
X148508717Y-91108231D01*
X148464822Y-91099500D01*
X148464820Y-91099500D01*
X147535180Y-91099500D01*
X147535178Y-91099500D01*
X147491282Y-91108231D01*
X147491279Y-91108232D01*
X147433890Y-91146578D01*
X147367212Y-91167455D01*
X147299832Y-91148970D01*
X147296110Y-91146578D01*
X147238723Y-91108234D01*
X147238722Y-91108233D01*
X147238721Y-91108232D01*
X147238720Y-91108232D01*
X147238717Y-91108231D01*
X147194822Y-91099500D01*
X147194820Y-91099500D01*
X146265180Y-91099500D01*
X146265178Y-91099500D01*
X146221282Y-91108231D01*
X146221279Y-91108232D01*
X146163890Y-91146578D01*
X146097212Y-91167455D01*
X146029832Y-91148970D01*
X146026110Y-91146578D01*
X145968723Y-91108234D01*
X145968722Y-91108233D01*
X145968721Y-91108232D01*
X145968720Y-91108232D01*
X145968717Y-91108231D01*
X145924822Y-91099500D01*
X145924820Y-91099500D01*
X144995180Y-91099500D01*
X144995178Y-91099500D01*
X144951282Y-91108231D01*
X144951279Y-91108232D01*
X144893890Y-91146578D01*
X144827212Y-91167455D01*
X144759832Y-91148970D01*
X144756110Y-91146578D01*
X144698723Y-91108234D01*
X144698722Y-91108233D01*
X144698721Y-91108232D01*
X144698720Y-91108232D01*
X144698717Y-91108231D01*
X144654822Y-91099500D01*
X144654820Y-91099500D01*
X143725180Y-91099500D01*
X143725178Y-91099500D01*
X143681282Y-91108231D01*
X143681275Y-91108234D01*
X143631496Y-91141495D01*
X143631495Y-91141496D01*
X143598234Y-91191275D01*
X143598231Y-91191282D01*
X143589500Y-91235177D01*
X143589500Y-91235180D01*
X143589500Y-92764820D01*
X143589500Y-92764822D01*
X143589499Y-92764822D01*
X143598231Y-92808717D01*
X143598232Y-92808721D01*
X143598233Y-92808722D01*
X143631496Y-92858504D01*
X143681278Y-92891767D01*
X143681281Y-92891767D01*
X143681282Y-92891768D01*
X143725177Y-92900500D01*
X143725180Y-92900500D01*
X144654822Y-92900500D01*
X144698717Y-92891768D01*
X144698717Y-92891767D01*
X144698722Y-92891767D01*
X144748504Y-92858504D01*
X144748504Y-92858502D01*
X144756109Y-92853422D01*
X144822787Y-92832544D01*
X144890167Y-92851029D01*
X144893891Y-92853422D01*
X144901495Y-92858502D01*
X144901496Y-92858504D01*
X144951278Y-92891767D01*
X144951281Y-92891767D01*
X144951282Y-92891768D01*
X144995177Y-92900500D01*
X144995180Y-92900500D01*
X145924822Y-92900500D01*
X145968717Y-92891768D01*
X145968717Y-92891767D01*
X145968722Y-92891767D01*
X146018504Y-92858504D01*
X146018504Y-92858502D01*
X146026109Y-92853422D01*
X146092787Y-92832544D01*
X146160167Y-92851029D01*
X146163891Y-92853422D01*
X146171495Y-92858502D01*
X146171496Y-92858504D01*
X146221278Y-92891767D01*
X146221281Y-92891767D01*
X146221282Y-92891768D01*
X146265177Y-92900500D01*
X146265180Y-92900500D01*
X147194822Y-92900500D01*
X147238717Y-92891768D01*
X147238717Y-92891767D01*
X147238722Y-92891767D01*
X147288504Y-92858504D01*
X147288504Y-92858502D01*
X147296109Y-92853422D01*
X147362787Y-92832544D01*
X147430167Y-92851029D01*
X147433891Y-92853422D01*
X147441495Y-92858502D01*
X147441496Y-92858504D01*
X147491278Y-92891767D01*
X147491281Y-92891767D01*
X147491282Y-92891768D01*
X147535177Y-92900500D01*
X147535180Y-92900500D01*
X148464822Y-92900500D01*
X148508717Y-92891768D01*
X148508717Y-92891767D01*
X148508722Y-92891767D01*
X148558504Y-92858504D01*
X148558504Y-92858502D01*
X148566109Y-92853422D01*
X148632787Y-92832544D01*
X148700167Y-92851029D01*
X148703891Y-92853422D01*
X148711495Y-92858502D01*
X148711496Y-92858504D01*
X148761278Y-92891767D01*
X148761281Y-92891767D01*
X148761282Y-92891768D01*
X148805177Y-92900500D01*
X148805180Y-92900500D01*
X149077249Y-92900500D01*
X149144288Y-92920185D01*
X149190043Y-92972989D01*
X149199987Y-93042147D01*
X149170962Y-93105703D01*
X149164930Y-93112181D01*
X146143930Y-96133181D01*
X146082607Y-96166666D01*
X146056249Y-96169500D01*
X144576670Y-96169500D01*
X144576654Y-96169499D01*
X144569058Y-96169499D01*
X144410943Y-96169499D01*
X144334579Y-96189961D01*
X144258214Y-96210423D01*
X144258209Y-96210426D01*
X144121290Y-96289475D01*
X144121282Y-96289481D01*
X143877582Y-96533181D01*
X143816259Y-96566666D01*
X143789901Y-96569500D01*
X142442129Y-96569500D01*
X142442123Y-96569501D01*
X142382516Y-96575908D01*
X142247671Y-96626202D01*
X142247664Y-96626206D01*
X142132455Y-96712452D01*
X142132452Y-96712455D01*
X142046206Y-96827664D01*
X142046202Y-96827671D01*
X141995908Y-96962517D01*
X141990889Y-97009205D01*
X141989500Y-97022127D01*
X141989500Y-97740329D01*
X141989501Y-98345500D01*
X141969816Y-98412539D01*
X141917013Y-98458294D01*
X141865501Y-98469500D01*
X137654500Y-98469500D01*
X137587461Y-98449815D01*
X137541706Y-98397011D01*
X137530500Y-98345500D01*
X137530500Y-96019059D01*
X137530501Y-96019046D01*
X137530501Y-95850945D01*
X137530501Y-95850943D01*
X137489577Y-95698215D01*
X137460639Y-95648095D01*
X137410520Y-95561284D01*
X137330700Y-95481464D01*
X137297215Y-95420141D01*
X137295163Y-95407684D01*
X137285368Y-95320745D01*
X137225789Y-95150478D01*
X137129816Y-94997738D01*
X137002262Y-94870184D01*
X136980936Y-94856784D01*
X136849523Y-94774211D01*
X136679254Y-94714631D01*
X136679249Y-94714630D01*
X136500004Y-94694435D01*
X136499996Y-94694435D01*
X136320750Y-94714630D01*
X136320745Y-94714631D01*
X136150476Y-94774211D01*
X135997737Y-94870184D01*
X135870184Y-94997737D01*
X135774211Y-95150476D01*
X135714631Y-95320745D01*
X135714630Y-95320750D01*
X135694435Y-95499996D01*
X135694435Y-95500003D01*
X135714630Y-95679249D01*
X135714631Y-95679254D01*
X135774211Y-95849523D01*
X135855323Y-95978611D01*
X135870184Y-96002262D01*
X135997738Y-96129816D01*
X136150478Y-96225789D01*
X136246455Y-96259372D01*
X136303230Y-96300093D01*
X136328978Y-96365046D01*
X136329500Y-96376414D01*
X136329500Y-98769902D01*
X136309815Y-98836941D01*
X136293181Y-98857583D01*
X133887582Y-101263181D01*
X133826259Y-101296666D01*
X133799901Y-101299500D01*
X133099998Y-101299500D01*
X133099980Y-101299501D01*
X132997203Y-101310000D01*
X132997200Y-101310001D01*
X132830668Y-101365185D01*
X132830663Y-101365187D01*
X132681342Y-101457289D01*
X132557289Y-101581342D01*
X132465187Y-101730663D01*
X132465185Y-101730668D01*
X132437405Y-101814504D01*
X132397632Y-101871949D01*
X132333116Y-101898772D01*
X132319699Y-101899500D01*
X127213585Y-101899500D01*
X127146546Y-101879815D01*
X127100791Y-101827011D01*
X127095879Y-101814504D01*
X127059814Y-101705666D01*
X126967712Y-101556344D01*
X126843656Y-101432288D01*
X126694334Y-101340186D01*
X126527797Y-101285001D01*
X126527794Y-101285000D01*
X126425707Y-101274571D01*
X126361015Y-101248175D01*
X126350629Y-101238894D01*
X123550090Y-98438355D01*
X123550088Y-98438352D01*
X123431217Y-98319481D01*
X123431216Y-98319480D01*
X123344404Y-98269360D01*
X123344404Y-98269359D01*
X123344400Y-98269358D01*
X123294285Y-98240423D01*
X123141557Y-98199499D01*
X122983443Y-98199499D01*
X122975847Y-98199499D01*
X122975831Y-98199500D01*
X120914043Y-98199500D01*
X120847004Y-98179815D01*
X120801249Y-98127011D01*
X120790530Y-98064519D01*
X120799999Y-97958000D01*
X120800000Y-97957998D01*
X120800000Y-96750000D01*
X117800000Y-96750000D01*
X117800000Y-97958000D01*
X117809470Y-98064519D01*
X117795799Y-98133038D01*
X117747255Y-98183290D01*
X117685957Y-98199500D01*
X114566916Y-98199500D01*
X114499877Y-98179815D01*
X114454122Y-98127011D01*
X114452425Y-98122887D01*
X114367032Y-97950707D01*
X114367030Y-97950704D01*
X114247724Y-97802280D01*
X114247722Y-97802278D01*
X114178112Y-97746324D01*
X114138196Y-97688985D01*
X114135616Y-97619163D01*
X114171194Y-97559030D01*
X114178115Y-97553033D01*
X114247366Y-97497367D01*
X114247367Y-97497366D01*
X114366607Y-97349025D01*
X114366609Y-97349022D01*
X114451168Y-97178523D01*
X114497102Y-96993824D01*
X114500000Y-96951096D01*
X114500000Y-96750000D01*
X112874000Y-96750000D01*
X112806961Y-96730315D01*
X112761206Y-96677511D01*
X112750000Y-96626000D01*
X112750000Y-96374000D01*
X112769685Y-96306961D01*
X112822489Y-96261206D01*
X112874000Y-96250000D01*
X114500000Y-96250000D01*
X114500000Y-96048903D01*
X114497102Y-96006175D01*
X114451168Y-95821476D01*
X114366609Y-95650977D01*
X114366607Y-95650974D01*
X114247367Y-95502633D01*
X114247366Y-95502632D01*
X114178115Y-95446967D01*
X114138196Y-95389624D01*
X114135616Y-95319802D01*
X114171194Y-95259669D01*
X114178089Y-95253694D01*
X114247722Y-95197722D01*
X114367030Y-95049296D01*
X114370649Y-95041999D01*
X117800000Y-95041999D01*
X117800000Y-96250000D01*
X119050000Y-96250000D01*
X119550000Y-96250000D01*
X120800000Y-96250000D01*
X120800000Y-95042002D01*
X120799999Y-95041999D01*
X120789391Y-94922674D01*
X120789390Y-94922671D01*
X120733442Y-94727138D01*
X120639278Y-94546870D01*
X120510753Y-94389246D01*
X120353129Y-94260721D01*
X120172861Y-94166557D01*
X119977328Y-94110609D01*
X119977325Y-94110608D01*
X119858000Y-94100000D01*
X119550000Y-94100000D01*
X119550000Y-96250000D01*
X119050000Y-96250000D01*
X119050000Y-94100000D01*
X118741999Y-94100000D01*
X118622674Y-94110608D01*
X118622671Y-94110609D01*
X118427138Y-94166557D01*
X118246870Y-94260721D01*
X118089246Y-94389246D01*
X117960721Y-94546870D01*
X117866557Y-94727138D01*
X117810609Y-94922671D01*
X117810608Y-94922674D01*
X117800000Y-95041999D01*
X114370649Y-95041999D01*
X114391354Y-95000252D01*
X114451639Y-94878697D01*
X114451638Y-94878697D01*
X114451641Y-94878693D01*
X114497600Y-94693889D01*
X114500500Y-94651123D01*
X114500499Y-93748878D01*
X114497600Y-93706111D01*
X114490964Y-93679426D01*
X114490964Y-93679425D01*
X114493888Y-93609616D01*
X114534089Y-93552471D01*
X114598804Y-93526131D01*
X114611299Y-93525500D01*
X138086495Y-93525500D01*
X138153534Y-93545185D01*
X138199289Y-93597989D01*
X138209715Y-93635618D01*
X138214630Y-93679246D01*
X138214631Y-93679252D01*
X138214631Y-93679254D01*
X138214632Y-93679255D01*
X138214692Y-93679426D01*
X138274210Y-93849521D01*
X138274211Y-93849522D01*
X138370184Y-94002262D01*
X138497738Y-94129816D01*
X138650478Y-94225789D01*
X138737622Y-94256282D01*
X138820745Y-94285368D01*
X138820750Y-94285369D01*
X138999996Y-94305565D01*
X139000000Y-94305565D01*
X139000004Y-94305565D01*
X139179249Y-94285369D01*
X139179252Y-94285368D01*
X139179255Y-94285368D01*
X139349522Y-94225789D01*
X139502262Y-94129816D01*
X139629816Y-94002262D01*
X139725789Y-93849522D01*
X139783867Y-93683545D01*
X139824589Y-93626769D01*
X139889542Y-93601022D01*
X139900909Y-93600500D01*
X140088331Y-93600500D01*
X140088347Y-93600501D01*
X140095943Y-93600501D01*
X140254054Y-93600501D01*
X140254057Y-93600501D01*
X140406785Y-93559577D01*
X140465806Y-93525501D01*
X140543716Y-93480520D01*
X140655520Y-93368716D01*
X140655520Y-93368714D01*
X140665724Y-93358511D01*
X140665727Y-93358506D01*
X142637417Y-91386819D01*
X142698740Y-91353334D01*
X142725098Y-91350500D01*
X143189822Y-91350500D01*
X143233717Y-91341768D01*
X143233717Y-91341767D01*
X143233722Y-91341767D01*
X143283504Y-91308504D01*
X143316767Y-91258722D01*
X143325500Y-91214820D01*
X143325500Y-90285180D01*
X143325500Y-90285177D01*
X143316768Y-90241282D01*
X143316767Y-90241281D01*
X143316767Y-90241278D01*
X143283504Y-90191496D01*
X143283502Y-90191495D01*
X143278422Y-90183891D01*
X143257544Y-90117213D01*
X143276029Y-90049833D01*
X143278422Y-90046109D01*
X143283502Y-90038504D01*
X143283504Y-90038504D01*
X143316767Y-89988722D01*
X143325500Y-89944820D01*
X143325500Y-89015180D01*
X143325500Y-89015177D01*
X143316768Y-88971282D01*
X143316767Y-88971281D01*
X143316767Y-88971278D01*
X143283504Y-88921496D01*
X143283502Y-88921495D01*
X143278422Y-88913891D01*
X143257544Y-88847213D01*
X143276029Y-88779833D01*
X143278422Y-88776109D01*
X143283502Y-88768504D01*
X143283504Y-88768504D01*
X143316767Y-88718722D01*
X143325500Y-88674820D01*
X143325500Y-87745180D01*
X143325500Y-87745177D01*
X143316768Y-87701282D01*
X143316767Y-87701281D01*
X143316767Y-87701278D01*
X143283504Y-87651496D01*
X143283502Y-87651495D01*
X143278422Y-87643891D01*
X143257544Y-87577213D01*
X143276029Y-87509833D01*
X143278422Y-87506109D01*
X143283502Y-87498504D01*
X143283504Y-87498504D01*
X143316767Y-87448722D01*
X143325500Y-87404820D01*
X143325500Y-86475180D01*
X143325500Y-86475177D01*
X143316768Y-86431282D01*
X143316767Y-86431281D01*
X143316767Y-86431278D01*
X143283504Y-86381496D01*
X143283502Y-86381495D01*
X143278422Y-86373891D01*
X143257544Y-86307213D01*
X143276029Y-86239833D01*
X143278422Y-86236109D01*
X143283502Y-86228504D01*
X143283504Y-86228504D01*
X143316767Y-86178722D01*
X143316768Y-86178717D01*
X143325500Y-86134822D01*
X143325500Y-85205177D01*
X143316768Y-85161282D01*
X143316767Y-85161281D01*
X143316767Y-85161278D01*
X143283504Y-85111496D01*
X143283502Y-85111495D01*
X143278422Y-85103891D01*
X143257544Y-85037213D01*
X143276029Y-84969833D01*
X143278422Y-84966109D01*
X143283502Y-84958504D01*
X143283504Y-84958504D01*
X143316767Y-84908722D01*
X143316768Y-84908717D01*
X143325500Y-84864822D01*
X143325500Y-83957844D01*
X147225000Y-83957844D01*
X147231401Y-84017372D01*
X147231403Y-84017379D01*
X147281645Y-84152086D01*
X147281649Y-84152093D01*
X147367809Y-84267187D01*
X147367812Y-84267190D01*
X147482906Y-84353350D01*
X147482913Y-84353354D01*
X147617620Y-84403596D01*
X147617627Y-84403598D01*
X147677155Y-84409999D01*
X147677172Y-84410000D01*
X149425000Y-84410000D01*
X149425000Y-83263554D01*
X149925000Y-83263554D01*
X149925000Y-84410000D01*
X151672828Y-84410000D01*
X151672844Y-84409999D01*
X151732372Y-84403598D01*
X151732379Y-84403596D01*
X151867086Y-84353354D01*
X151867093Y-84353350D01*
X151982187Y-84267190D01*
X151982190Y-84267187D01*
X152068350Y-84152093D01*
X152068354Y-84152086D01*
X152118596Y-84017379D01*
X152118598Y-84017372D01*
X152124999Y-83957844D01*
X152125000Y-83957827D01*
X152125000Y-82210000D01*
X150978553Y-82210000D01*
X151089280Y-82320726D01*
X151089282Y-82320730D01*
X151340871Y-82572318D01*
X151374356Y-82633641D01*
X151369372Y-82703332D01*
X151340871Y-82747680D01*
X151111560Y-82976990D01*
X151111548Y-82977006D01*
X150692006Y-83396548D01*
X150691999Y-83396551D01*
X150462680Y-83625871D01*
X150401357Y-83659356D01*
X150331665Y-83654372D01*
X150287318Y-83625871D01*
X150035740Y-83374292D01*
X150035725Y-83374280D01*
X150001554Y-83340109D01*
X150275000Y-83340109D01*
X150275000Y-83379891D01*
X150290224Y-83416645D01*
X150318355Y-83444776D01*
X150355109Y-83460000D01*
X150394891Y-83460000D01*
X150431645Y-83444776D01*
X150459776Y-83416645D01*
X150475000Y-83379891D01*
X150475000Y-83340109D01*
X150459776Y-83303355D01*
X150431645Y-83275224D01*
X150394891Y-83260000D01*
X150355109Y-83260000D01*
X150318355Y-83275224D01*
X150290224Y-83303355D01*
X150275000Y-83340109D01*
X150001554Y-83340109D01*
X149925000Y-83263554D01*
X149425000Y-83263554D01*
X149425000Y-83263553D01*
X149292007Y-83396548D01*
X149291998Y-83396552D01*
X149062680Y-83625871D01*
X149001357Y-83659356D01*
X148931665Y-83654372D01*
X148887318Y-83625871D01*
X148635736Y-83374288D01*
X148635726Y-83374280D01*
X148601555Y-83340109D01*
X148875000Y-83340109D01*
X148875000Y-83379891D01*
X148890224Y-83416645D01*
X148918355Y-83444776D01*
X148955109Y-83460000D01*
X148994891Y-83460000D01*
X149031645Y-83444776D01*
X149059776Y-83416645D01*
X149075000Y-83379891D01*
X149075000Y-83340109D01*
X149059776Y-83303355D01*
X149031645Y-83275224D01*
X148994891Y-83260000D01*
X148955109Y-83260000D01*
X148918355Y-83275224D01*
X148890224Y-83303355D01*
X148875000Y-83340109D01*
X148601555Y-83340109D01*
X148219573Y-82958127D01*
X148219571Y-82958124D01*
X148009127Y-82747680D01*
X147975642Y-82686357D01*
X147978949Y-82640109D01*
X148175000Y-82640109D01*
X148175000Y-82679891D01*
X148190224Y-82716645D01*
X148218355Y-82744776D01*
X148255109Y-82760000D01*
X148294891Y-82760000D01*
X148331645Y-82744776D01*
X148359776Y-82716645D01*
X148375000Y-82679891D01*
X148375000Y-82659999D01*
X148628553Y-82659999D01*
X148975000Y-83006446D01*
X149321446Y-82660000D01*
X149301555Y-82640109D01*
X149575000Y-82640109D01*
X149575000Y-82679891D01*
X149590224Y-82716645D01*
X149618355Y-82744776D01*
X149655109Y-82760000D01*
X149694891Y-82760000D01*
X149731645Y-82744776D01*
X149759776Y-82716645D01*
X149775000Y-82679891D01*
X149775000Y-82659999D01*
X150028553Y-82659999D01*
X150375000Y-83006446D01*
X150721446Y-82660000D01*
X150701555Y-82640109D01*
X150975000Y-82640109D01*
X150975000Y-82679891D01*
X150990224Y-82716645D01*
X151018355Y-82744776D01*
X151055109Y-82760000D01*
X151094891Y-82760000D01*
X151131645Y-82744776D01*
X151159776Y-82716645D01*
X151175000Y-82679891D01*
X151175000Y-82640109D01*
X151159776Y-82603355D01*
X151131645Y-82575224D01*
X151094891Y-82560000D01*
X151055109Y-82560000D01*
X151018355Y-82575224D01*
X150990224Y-82603355D01*
X150975000Y-82640109D01*
X150701555Y-82640109D01*
X150411945Y-82350499D01*
X150375000Y-82313553D01*
X150338055Y-82350499D01*
X150338054Y-82350500D01*
X150028553Y-82659999D01*
X149775000Y-82659999D01*
X149775000Y-82640109D01*
X149759776Y-82603355D01*
X149731645Y-82575224D01*
X149694891Y-82560000D01*
X149655109Y-82560000D01*
X149618355Y-82575224D01*
X149590224Y-82603355D01*
X149575000Y-82640109D01*
X149301555Y-82640109D01*
X149011945Y-82350499D01*
X148975000Y-82313553D01*
X148938055Y-82350499D01*
X148938054Y-82350500D01*
X148628553Y-82659999D01*
X148375000Y-82659999D01*
X148375000Y-82640109D01*
X148359776Y-82603355D01*
X148331645Y-82575224D01*
X148294891Y-82560000D01*
X148255109Y-82560000D01*
X148218355Y-82575224D01*
X148190224Y-82603355D01*
X148175000Y-82640109D01*
X147978949Y-82640109D01*
X147980626Y-82616665D01*
X148009127Y-82572318D01*
X148202132Y-82379314D01*
X148371446Y-82210000D01*
X147225000Y-82210000D01*
X147225000Y-83957844D01*
X143325500Y-83957844D01*
X143325500Y-83935177D01*
X143316768Y-83891282D01*
X143316767Y-83891281D01*
X143316767Y-83891278D01*
X143283504Y-83841496D01*
X143283502Y-83841495D01*
X143278422Y-83833891D01*
X143257544Y-83767213D01*
X143276029Y-83699833D01*
X143278422Y-83696109D01*
X143283502Y-83688504D01*
X143283504Y-83688504D01*
X143316767Y-83638722D01*
X143325500Y-83594820D01*
X143325500Y-82665180D01*
X143325500Y-82665177D01*
X143316768Y-82621282D01*
X143316767Y-82621281D01*
X143316767Y-82621278D01*
X143283504Y-82571496D01*
X143283502Y-82571495D01*
X143278422Y-82563891D01*
X143257544Y-82497213D01*
X143276029Y-82429833D01*
X143278422Y-82426109D01*
X143283502Y-82418504D01*
X143283504Y-82418504D01*
X143316767Y-82368722D01*
X143325500Y-82324820D01*
X143325500Y-81940109D01*
X148875000Y-81940109D01*
X148875000Y-81979891D01*
X148890224Y-82016645D01*
X148918355Y-82044776D01*
X148955109Y-82060000D01*
X148994891Y-82060000D01*
X149031645Y-82044776D01*
X149059776Y-82016645D01*
X149075000Y-81979891D01*
X149075000Y-81940109D01*
X150275000Y-81940109D01*
X150275000Y-81979891D01*
X150290224Y-82016645D01*
X150318355Y-82044776D01*
X150355109Y-82060000D01*
X150394891Y-82060000D01*
X150431645Y-82044776D01*
X150459776Y-82016645D01*
X150475000Y-81979891D01*
X150475000Y-81940109D01*
X150459776Y-81903355D01*
X150431645Y-81875224D01*
X150394891Y-81860000D01*
X150355109Y-81860000D01*
X150318355Y-81875224D01*
X150290224Y-81903355D01*
X150275000Y-81940109D01*
X149075000Y-81940109D01*
X149059776Y-81903355D01*
X149031645Y-81875224D01*
X148994891Y-81860000D01*
X148955109Y-81860000D01*
X148918355Y-81875224D01*
X148890224Y-81903355D01*
X148875000Y-81940109D01*
X143325500Y-81940109D01*
X143325500Y-81395180D01*
X143325500Y-81395177D01*
X143316768Y-81351282D01*
X143316767Y-81351281D01*
X143316767Y-81351278D01*
X143283504Y-81301496D01*
X143283502Y-81301495D01*
X143278422Y-81293891D01*
X143257544Y-81227213D01*
X143276029Y-81159833D01*
X143278422Y-81156109D01*
X143283502Y-81148504D01*
X143283504Y-81148504D01*
X143316767Y-81098722D01*
X143325500Y-81054820D01*
X143325500Y-80125180D01*
X143325500Y-80125177D01*
X143316768Y-80081282D01*
X143316767Y-80081281D01*
X143316767Y-80081278D01*
X143283504Y-80031496D01*
X143283502Y-80031495D01*
X143278422Y-80023891D01*
X143259091Y-79962155D01*
X147225000Y-79962155D01*
X147225000Y-81710000D01*
X148371445Y-81710000D01*
X148335481Y-81674036D01*
X148335481Y-81674035D01*
X148219573Y-81558127D01*
X148219571Y-81558124D01*
X148009127Y-81347680D01*
X147975642Y-81286357D01*
X147978949Y-81240109D01*
X148175000Y-81240109D01*
X148175000Y-81279891D01*
X148190224Y-81316645D01*
X148218355Y-81344776D01*
X148255109Y-81360000D01*
X148294891Y-81360000D01*
X148331645Y-81344776D01*
X148359776Y-81316645D01*
X148375000Y-81279891D01*
X148375000Y-81259999D01*
X148628553Y-81259999D01*
X148670050Y-81301495D01*
X148670051Y-81301497D01*
X148975000Y-81606446D01*
X149321446Y-81260000D01*
X149301555Y-81240109D01*
X149575000Y-81240109D01*
X149575000Y-81279891D01*
X149590224Y-81316645D01*
X149618355Y-81344776D01*
X149655109Y-81360000D01*
X149694891Y-81360000D01*
X149731645Y-81344776D01*
X149759776Y-81316645D01*
X149775000Y-81279891D01*
X149775000Y-81259999D01*
X150028553Y-81259999D01*
X150070050Y-81301495D01*
X150070051Y-81301497D01*
X150375000Y-81606446D01*
X150721446Y-81260000D01*
X150701555Y-81240109D01*
X150975000Y-81240109D01*
X150975000Y-81279891D01*
X150990224Y-81316645D01*
X151018355Y-81344776D01*
X151055109Y-81360000D01*
X151094891Y-81360000D01*
X151131645Y-81344776D01*
X151159776Y-81316645D01*
X151175000Y-81279891D01*
X151175000Y-81240109D01*
X151159776Y-81203355D01*
X151131645Y-81175224D01*
X151094891Y-81160000D01*
X151055109Y-81160000D01*
X151018355Y-81175224D01*
X150990224Y-81203355D01*
X150975000Y-81240109D01*
X150701555Y-81240109D01*
X150425108Y-80963662D01*
X150375000Y-80913553D01*
X150324892Y-80963662D01*
X150324891Y-80963663D01*
X150028553Y-81259999D01*
X149775000Y-81259999D01*
X149775000Y-81240109D01*
X149759776Y-81203355D01*
X149731645Y-81175224D01*
X149694891Y-81160000D01*
X149655109Y-81160000D01*
X149618355Y-81175224D01*
X149590224Y-81203355D01*
X149575000Y-81240109D01*
X149301555Y-81240109D01*
X149025108Y-80963662D01*
X148975000Y-80913553D01*
X148924892Y-80963662D01*
X148924891Y-80963663D01*
X148628553Y-81259999D01*
X148375000Y-81259999D01*
X148375000Y-81240109D01*
X148359776Y-81203355D01*
X148331645Y-81175224D01*
X148294891Y-81160000D01*
X148255109Y-81160000D01*
X148218355Y-81175224D01*
X148190224Y-81203355D01*
X148175000Y-81240109D01*
X147978949Y-81240109D01*
X147980626Y-81216665D01*
X148009127Y-81172318D01*
X148202132Y-80979314D01*
X148641337Y-80540109D01*
X148875000Y-80540109D01*
X148875000Y-80579891D01*
X148890224Y-80616645D01*
X148918355Y-80644776D01*
X148955109Y-80660000D01*
X148994891Y-80660000D01*
X149031645Y-80644776D01*
X149059776Y-80616645D01*
X149075000Y-80579891D01*
X149075000Y-80540109D01*
X149059776Y-80503355D01*
X149031645Y-80475224D01*
X148994891Y-80460000D01*
X148955109Y-80460000D01*
X148918355Y-80475224D01*
X148890224Y-80503355D01*
X148875000Y-80540109D01*
X148641337Y-80540109D01*
X148694314Y-80487132D01*
X148887318Y-80294127D01*
X148948641Y-80260642D01*
X149018332Y-80265626D01*
X149062680Y-80294127D01*
X149273121Y-80504568D01*
X149273127Y-80504573D01*
X149410816Y-80642262D01*
X149410817Y-80642262D01*
X149425000Y-80656445D01*
X149425000Y-80656444D01*
X149925000Y-80656444D01*
X149939183Y-80642262D01*
X149939184Y-80642262D01*
X150041337Y-80540109D01*
X150275000Y-80540109D01*
X150275000Y-80579891D01*
X150290224Y-80616645D01*
X150318355Y-80644776D01*
X150355109Y-80660000D01*
X150394891Y-80660000D01*
X150431645Y-80644776D01*
X150459776Y-80616645D01*
X150475000Y-80579891D01*
X150475000Y-80540109D01*
X150459776Y-80503355D01*
X150431645Y-80475224D01*
X150394891Y-80460000D01*
X150355109Y-80460000D01*
X150318355Y-80475224D01*
X150290224Y-80503355D01*
X150275000Y-80540109D01*
X150041337Y-80540109D01*
X150094314Y-80487132D01*
X150287318Y-80294127D01*
X150348641Y-80260642D01*
X150418332Y-80265626D01*
X150462680Y-80294127D01*
X150673121Y-80504568D01*
X150673127Y-80504573D01*
X151089280Y-80920726D01*
X151089282Y-80920730D01*
X151340871Y-81172318D01*
X151374356Y-81233641D01*
X151369372Y-81303332D01*
X151340871Y-81347680D01*
X151111560Y-81576990D01*
X151111548Y-81577006D01*
X151014519Y-81674035D01*
X151014519Y-81674036D01*
X150978555Y-81710000D01*
X152125000Y-81710000D01*
X152125000Y-79962172D01*
X152124999Y-79962155D01*
X152118598Y-79902627D01*
X152118596Y-79902620D01*
X152068354Y-79767913D01*
X152068350Y-79767906D01*
X151982190Y-79652812D01*
X151982187Y-79652809D01*
X151867093Y-79566649D01*
X151867086Y-79566645D01*
X151732379Y-79516403D01*
X151732372Y-79516401D01*
X151672844Y-79510000D01*
X149925000Y-79510000D01*
X149925000Y-80656444D01*
X149425000Y-80656444D01*
X149425000Y-79510000D01*
X147677155Y-79510000D01*
X147617627Y-79516401D01*
X147617620Y-79516403D01*
X147482913Y-79566645D01*
X147482906Y-79566649D01*
X147367812Y-79652809D01*
X147367809Y-79652812D01*
X147281649Y-79767906D01*
X147281645Y-79767913D01*
X147231403Y-79902620D01*
X147231401Y-79902627D01*
X147225000Y-79962155D01*
X143259091Y-79962155D01*
X143257544Y-79957213D01*
X143276029Y-79889833D01*
X143278422Y-79886109D01*
X143283502Y-79878504D01*
X143283504Y-79878504D01*
X143316767Y-79828722D01*
X143325500Y-79784820D01*
X143325500Y-78855180D01*
X143325500Y-78855177D01*
X143316768Y-78811282D01*
X143316767Y-78811281D01*
X143316767Y-78811278D01*
X143283504Y-78761496D01*
X143283502Y-78761495D01*
X143278422Y-78753891D01*
X143257544Y-78687213D01*
X143276029Y-78619833D01*
X143278422Y-78616109D01*
X143283502Y-78608504D01*
X143283504Y-78608504D01*
X143316767Y-78558722D01*
X143325500Y-78514820D01*
X143325500Y-77585180D01*
X143325500Y-77585177D01*
X143316768Y-77541282D01*
X143316767Y-77541281D01*
X143316767Y-77541278D01*
X143283504Y-77491496D01*
X143283502Y-77491495D01*
X143278422Y-77483891D01*
X143257544Y-77417213D01*
X143276029Y-77349833D01*
X143278422Y-77346109D01*
X143283502Y-77338504D01*
X143283504Y-77338504D01*
X143316767Y-77288722D01*
X143325500Y-77244820D01*
X143325500Y-76315180D01*
X143325500Y-76315177D01*
X143316768Y-76271282D01*
X143316767Y-76271281D01*
X143316767Y-76271278D01*
X143283504Y-76221496D01*
X143283502Y-76221495D01*
X143278422Y-76213891D01*
X143257544Y-76147213D01*
X143276029Y-76079833D01*
X143278422Y-76076109D01*
X143283502Y-76068504D01*
X143283504Y-76068504D01*
X143316767Y-76018722D01*
X143325500Y-75974820D01*
X143325500Y-75253608D01*
X143345185Y-75186569D01*
X143397989Y-75140814D01*
X143406171Y-75137425D01*
X143417089Y-75133353D01*
X143417091Y-75133351D01*
X143532187Y-75047190D01*
X143532190Y-75047187D01*
X143618350Y-74932093D01*
X143618354Y-74932086D01*
X143668596Y-74797379D01*
X143668598Y-74797372D01*
X143674999Y-74737844D01*
X143675000Y-74737827D01*
X143675000Y-74490000D01*
X141175000Y-74490000D01*
X141175000Y-74737844D01*
X141181401Y-74797372D01*
X141181403Y-74797379D01*
X141231645Y-74932086D01*
X141231649Y-74932093D01*
X141317809Y-75047187D01*
X141317812Y-75047190D01*
X141432908Y-75133351D01*
X141432910Y-75133353D01*
X141443829Y-75137425D01*
X141499764Y-75179294D01*
X141524184Y-75244757D01*
X141524500Y-75253608D01*
X141524500Y-75974820D01*
X141524500Y-75974822D01*
X141524499Y-75974822D01*
X141535615Y-76030700D01*
X141531335Y-76031551D01*
X141536285Y-76077490D01*
X141505024Y-76139976D01*
X141444943Y-76175641D01*
X141414250Y-76179500D01*
X135306670Y-76179500D01*
X135306654Y-76179499D01*
X135299058Y-76179499D01*
X135140943Y-76179499D01*
X135064579Y-76199961D01*
X134988214Y-76220423D01*
X134988209Y-76220426D01*
X134851290Y-76299475D01*
X134851286Y-76299478D01*
X134533176Y-76617587D01*
X134471853Y-76651071D01*
X134432242Y-76653195D01*
X134419053Y-76651777D01*
X134397873Y-76649500D01*
X134397870Y-76649500D01*
X134091496Y-76649500D01*
X134024457Y-76629815D01*
X133984108Y-76587499D01*
X133980520Y-76581284D01*
X133980518Y-76581282D01*
X131141390Y-73742155D01*
X141175000Y-73742155D01*
X141175000Y-73990000D01*
X142175000Y-73990000D01*
X142675000Y-73990000D01*
X143675000Y-73990000D01*
X143675000Y-73742172D01*
X143674999Y-73742155D01*
X158675000Y-73742155D01*
X158675000Y-73990000D01*
X159675000Y-73990000D01*
X160175000Y-73990000D01*
X161175000Y-73990000D01*
X161175000Y-73742172D01*
X161174999Y-73742155D01*
X161168598Y-73682627D01*
X161168596Y-73682620D01*
X161118354Y-73547913D01*
X161118350Y-73547906D01*
X161032190Y-73432812D01*
X161032187Y-73432809D01*
X160917093Y-73346649D01*
X160917086Y-73346645D01*
X160782379Y-73296403D01*
X160782372Y-73296401D01*
X160722844Y-73290000D01*
X160175000Y-73290000D01*
X160175000Y-73990000D01*
X159675000Y-73990000D01*
X159675000Y-73290000D01*
X159127155Y-73290000D01*
X159067627Y-73296401D01*
X159067620Y-73296403D01*
X158932913Y-73346645D01*
X158932906Y-73346649D01*
X158817812Y-73432809D01*
X158817809Y-73432812D01*
X158731649Y-73547906D01*
X158731645Y-73547913D01*
X158681403Y-73682620D01*
X158681401Y-73682627D01*
X158675000Y-73742155D01*
X143674999Y-73742155D01*
X143668598Y-73682627D01*
X143668596Y-73682620D01*
X143618354Y-73547913D01*
X143618350Y-73547906D01*
X143532190Y-73432812D01*
X143532187Y-73432809D01*
X143417093Y-73346649D01*
X143417086Y-73346645D01*
X143282379Y-73296403D01*
X143282372Y-73296401D01*
X143222844Y-73290000D01*
X142675000Y-73290000D01*
X142675000Y-73990000D01*
X142175000Y-73990000D01*
X142175000Y-73290000D01*
X141627155Y-73290000D01*
X141567627Y-73296401D01*
X141567620Y-73296403D01*
X141432913Y-73346645D01*
X141432906Y-73346649D01*
X141317812Y-73432809D01*
X141317809Y-73432812D01*
X141231649Y-73547906D01*
X141231645Y-73547913D01*
X141181403Y-73682620D01*
X141181401Y-73682627D01*
X141175000Y-73742155D01*
X131141390Y-73742155D01*
X130537590Y-73138355D01*
X130537588Y-73138352D01*
X130418717Y-73019481D01*
X130418712Y-73019477D01*
X130352737Y-72981387D01*
X130304522Y-72930821D01*
X130291298Y-72862214D01*
X130317266Y-72797349D01*
X130374180Y-72756820D01*
X130414737Y-72750000D01*
X175175000Y-72750000D01*
X175175000Y-51750000D01*
X127175000Y-51750000D01*
X127175000Y-72775500D01*
X127155315Y-72842539D01*
X127102511Y-72888294D01*
X127051000Y-72899500D01*
X126582412Y-72899500D01*
X126515373Y-72879815D01*
X126505097Y-72872445D01*
X126502263Y-72870185D01*
X126502262Y-72870184D01*
X126386346Y-72797349D01*
X126349523Y-72774211D01*
X126179254Y-72714631D01*
X126179249Y-72714630D01*
X126000004Y-72694435D01*
X125999996Y-72694435D01*
X125820750Y-72714630D01*
X125820745Y-72714631D01*
X125650476Y-72774211D01*
X125497736Y-72870185D01*
X125494903Y-72872445D01*
X125492724Y-72873334D01*
X125491842Y-72873889D01*
X125491744Y-72873734D01*
X125430217Y-72898855D01*
X125417588Y-72899500D01*
X122086669Y-72899500D01*
X122086653Y-72899499D01*
X122079057Y-72899499D01*
X121920943Y-72899499D01*
X121813587Y-72928265D01*
X121768210Y-72940424D01*
X121768209Y-72940425D01*
X121733066Y-72960716D01*
X121733064Y-72960717D01*
X121631290Y-73019475D01*
X121631282Y-73019481D01*
X121519478Y-73131286D01*
X118853548Y-75797215D01*
X118792225Y-75830700D01*
X118725604Y-75826815D01*
X118619616Y-75790429D01*
X118374335Y-75749500D01*
X118125665Y-75749500D01*
X117880383Y-75790429D01*
X117645197Y-75871169D01*
X117645188Y-75871172D01*
X117426493Y-75989524D01*
X117230257Y-76142261D01*
X117061833Y-76325217D01*
X116925827Y-76533391D01*
X116907440Y-76575311D01*
X116862483Y-76628796D01*
X116795747Y-76649486D01*
X116793884Y-76649500D01*
X113206116Y-76649500D01*
X113139077Y-76629815D01*
X113093322Y-76577011D01*
X113092560Y-76575311D01*
X113074172Y-76533391D01*
X112938166Y-76325217D01*
X112888512Y-76271279D01*
X112769744Y-76142262D01*
X112573509Y-75989526D01*
X112573507Y-75989525D01*
X112573506Y-75989524D01*
X112354811Y-75871172D01*
X112354802Y-75871169D01*
X112119616Y-75790429D01*
X111874335Y-75749500D01*
X111625665Y-75749500D01*
X111380383Y-75790429D01*
X111145197Y-75871169D01*
X111145188Y-75871172D01*
X110926493Y-75989524D01*
X110730257Y-76142261D01*
X110561833Y-76325217D01*
X110425826Y-76533393D01*
X110325936Y-76761118D01*
X110264892Y-77002175D01*
X110264890Y-77002187D01*
X110244357Y-77249994D01*
X110244357Y-77250005D01*
X110264890Y-77497812D01*
X110264892Y-77497824D01*
X110325936Y-77738881D01*
X110425826Y-77966606D01*
X110561833Y-78174782D01*
X110561836Y-78174785D01*
X110730256Y-78357738D01*
X110926491Y-78510474D01*
X111035840Y-78569651D01*
X111107634Y-78608504D01*
X111145190Y-78628828D01*
X111380386Y-78709571D01*
X111625665Y-78750500D01*
X111874335Y-78750500D01*
X112119614Y-78709571D01*
X112354810Y-78628828D01*
X112573509Y-78510474D01*
X112769744Y-78357738D01*
X112938164Y-78174785D01*
X113074173Y-77966607D01*
X113092560Y-77924689D01*
X113137517Y-77871204D01*
X113204253Y-77850514D01*
X113206116Y-77850500D01*
X116793884Y-77850500D01*
X116860923Y-77870185D01*
X116906678Y-77922989D01*
X116907440Y-77924689D01*
X116925827Y-77966608D01*
X117061833Y-78174782D01*
X117061836Y-78174785D01*
X117230256Y-78357738D01*
X117426491Y-78510474D01*
X117535840Y-78569651D01*
X117607634Y-78608504D01*
X117645190Y-78628828D01*
X117880386Y-78709571D01*
X118125665Y-78750500D01*
X118374335Y-78750500D01*
X118619614Y-78709571D01*
X118854810Y-78628828D01*
X119073509Y-78510474D01*
X119269744Y-78357738D01*
X119438164Y-78174785D01*
X119574173Y-77966607D01*
X119674063Y-77738881D01*
X119735108Y-77497821D01*
X119735721Y-77490423D01*
X119755643Y-77250005D01*
X119755643Y-77249994D01*
X119735109Y-77002187D01*
X119735108Y-77002183D01*
X119735108Y-77002179D01*
X119714346Y-76920194D01*
X119681997Y-76792448D01*
X119674063Y-76761119D01*
X119674062Y-76761118D01*
X119673992Y-76760839D01*
X119676616Y-76691018D01*
X119706514Y-76642719D01*
X122212416Y-74136819D01*
X122273739Y-74103334D01*
X122300097Y-74100500D01*
X125417588Y-74100500D01*
X125484627Y-74120185D01*
X125494903Y-74127555D01*
X125497736Y-74129814D01*
X125497738Y-74129816D01*
X125650478Y-74225789D01*
X125820745Y-74285368D01*
X125820750Y-74285369D01*
X125999996Y-74305565D01*
X126000000Y-74305565D01*
X126000004Y-74305565D01*
X126179249Y-74285369D01*
X126179252Y-74285368D01*
X126179255Y-74285368D01*
X126349522Y-74225789D01*
X126502262Y-74129816D01*
X126502267Y-74129810D01*
X126505097Y-74127555D01*
X126507275Y-74126665D01*
X126508158Y-74126111D01*
X126508255Y-74126265D01*
X126569783Y-74101145D01*
X126582412Y-74100500D01*
X129749903Y-74100500D01*
X129816942Y-74120185D01*
X129837584Y-74136819D01*
X130289084Y-74588319D01*
X130322569Y-74649642D01*
X130317585Y-74719334D01*
X130285213Y-74762575D01*
X130286319Y-74763681D01*
X130278631Y-74771368D01*
X130275713Y-74775267D01*
X130274150Y-74775849D01*
X130250000Y-74800000D01*
X130250000Y-75750000D01*
X131099999Y-75750000D01*
X131099999Y-75698597D01*
X131119684Y-75631558D01*
X131172488Y-75585803D01*
X131241646Y-75575859D01*
X131305202Y-75604884D01*
X131311680Y-75610916D01*
X132306079Y-76605315D01*
X132339564Y-76666638D01*
X132334580Y-76736330D01*
X132297889Y-76785341D01*
X132298728Y-76786180D01*
X132292895Y-76792013D01*
X132292709Y-76792262D01*
X132292460Y-76792448D01*
X132292451Y-76792457D01*
X132206206Y-76907664D01*
X132206202Y-76907671D01*
X132155908Y-77042517D01*
X132149501Y-77102116D01*
X132149500Y-77102135D01*
X132149500Y-78897870D01*
X132149501Y-78897876D01*
X132155908Y-78957483D01*
X132206202Y-79092328D01*
X132206206Y-79092335D01*
X132292452Y-79207544D01*
X132292455Y-79207547D01*
X132407664Y-79293793D01*
X132407671Y-79293797D01*
X132539081Y-79342810D01*
X132595015Y-79384681D01*
X132619432Y-79450145D01*
X132604580Y-79518418D01*
X132583430Y-79546673D01*
X132461503Y-79668600D01*
X132325965Y-79862169D01*
X132325964Y-79862171D01*
X132226098Y-80076335D01*
X132226094Y-80076344D01*
X132164938Y-80304586D01*
X132164936Y-80304596D01*
X132144341Y-80539999D01*
X132144341Y-80540000D01*
X132164936Y-80775403D01*
X132164938Y-80775413D01*
X132226094Y-81003655D01*
X132226096Y-81003659D01*
X132226097Y-81003663D01*
X132313221Y-81190500D01*
X132325965Y-81217830D01*
X132325967Y-81217834D01*
X132461501Y-81411395D01*
X132461506Y-81411402D01*
X132628597Y-81578493D01*
X132628603Y-81578498D01*
X132814158Y-81708425D01*
X132857783Y-81763002D01*
X132864977Y-81832500D01*
X132833454Y-81894855D01*
X132814158Y-81911575D01*
X132628597Y-82041505D01*
X132461505Y-82208597D01*
X132325965Y-82402169D01*
X132325964Y-82402171D01*
X132226098Y-82616335D01*
X132226094Y-82616344D01*
X132164938Y-82844586D01*
X132164936Y-82844596D01*
X132144341Y-83079999D01*
X132144341Y-83080000D01*
X132164936Y-83315403D01*
X132164938Y-83315413D01*
X132226094Y-83543655D01*
X132226096Y-83543659D01*
X132226097Y-83543663D01*
X132313221Y-83730500D01*
X132325965Y-83757830D01*
X132325967Y-83757834D01*
X132403603Y-83868709D01*
X132461505Y-83951401D01*
X132628599Y-84118495D01*
X132676572Y-84152086D01*
X132822165Y-84254032D01*
X132822167Y-84254033D01*
X132822170Y-84254035D01*
X133036337Y-84353903D01*
X133264592Y-84415063D01*
X133452918Y-84431539D01*
X133499999Y-84435659D01*
X133500000Y-84435659D01*
X133500001Y-84435659D01*
X133539234Y-84432226D01*
X133735408Y-84415063D01*
X133963663Y-84353903D01*
X134177830Y-84254035D01*
X134371401Y-84118495D01*
X134538495Y-83951401D01*
X134674035Y-83757830D01*
X134773903Y-83543663D01*
X134835063Y-83315408D01*
X134855659Y-83080000D01*
X134835063Y-82844592D01*
X134800671Y-82716239D01*
X134802334Y-82646393D01*
X134832763Y-82596470D01*
X137472416Y-79956819D01*
X137533739Y-79923334D01*
X137560097Y-79920500D01*
X141414250Y-79920500D01*
X141481289Y-79940185D01*
X141527044Y-79992989D01*
X141536988Y-80062147D01*
X141535055Y-80069188D01*
X141535615Y-80069300D01*
X141524500Y-80125177D01*
X141524500Y-80125180D01*
X141524500Y-81054820D01*
X141524500Y-81054822D01*
X141524499Y-81054822D01*
X141533231Y-81098717D01*
X141533232Y-81098720D01*
X141571578Y-81156110D01*
X141592455Y-81222788D01*
X141573970Y-81290168D01*
X141571578Y-81293890D01*
X141533232Y-81351279D01*
X141533231Y-81351282D01*
X141524500Y-81395177D01*
X141524500Y-81395180D01*
X141524500Y-82324820D01*
X141524500Y-82324822D01*
X141524499Y-82324822D01*
X141533231Y-82368717D01*
X141533232Y-82368720D01*
X141533232Y-82368721D01*
X141533233Y-82368722D01*
X141541310Y-82380810D01*
X141571578Y-82426110D01*
X141592455Y-82492788D01*
X141573970Y-82560168D01*
X141571578Y-82563890D01*
X141533232Y-82621279D01*
X141533231Y-82621282D01*
X141524500Y-82665177D01*
X141524500Y-82665180D01*
X141524500Y-83594820D01*
X141524500Y-83594822D01*
X141524499Y-83594822D01*
X141533231Y-83638717D01*
X141533232Y-83638720D01*
X141571578Y-83696110D01*
X141592455Y-83762788D01*
X141573970Y-83830168D01*
X141571578Y-83833890D01*
X141533232Y-83891279D01*
X141533231Y-83891282D01*
X141524500Y-83935177D01*
X141524500Y-83935180D01*
X141524500Y-84864820D01*
X141524500Y-84864822D01*
X141524499Y-84864822D01*
X141533231Y-84908717D01*
X141533232Y-84908720D01*
X141571578Y-84966110D01*
X141592455Y-85032788D01*
X141573970Y-85100168D01*
X141571578Y-85103890D01*
X141533232Y-85161279D01*
X141533231Y-85161282D01*
X141524500Y-85205177D01*
X141524500Y-85205180D01*
X141524500Y-86134820D01*
X141524500Y-86134822D01*
X141524499Y-86134822D01*
X141535615Y-86190700D01*
X141531335Y-86191551D01*
X141536285Y-86237490D01*
X141505024Y-86299976D01*
X141444943Y-86335641D01*
X141414250Y-86339500D01*
X139240099Y-86339500D01*
X139173060Y-86319815D01*
X139152418Y-86303181D01*
X139136818Y-86287581D01*
X139103333Y-86226258D01*
X139100499Y-86199900D01*
X139100499Y-85499998D01*
X139100498Y-85499981D01*
X139089999Y-85397203D01*
X139089998Y-85397200D01*
X139085818Y-85384586D01*
X139034814Y-85230666D01*
X138942712Y-85081344D01*
X138818656Y-84957288D01*
X138669334Y-84865186D01*
X138669332Y-84865185D01*
X138663187Y-84861395D01*
X138664290Y-84859605D01*
X138619649Y-84820290D01*
X138600500Y-84754091D01*
X138600500Y-84300097D01*
X138620185Y-84233058D01*
X138636819Y-84212416D01*
X138771130Y-84078105D01*
X138980520Y-83868716D01*
X139059577Y-83731784D01*
X139100501Y-83579057D01*
X139100501Y-83579054D01*
X139101562Y-83570998D01*
X139103766Y-83571288D01*
X139120186Y-83515371D01*
X139127559Y-83505091D01*
X139129809Y-83502268D01*
X139129816Y-83502262D01*
X139225789Y-83349522D01*
X139285368Y-83179255D01*
X139285369Y-83179249D01*
X139305565Y-83000003D01*
X139305565Y-82999996D01*
X139285369Y-82820750D01*
X139285368Y-82820745D01*
X139274610Y-82790000D01*
X139225789Y-82650478D01*
X139207441Y-82621278D01*
X139129815Y-82497737D01*
X139002262Y-82370184D01*
X138849523Y-82274211D01*
X138679254Y-82214631D01*
X138679249Y-82214630D01*
X138500004Y-82194435D01*
X138499996Y-82194435D01*
X138320750Y-82214630D01*
X138320745Y-82214631D01*
X138150476Y-82274211D01*
X137997737Y-82370184D01*
X137870184Y-82497737D01*
X137774211Y-82650476D01*
X137714631Y-82820745D01*
X137714630Y-82820750D01*
X137694435Y-82999996D01*
X137694435Y-83000003D01*
X137714630Y-83179249D01*
X137714633Y-83179262D01*
X137755483Y-83296003D01*
X137759045Y-83365782D01*
X137726124Y-83424639D01*
X137631285Y-83519478D01*
X137631284Y-83519479D01*
X137624218Y-83526546D01*
X137624217Y-83526546D01*
X137624214Y-83526548D01*
X137624215Y-83526549D01*
X137519479Y-83631285D01*
X137506150Y-83654372D01*
X137485825Y-83689577D01*
X137468803Y-83719060D01*
X137441002Y-83767213D01*
X137440423Y-83768215D01*
X137399499Y-83920943D01*
X137399499Y-83920945D01*
X137399499Y-84089046D01*
X137399500Y-84089059D01*
X137399500Y-84754091D01*
X137379815Y-84821130D01*
X137335731Y-84859641D01*
X137336813Y-84861395D01*
X137330667Y-84865185D01*
X137330666Y-84865186D01*
X137250567Y-84914591D01*
X137181345Y-84957287D01*
X137087327Y-85051305D01*
X137026003Y-85084789D01*
X136956312Y-85079805D01*
X136911965Y-85051304D01*
X136818345Y-84957684D01*
X136669124Y-84865643D01*
X136669119Y-84865641D01*
X136502697Y-84810494D01*
X136502690Y-84810493D01*
X136399986Y-84800000D01*
X136250000Y-84800000D01*
X136250000Y-87199999D01*
X136399972Y-87199999D01*
X136399986Y-87199998D01*
X136502697Y-87189505D01*
X136669119Y-87134358D01*
X136669124Y-87134356D01*
X136818342Y-87042317D01*
X136911964Y-86948695D01*
X136973287Y-86915210D01*
X137042979Y-86920194D01*
X137087327Y-86948695D01*
X137181344Y-87042712D01*
X137330666Y-87134814D01*
X137497203Y-87189999D01*
X137599991Y-87200500D01*
X138299901Y-87200499D01*
X138366940Y-87220183D01*
X138387582Y-87236818D01*
X138548583Y-87397819D01*
X138582068Y-87459142D01*
X138577084Y-87528834D01*
X138535212Y-87584767D01*
X138469748Y-87609184D01*
X138460902Y-87609500D01*
X134803751Y-87609500D01*
X134736712Y-87589815D01*
X134716070Y-87573181D01*
X133642875Y-86499986D01*
X134900001Y-86499986D01*
X134910494Y-86602697D01*
X134965641Y-86769119D01*
X134965643Y-86769124D01*
X135057684Y-86918345D01*
X135181654Y-87042315D01*
X135330875Y-87134356D01*
X135330880Y-87134358D01*
X135497302Y-87189505D01*
X135497309Y-87189506D01*
X135600019Y-87199999D01*
X135749999Y-87199999D01*
X135750000Y-87199998D01*
X135750000Y-86250000D01*
X134900001Y-86250000D01*
X134900001Y-86499986D01*
X133642875Y-86499986D01*
X132642902Y-85500013D01*
X134900000Y-85500013D01*
X134900000Y-85750000D01*
X135750000Y-85750000D01*
X135750000Y-84800000D01*
X135600027Y-84800000D01*
X135600012Y-84800001D01*
X135497302Y-84810494D01*
X135330880Y-84865641D01*
X135330875Y-84865643D01*
X135181654Y-84957684D01*
X135057684Y-85081654D01*
X134965643Y-85230875D01*
X134965641Y-85230880D01*
X134910494Y-85397302D01*
X134910493Y-85397309D01*
X134900000Y-85500013D01*
X132642902Y-85500013D01*
X125886818Y-78743929D01*
X125853333Y-78682606D01*
X125850499Y-78656248D01*
X125850499Y-77510098D01*
X125870184Y-77443059D01*
X125886818Y-77422417D01*
X126672417Y-76636819D01*
X126733740Y-76603334D01*
X126760098Y-76600500D01*
X126819699Y-76600500D01*
X126886738Y-76620185D01*
X126932493Y-76672989D01*
X126937405Y-76685496D01*
X126965185Y-76769331D01*
X126965187Y-76769336D01*
X126979174Y-76792013D01*
X127057288Y-76918656D01*
X127181344Y-77042712D01*
X127330666Y-77134814D01*
X127497203Y-77189999D01*
X127599991Y-77200500D01*
X128400008Y-77200499D01*
X128400016Y-77200498D01*
X128400019Y-77200498D01*
X128456302Y-77194748D01*
X128502797Y-77189999D01*
X128669334Y-77134814D01*
X128818656Y-77042712D01*
X128912675Y-76948692D01*
X128973994Y-76915210D01*
X129043686Y-76920194D01*
X129088034Y-76948695D01*
X129181654Y-77042315D01*
X129330875Y-77134356D01*
X129330880Y-77134358D01*
X129497302Y-77189505D01*
X129497309Y-77189506D01*
X129600019Y-77199999D01*
X129749999Y-77199999D01*
X130250000Y-77199999D01*
X130399972Y-77199999D01*
X130399986Y-77199998D01*
X130502697Y-77189505D01*
X130669119Y-77134358D01*
X130669124Y-77134356D01*
X130818345Y-77042315D01*
X130942315Y-76918345D01*
X131034356Y-76769124D01*
X131034358Y-76769119D01*
X131089505Y-76602697D01*
X131089506Y-76602690D01*
X131099999Y-76499986D01*
X131100000Y-76499973D01*
X131100000Y-76250000D01*
X130250000Y-76250000D01*
X130250000Y-77199999D01*
X129749999Y-77199999D01*
X129750000Y-77199998D01*
X129750000Y-74800000D01*
X129600027Y-74800000D01*
X129600012Y-74800001D01*
X129497302Y-74810494D01*
X129330880Y-74865641D01*
X129330875Y-74865643D01*
X129181657Y-74957682D01*
X129088034Y-75051305D01*
X129026710Y-75084789D01*
X128957019Y-75079805D01*
X128912672Y-75051304D01*
X128818657Y-74957289D01*
X128818656Y-74957288D01*
X128669334Y-74865186D01*
X128502797Y-74810001D01*
X128502795Y-74810000D01*
X128400010Y-74799500D01*
X127599998Y-74799500D01*
X127599980Y-74799501D01*
X127497203Y-74810000D01*
X127497200Y-74810001D01*
X127330668Y-74865185D01*
X127330663Y-74865187D01*
X127181342Y-74957289D01*
X127057289Y-75081342D01*
X126965187Y-75230663D01*
X126965185Y-75230668D01*
X126937405Y-75314504D01*
X126897632Y-75371949D01*
X126833116Y-75398772D01*
X126819699Y-75399500D01*
X126546670Y-75399500D01*
X126546654Y-75399499D01*
X126539058Y-75399499D01*
X126380943Y-75399499D01*
X126304579Y-75419961D01*
X126228214Y-75440423D01*
X126228209Y-75440426D01*
X126091290Y-75519475D01*
X126091282Y-75519481D01*
X125037582Y-76573181D01*
X124976259Y-76606666D01*
X124949901Y-76609500D01*
X123602129Y-76609500D01*
X123602123Y-76609501D01*
X123542516Y-76615908D01*
X123407671Y-76666202D01*
X123407664Y-76666206D01*
X123292455Y-76752452D01*
X123292452Y-76752455D01*
X123206206Y-76867664D01*
X123206202Y-76867671D01*
X123155908Y-77002517D01*
X123149501Y-77062116D01*
X123149500Y-77062135D01*
X123149500Y-78409902D01*
X123129815Y-78476941D01*
X123113181Y-78497583D01*
X120497584Y-81113181D01*
X120436261Y-81146666D01*
X120409903Y-81149500D01*
X119706116Y-81149500D01*
X119639077Y-81129815D01*
X119593322Y-81077011D01*
X119592560Y-81075311D01*
X119574172Y-81033391D01*
X119438166Y-80825217D01*
X119355495Y-80735413D01*
X119269744Y-80642262D01*
X119073509Y-80489526D01*
X119073507Y-80489525D01*
X119073506Y-80489524D01*
X118854811Y-80371172D01*
X118854802Y-80371169D01*
X118619616Y-80290429D01*
X118374335Y-80249500D01*
X118125665Y-80249500D01*
X117880383Y-80290429D01*
X117645197Y-80371169D01*
X117645188Y-80371172D01*
X117426493Y-80489524D01*
X117230257Y-80642261D01*
X117061833Y-80825217D01*
X116925827Y-81033391D01*
X116907440Y-81075311D01*
X116862483Y-81128796D01*
X116795747Y-81149486D01*
X116793884Y-81149500D01*
X113206116Y-81149500D01*
X113139077Y-81129815D01*
X113093322Y-81077011D01*
X113092560Y-81075311D01*
X113074172Y-81033391D01*
X112938166Y-80825217D01*
X112855495Y-80735413D01*
X112769744Y-80642262D01*
X112573509Y-80489526D01*
X112573507Y-80489525D01*
X112573506Y-80489524D01*
X112354811Y-80371172D01*
X112354802Y-80371169D01*
X112119616Y-80290429D01*
X111874335Y-80249500D01*
X111625665Y-80249500D01*
X111380383Y-80290429D01*
X111145197Y-80371169D01*
X111145188Y-80371172D01*
X110926493Y-80489524D01*
X110730257Y-80642261D01*
X110561833Y-80825217D01*
X110425826Y-81033393D01*
X110325936Y-81261118D01*
X110264892Y-81502175D01*
X110264890Y-81502187D01*
X110244357Y-81749994D01*
X110244357Y-81750005D01*
X110264890Y-81997812D01*
X110264892Y-81997824D01*
X110325936Y-82238881D01*
X110425826Y-82466606D01*
X110561833Y-82674782D01*
X110561836Y-82674785D01*
X110730256Y-82857738D01*
X110926491Y-83010474D01*
X111145190Y-83128828D01*
X111380386Y-83209571D01*
X111625665Y-83250500D01*
X111874335Y-83250500D01*
X112119614Y-83209571D01*
X112354810Y-83128828D01*
X112573509Y-83010474D01*
X112769744Y-82857738D01*
X112938164Y-82674785D01*
X112947824Y-82660000D01*
X112952238Y-82653242D01*
X113074173Y-82466607D01*
X113088652Y-82433596D01*
X113092560Y-82424689D01*
X113137517Y-82371204D01*
X113204253Y-82350514D01*
X113206116Y-82350500D01*
X116793884Y-82350500D01*
X116860923Y-82370185D01*
X116906678Y-82422989D01*
X116907440Y-82424689D01*
X116925827Y-82466608D01*
X117061833Y-82674782D01*
X117061836Y-82674785D01*
X117230256Y-82857738D01*
X117426491Y-83010474D01*
X117645190Y-83128828D01*
X117880386Y-83209571D01*
X118125665Y-83250500D01*
X118374335Y-83250500D01*
X118619614Y-83209571D01*
X118854810Y-83128828D01*
X119073509Y-83010474D01*
X119269744Y-82857738D01*
X119438164Y-82674785D01*
X119447824Y-82660000D01*
X119452238Y-82653242D01*
X119574173Y-82466607D01*
X119588652Y-82433596D01*
X119592560Y-82424689D01*
X119637517Y-82371204D01*
X119704253Y-82350514D01*
X119706116Y-82350500D01*
X120623331Y-82350500D01*
X120623347Y-82350501D01*
X120630943Y-82350501D01*
X120789054Y-82350501D01*
X120789057Y-82350501D01*
X120941785Y-82309577D01*
X121003040Y-82274211D01*
X121078716Y-82230520D01*
X121190520Y-82118716D01*
X121190520Y-82118714D01*
X121200724Y-82108511D01*
X121200728Y-82108506D01*
X122935570Y-80373663D01*
X122996891Y-80340180D01*
X123066583Y-80345164D01*
X123122516Y-80387036D01*
X123146933Y-80452500D01*
X123146777Y-80472153D01*
X123144341Y-80499997D01*
X123144341Y-80500000D01*
X123164936Y-80735403D01*
X123164938Y-80735413D01*
X123226094Y-80963655D01*
X123226096Y-80963660D01*
X123226097Y-80963663D01*
X123315836Y-81156109D01*
X123325965Y-81177830D01*
X123325967Y-81177834D01*
X123423164Y-81316645D01*
X123447415Y-81351279D01*
X123461501Y-81371395D01*
X123461506Y-81371402D01*
X123628597Y-81538493D01*
X123628603Y-81538498D01*
X123814594Y-81668730D01*
X123858219Y-81723307D01*
X123865413Y-81792805D01*
X123833890Y-81855160D01*
X123814595Y-81871880D01*
X123628922Y-82001890D01*
X123628920Y-82001891D01*
X123461891Y-82168920D01*
X123461886Y-82168926D01*
X123326400Y-82362420D01*
X123326399Y-82362422D01*
X123226570Y-82576507D01*
X123226567Y-82576513D01*
X123169364Y-82789999D01*
X123169364Y-82790000D01*
X124066988Y-82790000D01*
X124034075Y-82847007D01*
X124000000Y-82974174D01*
X124000000Y-83105826D01*
X124034075Y-83232993D01*
X124066988Y-83290000D01*
X123169364Y-83290000D01*
X123226567Y-83503486D01*
X123226570Y-83503492D01*
X123326399Y-83717578D01*
X123461894Y-83911082D01*
X123628917Y-84078105D01*
X123822421Y-84213600D01*
X124036507Y-84313429D01*
X124036516Y-84313433D01*
X124250000Y-84370634D01*
X124250000Y-83473012D01*
X124307007Y-83505925D01*
X124434174Y-83540000D01*
X124565826Y-83540000D01*
X124692993Y-83505925D01*
X124750000Y-83473012D01*
X124750000Y-84370633D01*
X124963483Y-84313433D01*
X124963492Y-84313429D01*
X125177578Y-84213600D01*
X125371082Y-84078105D01*
X125538105Y-83911082D01*
X125673600Y-83717578D01*
X125773429Y-83503492D01*
X125773432Y-83503486D01*
X125830636Y-83290000D01*
X124933012Y-83290000D01*
X124965925Y-83232993D01*
X125000000Y-83105826D01*
X125000000Y-82974174D01*
X124965925Y-82847007D01*
X124933012Y-82790000D01*
X125889403Y-82790000D01*
X125956442Y-82809685D01*
X125977084Y-82826319D01*
X129669298Y-86518533D01*
X129702783Y-86579856D01*
X129704837Y-86592330D01*
X129714630Y-86679249D01*
X129774210Y-86849521D01*
X129840527Y-86955063D01*
X129870184Y-87002262D01*
X129997738Y-87129816D01*
X130150478Y-87225789D01*
X130252557Y-87261508D01*
X130320745Y-87285368D01*
X130320750Y-87285369D01*
X130499996Y-87305565D01*
X130500000Y-87305565D01*
X130500004Y-87305565D01*
X130679249Y-87285369D01*
X130679252Y-87285368D01*
X130679255Y-87285368D01*
X130849522Y-87225789D01*
X131002262Y-87129816D01*
X131129816Y-87002262D01*
X131225789Y-86849522D01*
X131285368Y-86679255D01*
X131287707Y-86658495D01*
X131305565Y-86500003D01*
X131305565Y-86499996D01*
X131285369Y-86320750D01*
X131285368Y-86320745D01*
X131273763Y-86287581D01*
X131225789Y-86150478D01*
X131187275Y-86089184D01*
X131168276Y-86021949D01*
X131188644Y-85955113D01*
X131241911Y-85909899D01*
X131311168Y-85900661D01*
X131374424Y-85930333D01*
X131379951Y-85935532D01*
X134018793Y-88574374D01*
X134018803Y-88574385D01*
X134023133Y-88578715D01*
X134023134Y-88578716D01*
X134134938Y-88690520D01*
X134183785Y-88718721D01*
X134221749Y-88740639D01*
X134221751Y-88740641D01*
X134259805Y-88762611D01*
X134271869Y-88769577D01*
X134424597Y-88810500D01*
X134424599Y-88810500D01*
X141414250Y-88810500D01*
X141481289Y-88830185D01*
X141527044Y-88882989D01*
X141536988Y-88952147D01*
X141535036Y-88959252D01*
X141535603Y-88959366D01*
X141535280Y-88960985D01*
X141533767Y-88963871D01*
X141528784Y-88982018D01*
X141528533Y-88982623D01*
X141524764Y-88981059D01*
X141502859Y-89022877D01*
X141501357Y-89024405D01*
X138237584Y-92288181D01*
X138176261Y-92321666D01*
X138149903Y-92324500D01*
X130907708Y-92324500D01*
X130840669Y-92304815D01*
X130794914Y-92252011D01*
X130785461Y-92186273D01*
X130784589Y-92186175D01*
X130805565Y-92000003D01*
X130805565Y-91999996D01*
X130785369Y-91820750D01*
X130785368Y-91820745D01*
X130778678Y-91801627D01*
X130725789Y-91650478D01*
X130629816Y-91497738D01*
X130502262Y-91370184D01*
X130497920Y-91367456D01*
X130349523Y-91274211D01*
X130179254Y-91214631D01*
X130179249Y-91214630D01*
X130000004Y-91194435D01*
X129999996Y-91194435D01*
X129820750Y-91214630D01*
X129820745Y-91214631D01*
X129650476Y-91274211D01*
X129497735Y-91370186D01*
X129492606Y-91374276D01*
X129427918Y-91400681D01*
X129415686Y-91401324D01*
X106638542Y-91472577D01*
X106571441Y-91453103D01*
X106525521Y-91400442D01*
X106515362Y-91331315D01*
X106515389Y-91331117D01*
X106530647Y-91225000D01*
X106510165Y-91082543D01*
X106450377Y-90951627D01*
X106450374Y-90951624D01*
X106445582Y-90944166D01*
X106448364Y-90942377D01*
X106426031Y-90893456D01*
X106435984Y-90824299D01*
X106461088Y-90788147D01*
X106505520Y-90743716D01*
X106584577Y-90606784D01*
X106625500Y-90454057D01*
X106625500Y-90295943D01*
X106584577Y-90143216D01*
X106567010Y-90112788D01*
X106505524Y-90006290D01*
X106505518Y-90006282D01*
X106393717Y-89894481D01*
X106393709Y-89894475D01*
X106256790Y-89815426D01*
X106256786Y-89815424D01*
X106256784Y-89815423D01*
X106104057Y-89774500D01*
X106104056Y-89774500D01*
X105972309Y-89774500D01*
X105905270Y-89754815D01*
X105884628Y-89738181D01*
X105759128Y-89612681D01*
X105725643Y-89551358D01*
X105730373Y-89485218D01*
X105825000Y-89485218D01*
X105825000Y-89564782D01*
X105855448Y-89638291D01*
X105911709Y-89694552D01*
X105985218Y-89725000D01*
X106064782Y-89725000D01*
X106138291Y-89694552D01*
X106194552Y-89638291D01*
X106225000Y-89564782D01*
X106225000Y-89524999D01*
X106378553Y-89524999D01*
X106378553Y-89525001D01*
X106776651Y-89923099D01*
X106776652Y-89923099D01*
X106805790Y-89872631D01*
X106861003Y-89702702D01*
X106861004Y-89702700D01*
X106879681Y-89525000D01*
X106861004Y-89347299D01*
X106861003Y-89347297D01*
X106805793Y-89177375D01*
X106805790Y-89177369D01*
X106776651Y-89126899D01*
X106378553Y-89524999D01*
X106225000Y-89524999D01*
X106225000Y-89485218D01*
X106194552Y-89411709D01*
X106138291Y-89355448D01*
X106064782Y-89325000D01*
X105985218Y-89325000D01*
X105911709Y-89355448D01*
X105855448Y-89411709D01*
X105825000Y-89485218D01*
X105730373Y-89485218D01*
X105730627Y-89481666D01*
X105759128Y-89437319D01*
X106391989Y-88804458D01*
X106453312Y-88770973D01*
X106521173Y-88775826D01*
X106537146Y-88774253D01*
X106636880Y-88624991D01*
X106708492Y-88452103D01*
X106708493Y-88452100D01*
X106713884Y-88425000D01*
X105961988Y-88425000D01*
X105979205Y-88415060D01*
X106035060Y-88359205D01*
X106074556Y-88290796D01*
X106095000Y-88214496D01*
X106095000Y-88135504D01*
X106074556Y-88059204D01*
X106035060Y-87990795D01*
X105979205Y-87934940D01*
X105961988Y-87925000D01*
X106713884Y-87925000D01*
X106713884Y-87924999D01*
X106708493Y-87897899D01*
X106708492Y-87897896D01*
X106636880Y-87725008D01*
X106636875Y-87724999D01*
X106532913Y-87569410D01*
X106532910Y-87569406D01*
X106400593Y-87437089D01*
X106400589Y-87437086D01*
X106245000Y-87333124D01*
X106244991Y-87333119D01*
X106072105Y-87261508D01*
X106072097Y-87261506D01*
X105888570Y-87225000D01*
X105295000Y-87225000D01*
X105295000Y-87875000D01*
X104795000Y-87875000D01*
X104795000Y-87225000D01*
X104201430Y-87225000D01*
X104017902Y-87261506D01*
X104017894Y-87261508D01*
X103845008Y-87333119D01*
X103844999Y-87333124D01*
X103689410Y-87437086D01*
X103689406Y-87437089D01*
X103557089Y-87569406D01*
X103557086Y-87569410D01*
X103453124Y-87724999D01*
X103453119Y-87725008D01*
X103381507Y-87897896D01*
X103381506Y-87897899D01*
X103376115Y-87924999D01*
X102983884Y-87924999D01*
X102978493Y-87897899D01*
X102978492Y-87897896D01*
X102906880Y-87725008D01*
X102906875Y-87724999D01*
X102802913Y-87569410D01*
X102802910Y-87569406D01*
X102670593Y-87437089D01*
X102670589Y-87437086D01*
X102515000Y-87333124D01*
X102514991Y-87333119D01*
X102342105Y-87261508D01*
X102342097Y-87261506D01*
X102158570Y-87225000D01*
X101915000Y-87225000D01*
X101915000Y-87875000D01*
X101415000Y-87875000D01*
X101415000Y-87225000D01*
X101171430Y-87225000D01*
X100987902Y-87261506D01*
X100987894Y-87261508D01*
X100815008Y-87333119D01*
X100814999Y-87333124D01*
X100693391Y-87414381D01*
X100626713Y-87435259D01*
X100559333Y-87416774D01*
X100512643Y-87364796D01*
X100500500Y-87311279D01*
X100500500Y-50624500D01*
X100520185Y-50557461D01*
X100572989Y-50511706D01*
X100624500Y-50500500D01*
X179375500Y-50500500D01*
X179442539Y-50520185D01*
G37*
G04 #@! TD.AperFunction*
G04 #@! TD*
M02*
