M48
INCH,TZ
T1C0.0079
T2C0.0118
T3C0.0157
T4C0.0236
T5C0.0394
T6C0.0433
%
G90
G05
T1
X58376Y-31992
X58376Y-32543
X58652Y-31717
X58652Y-32268
X58652Y-32819
X58927Y-31992
X58927Y-32543
X59203Y-31717
X59203Y-32268
X59203Y-32819
X59478Y-31992
X59478Y-32543
T2
X40551Y-40551
X45079Y-41142
X46850Y-44291
X49606Y-28937
X50394Y-45669
X51181Y-36220
X51378Y-34055
X53740Y-37598
X54528Y-32677
X54724Y-36811
X57087Y-41339
T3
X41211Y-35246
X41211Y-35581
X41211Y-35915
X41211Y-36250
X41211Y-36585
X41211Y-36919
X41211Y-37254
X41211Y-37589
X41742Y-35246
X41742Y-35581
X41742Y-35915
X41742Y-36250
X41742Y-36585
X41742Y-36919
X41742Y-37254
X41742Y-37589
T5
X49016Y-30693
X49016Y-31693
X49016Y-32693
X52559Y-30709
X52559Y-31709
X52559Y-32709
X54016Y-45669
X55016Y-45669
X56016Y-45669
X56433Y-38551
X57016Y-45669
X57433Y-38551
X58433Y-38551
X59433Y-38551
X60433Y-38551
X61433Y-38551
X62433Y-38551
X65945Y-29709
X65945Y-30709
X65945Y-31709
X65945Y-32709
X65945Y-33709
X65945Y-34709
T6
X43996Y-30413
X43996Y-32185
X46555Y-30413
X46555Y-32185
T4
G00X40183Y-34715
M15
G01X39868Y-34715
M16
G05
G00X40183Y-38120
M15
G01X39868Y-38120
M16
G05
G00X41652Y-34715
M15
G01X41061Y-34715
M16
G05
G00X41652Y-38120
M15
G01X41061Y-38120
M16
G05
M30
