G04 #@! TF.GenerationSoftware,KiCad,Pcbnew,8.0.4*
G04 #@! TF.CreationDate,2024-10-11T16:18:39-05:00*
G04 #@! TF.ProjectId,final_project_v0.1,66696e61-6c5f-4707-926f-6a6563745f76,rev?*
G04 #@! TF.SameCoordinates,Original*
G04 #@! TF.FileFunction,Copper,L2,Bot*
G04 #@! TF.FilePolarity,Positive*
%FSLAX46Y46*%
G04 Gerber Fmt 4.6, Leading zero omitted, Abs format (unit mm)*
G04 Created by KiCad (PCBNEW 8.0.4) date 2024-10-11 16:18:39*
%MOMM*%
%LPD*%
G01*
G04 APERTURE LIST*
%ADD10C,0.300000*%
G04 #@! TA.AperFunction,NonConductor*
%ADD11C,0.300000*%
G04 #@! TD*
G04 #@! TA.AperFunction,NonConductor*
%ADD12C,0.200000*%
G04 #@! TD*
G04 #@! TA.AperFunction,ComponentPad*
%ADD13R,1.700000X1.700000*%
G04 #@! TD*
G04 #@! TA.AperFunction,ComponentPad*
%ADD14O,1.700000X1.700000*%
G04 #@! TD*
G04 #@! TA.AperFunction,ComponentPad*
%ADD15C,2.000000*%
G04 #@! TD*
G04 #@! TA.AperFunction,ComponentPad*
%ADD16C,0.700000*%
G04 #@! TD*
G04 #@! TA.AperFunction,ComponentPad*
%ADD17O,2.400000X0.900000*%
G04 #@! TD*
G04 #@! TA.AperFunction,ComponentPad*
%ADD18O,1.700000X0.900000*%
G04 #@! TD*
G04 #@! TA.AperFunction,HeatsinkPad*
%ADD19C,0.600000*%
G04 #@! TD*
G04 #@! TA.AperFunction,ViaPad*
%ADD20C,0.600000*%
G04 #@! TD*
G04 #@! TA.AperFunction,Conductor*
%ADD21C,0.200000*%
G04 #@! TD*
G04 APERTURE END LIST*
D10*
D11*
X89878328Y-91999998D02*
X89878328Y-90999998D01*
X89878328Y-90999998D02*
X91378328Y-91642855D01*
X89878328Y-90142855D02*
X89878328Y-89999998D01*
X89878328Y-89999998D02*
X89949757Y-89857141D01*
X89949757Y-89857141D02*
X90021185Y-89785713D01*
X90021185Y-89785713D02*
X90164042Y-89714284D01*
X90164042Y-89714284D02*
X90449757Y-89642855D01*
X90449757Y-89642855D02*
X90806900Y-89642855D01*
X90806900Y-89642855D02*
X91092614Y-89714284D01*
X91092614Y-89714284D02*
X91235471Y-89785713D01*
X91235471Y-89785713D02*
X91306900Y-89857141D01*
X91306900Y-89857141D02*
X91378328Y-89999998D01*
X91378328Y-89999998D02*
X91378328Y-90142855D01*
X91378328Y-90142855D02*
X91306900Y-90285713D01*
X91306900Y-90285713D02*
X91235471Y-90357141D01*
X91235471Y-90357141D02*
X91092614Y-90428570D01*
X91092614Y-90428570D02*
X90806900Y-90499998D01*
X90806900Y-90499998D02*
X90449757Y-90499998D01*
X90449757Y-90499998D02*
X90164042Y-90428570D01*
X90164042Y-90428570D02*
X90021185Y-90357141D01*
X90021185Y-90357141D02*
X89949757Y-90285713D01*
X89949757Y-90285713D02*
X89878328Y-90142855D01*
X91235471Y-88999999D02*
X91306900Y-88928570D01*
X91306900Y-88928570D02*
X91378328Y-88999999D01*
X91378328Y-88999999D02*
X91306900Y-89071427D01*
X91306900Y-89071427D02*
X91235471Y-88999999D01*
X91235471Y-88999999D02*
X91378328Y-88999999D01*
X89878328Y-87999998D02*
X89878328Y-87857141D01*
X89878328Y-87857141D02*
X89949757Y-87714284D01*
X89949757Y-87714284D02*
X90021185Y-87642856D01*
X90021185Y-87642856D02*
X90164042Y-87571427D01*
X90164042Y-87571427D02*
X90449757Y-87499998D01*
X90449757Y-87499998D02*
X90806900Y-87499998D01*
X90806900Y-87499998D02*
X91092614Y-87571427D01*
X91092614Y-87571427D02*
X91235471Y-87642856D01*
X91235471Y-87642856D02*
X91306900Y-87714284D01*
X91306900Y-87714284D02*
X91378328Y-87857141D01*
X91378328Y-87857141D02*
X91378328Y-87999998D01*
X91378328Y-87999998D02*
X91306900Y-88142856D01*
X91306900Y-88142856D02*
X91235471Y-88214284D01*
X91235471Y-88214284D02*
X91092614Y-88285713D01*
X91092614Y-88285713D02*
X90806900Y-88357141D01*
X90806900Y-88357141D02*
X90449757Y-88357141D01*
X90449757Y-88357141D02*
X90164042Y-88285713D01*
X90164042Y-88285713D02*
X90021185Y-88214284D01*
X90021185Y-88214284D02*
X89949757Y-88142856D01*
X89949757Y-88142856D02*
X89878328Y-87999998D01*
X89878328Y-86571427D02*
X89878328Y-86428570D01*
X89878328Y-86428570D02*
X89949757Y-86285713D01*
X89949757Y-86285713D02*
X90021185Y-86214285D01*
X90021185Y-86214285D02*
X90164042Y-86142856D01*
X90164042Y-86142856D02*
X90449757Y-86071427D01*
X90449757Y-86071427D02*
X90806900Y-86071427D01*
X90806900Y-86071427D02*
X91092614Y-86142856D01*
X91092614Y-86142856D02*
X91235471Y-86214285D01*
X91235471Y-86214285D02*
X91306900Y-86285713D01*
X91306900Y-86285713D02*
X91378328Y-86428570D01*
X91378328Y-86428570D02*
X91378328Y-86571427D01*
X91378328Y-86571427D02*
X91306900Y-86714285D01*
X91306900Y-86714285D02*
X91235471Y-86785713D01*
X91235471Y-86785713D02*
X91092614Y-86857142D01*
X91092614Y-86857142D02*
X90806900Y-86928570D01*
X90806900Y-86928570D02*
X90449757Y-86928570D01*
X90449757Y-86928570D02*
X90164042Y-86857142D01*
X90164042Y-86857142D02*
X90021185Y-86785713D01*
X90021185Y-86785713D02*
X89949757Y-86714285D01*
X89949757Y-86714285D02*
X89878328Y-86571427D01*
X89878328Y-85142856D02*
X89878328Y-84999999D01*
X89878328Y-84999999D02*
X89949757Y-84857142D01*
X89949757Y-84857142D02*
X90021185Y-84785714D01*
X90021185Y-84785714D02*
X90164042Y-84714285D01*
X90164042Y-84714285D02*
X90449757Y-84642856D01*
X90449757Y-84642856D02*
X90806900Y-84642856D01*
X90806900Y-84642856D02*
X91092614Y-84714285D01*
X91092614Y-84714285D02*
X91235471Y-84785714D01*
X91235471Y-84785714D02*
X91306900Y-84857142D01*
X91306900Y-84857142D02*
X91378328Y-84999999D01*
X91378328Y-84999999D02*
X91378328Y-85142856D01*
X91378328Y-85142856D02*
X91306900Y-85285714D01*
X91306900Y-85285714D02*
X91235471Y-85357142D01*
X91235471Y-85357142D02*
X91092614Y-85428571D01*
X91092614Y-85428571D02*
X90806900Y-85499999D01*
X90806900Y-85499999D02*
X90449757Y-85499999D01*
X90449757Y-85499999D02*
X90164042Y-85428571D01*
X90164042Y-85428571D02*
X90021185Y-85357142D01*
X90021185Y-85357142D02*
X89949757Y-85285714D01*
X89949757Y-85285714D02*
X89878328Y-85142856D01*
X89878328Y-83714285D02*
X89878328Y-83571428D01*
X89878328Y-83571428D02*
X89949757Y-83428571D01*
X89949757Y-83428571D02*
X90021185Y-83357143D01*
X90021185Y-83357143D02*
X90164042Y-83285714D01*
X90164042Y-83285714D02*
X90449757Y-83214285D01*
X90449757Y-83214285D02*
X90806900Y-83214285D01*
X90806900Y-83214285D02*
X91092614Y-83285714D01*
X91092614Y-83285714D02*
X91235471Y-83357143D01*
X91235471Y-83357143D02*
X91306900Y-83428571D01*
X91306900Y-83428571D02*
X91378328Y-83571428D01*
X91378328Y-83571428D02*
X91378328Y-83714285D01*
X91378328Y-83714285D02*
X91306900Y-83857143D01*
X91306900Y-83857143D02*
X91235471Y-83928571D01*
X91235471Y-83928571D02*
X91092614Y-84000000D01*
X91092614Y-84000000D02*
X90806900Y-84071428D01*
X90806900Y-84071428D02*
X90449757Y-84071428D01*
X90449757Y-84071428D02*
X90164042Y-84000000D01*
X90164042Y-84000000D02*
X90021185Y-83928571D01*
X90021185Y-83928571D02*
X89949757Y-83857143D01*
X89949757Y-83857143D02*
X89878328Y-83714285D01*
X91378328Y-81428572D02*
X90378328Y-81428572D01*
X90521185Y-81428572D02*
X90449757Y-81357143D01*
X90449757Y-81357143D02*
X90378328Y-81214286D01*
X90378328Y-81214286D02*
X90378328Y-81000000D01*
X90378328Y-81000000D02*
X90449757Y-80857143D01*
X90449757Y-80857143D02*
X90592614Y-80785715D01*
X90592614Y-80785715D02*
X91378328Y-80785715D01*
X90592614Y-80785715D02*
X90449757Y-80714286D01*
X90449757Y-80714286D02*
X90378328Y-80571429D01*
X90378328Y-80571429D02*
X90378328Y-80357143D01*
X90378328Y-80357143D02*
X90449757Y-80214286D01*
X90449757Y-80214286D02*
X90592614Y-80142857D01*
X90592614Y-80142857D02*
X91378328Y-80142857D01*
X91378328Y-79428572D02*
X90378328Y-79428572D01*
X90521185Y-79428572D02*
X90449757Y-79357143D01*
X90449757Y-79357143D02*
X90378328Y-79214286D01*
X90378328Y-79214286D02*
X90378328Y-79000000D01*
X90378328Y-79000000D02*
X90449757Y-78857143D01*
X90449757Y-78857143D02*
X90592614Y-78785715D01*
X90592614Y-78785715D02*
X91378328Y-78785715D01*
X90592614Y-78785715D02*
X90449757Y-78714286D01*
X90449757Y-78714286D02*
X90378328Y-78571429D01*
X90378328Y-78571429D02*
X90378328Y-78357143D01*
X90378328Y-78357143D02*
X90449757Y-78214286D01*
X90449757Y-78214286D02*
X90592614Y-78142857D01*
X90592614Y-78142857D02*
X91378328Y-78142857D01*
D12*
X99500000Y-50000000D02*
X91913580Y-50000000D01*
X99500000Y-120000000D02*
X91913580Y-120000000D01*
X92500000Y-50000000D02*
X92500000Y-120000000D01*
X92500000Y-50000000D02*
X92500000Y-120000000D01*
X92500000Y-50000000D02*
X93086421Y-51126504D01*
X92500000Y-50000000D02*
X91913579Y-51126504D01*
X92500000Y-120000000D02*
X91913579Y-118873496D01*
X92500000Y-120000000D02*
X93086421Y-118873496D01*
D10*
D11*
X133357144Y-121521185D02*
X133214287Y-121449757D01*
X133214287Y-121449757D02*
X133142858Y-121378328D01*
X133142858Y-121378328D02*
X133071430Y-121235471D01*
X133071430Y-121235471D02*
X133071430Y-121164042D01*
X133071430Y-121164042D02*
X133142858Y-121021185D01*
X133142858Y-121021185D02*
X133214287Y-120949757D01*
X133214287Y-120949757D02*
X133357144Y-120878328D01*
X133357144Y-120878328D02*
X133642858Y-120878328D01*
X133642858Y-120878328D02*
X133785716Y-120949757D01*
X133785716Y-120949757D02*
X133857144Y-121021185D01*
X133857144Y-121021185D02*
X133928573Y-121164042D01*
X133928573Y-121164042D02*
X133928573Y-121235471D01*
X133928573Y-121235471D02*
X133857144Y-121378328D01*
X133857144Y-121378328D02*
X133785716Y-121449757D01*
X133785716Y-121449757D02*
X133642858Y-121521185D01*
X133642858Y-121521185D02*
X133357144Y-121521185D01*
X133357144Y-121521185D02*
X133214287Y-121592614D01*
X133214287Y-121592614D02*
X133142858Y-121664042D01*
X133142858Y-121664042D02*
X133071430Y-121806900D01*
X133071430Y-121806900D02*
X133071430Y-122092614D01*
X133071430Y-122092614D02*
X133142858Y-122235471D01*
X133142858Y-122235471D02*
X133214287Y-122306900D01*
X133214287Y-122306900D02*
X133357144Y-122378328D01*
X133357144Y-122378328D02*
X133642858Y-122378328D01*
X133642858Y-122378328D02*
X133785716Y-122306900D01*
X133785716Y-122306900D02*
X133857144Y-122235471D01*
X133857144Y-122235471D02*
X133928573Y-122092614D01*
X133928573Y-122092614D02*
X133928573Y-121806900D01*
X133928573Y-121806900D02*
X133857144Y-121664042D01*
X133857144Y-121664042D02*
X133785716Y-121592614D01*
X133785716Y-121592614D02*
X133642858Y-121521185D01*
X134857144Y-120878328D02*
X135000001Y-120878328D01*
X135000001Y-120878328D02*
X135142858Y-120949757D01*
X135142858Y-120949757D02*
X135214287Y-121021185D01*
X135214287Y-121021185D02*
X135285715Y-121164042D01*
X135285715Y-121164042D02*
X135357144Y-121449757D01*
X135357144Y-121449757D02*
X135357144Y-121806900D01*
X135357144Y-121806900D02*
X135285715Y-122092614D01*
X135285715Y-122092614D02*
X135214287Y-122235471D01*
X135214287Y-122235471D02*
X135142858Y-122306900D01*
X135142858Y-122306900D02*
X135000001Y-122378328D01*
X135000001Y-122378328D02*
X134857144Y-122378328D01*
X134857144Y-122378328D02*
X134714287Y-122306900D01*
X134714287Y-122306900D02*
X134642858Y-122235471D01*
X134642858Y-122235471D02*
X134571429Y-122092614D01*
X134571429Y-122092614D02*
X134500001Y-121806900D01*
X134500001Y-121806900D02*
X134500001Y-121449757D01*
X134500001Y-121449757D02*
X134571429Y-121164042D01*
X134571429Y-121164042D02*
X134642858Y-121021185D01*
X134642858Y-121021185D02*
X134714287Y-120949757D01*
X134714287Y-120949757D02*
X134857144Y-120878328D01*
X136000000Y-122235471D02*
X136071429Y-122306900D01*
X136071429Y-122306900D02*
X136000000Y-122378328D01*
X136000000Y-122378328D02*
X135928572Y-122306900D01*
X135928572Y-122306900D02*
X136000000Y-122235471D01*
X136000000Y-122235471D02*
X136000000Y-122378328D01*
X137000001Y-120878328D02*
X137142858Y-120878328D01*
X137142858Y-120878328D02*
X137285715Y-120949757D01*
X137285715Y-120949757D02*
X137357144Y-121021185D01*
X137357144Y-121021185D02*
X137428572Y-121164042D01*
X137428572Y-121164042D02*
X137500001Y-121449757D01*
X137500001Y-121449757D02*
X137500001Y-121806900D01*
X137500001Y-121806900D02*
X137428572Y-122092614D01*
X137428572Y-122092614D02*
X137357144Y-122235471D01*
X137357144Y-122235471D02*
X137285715Y-122306900D01*
X137285715Y-122306900D02*
X137142858Y-122378328D01*
X137142858Y-122378328D02*
X137000001Y-122378328D01*
X137000001Y-122378328D02*
X136857144Y-122306900D01*
X136857144Y-122306900D02*
X136785715Y-122235471D01*
X136785715Y-122235471D02*
X136714286Y-122092614D01*
X136714286Y-122092614D02*
X136642858Y-121806900D01*
X136642858Y-121806900D02*
X136642858Y-121449757D01*
X136642858Y-121449757D02*
X136714286Y-121164042D01*
X136714286Y-121164042D02*
X136785715Y-121021185D01*
X136785715Y-121021185D02*
X136857144Y-120949757D01*
X136857144Y-120949757D02*
X137000001Y-120878328D01*
X138428572Y-120878328D02*
X138571429Y-120878328D01*
X138571429Y-120878328D02*
X138714286Y-120949757D01*
X138714286Y-120949757D02*
X138785715Y-121021185D01*
X138785715Y-121021185D02*
X138857143Y-121164042D01*
X138857143Y-121164042D02*
X138928572Y-121449757D01*
X138928572Y-121449757D02*
X138928572Y-121806900D01*
X138928572Y-121806900D02*
X138857143Y-122092614D01*
X138857143Y-122092614D02*
X138785715Y-122235471D01*
X138785715Y-122235471D02*
X138714286Y-122306900D01*
X138714286Y-122306900D02*
X138571429Y-122378328D01*
X138571429Y-122378328D02*
X138428572Y-122378328D01*
X138428572Y-122378328D02*
X138285715Y-122306900D01*
X138285715Y-122306900D02*
X138214286Y-122235471D01*
X138214286Y-122235471D02*
X138142857Y-122092614D01*
X138142857Y-122092614D02*
X138071429Y-121806900D01*
X138071429Y-121806900D02*
X138071429Y-121449757D01*
X138071429Y-121449757D02*
X138142857Y-121164042D01*
X138142857Y-121164042D02*
X138214286Y-121021185D01*
X138214286Y-121021185D02*
X138285715Y-120949757D01*
X138285715Y-120949757D02*
X138428572Y-120878328D01*
X139857143Y-120878328D02*
X140000000Y-120878328D01*
X140000000Y-120878328D02*
X140142857Y-120949757D01*
X140142857Y-120949757D02*
X140214286Y-121021185D01*
X140214286Y-121021185D02*
X140285714Y-121164042D01*
X140285714Y-121164042D02*
X140357143Y-121449757D01*
X140357143Y-121449757D02*
X140357143Y-121806900D01*
X140357143Y-121806900D02*
X140285714Y-122092614D01*
X140285714Y-122092614D02*
X140214286Y-122235471D01*
X140214286Y-122235471D02*
X140142857Y-122306900D01*
X140142857Y-122306900D02*
X140000000Y-122378328D01*
X140000000Y-122378328D02*
X139857143Y-122378328D01*
X139857143Y-122378328D02*
X139714286Y-122306900D01*
X139714286Y-122306900D02*
X139642857Y-122235471D01*
X139642857Y-122235471D02*
X139571428Y-122092614D01*
X139571428Y-122092614D02*
X139500000Y-121806900D01*
X139500000Y-121806900D02*
X139500000Y-121449757D01*
X139500000Y-121449757D02*
X139571428Y-121164042D01*
X139571428Y-121164042D02*
X139642857Y-121021185D01*
X139642857Y-121021185D02*
X139714286Y-120949757D01*
X139714286Y-120949757D02*
X139857143Y-120878328D01*
X141285714Y-120878328D02*
X141428571Y-120878328D01*
X141428571Y-120878328D02*
X141571428Y-120949757D01*
X141571428Y-120949757D02*
X141642857Y-121021185D01*
X141642857Y-121021185D02*
X141714285Y-121164042D01*
X141714285Y-121164042D02*
X141785714Y-121449757D01*
X141785714Y-121449757D02*
X141785714Y-121806900D01*
X141785714Y-121806900D02*
X141714285Y-122092614D01*
X141714285Y-122092614D02*
X141642857Y-122235471D01*
X141642857Y-122235471D02*
X141571428Y-122306900D01*
X141571428Y-122306900D02*
X141428571Y-122378328D01*
X141428571Y-122378328D02*
X141285714Y-122378328D01*
X141285714Y-122378328D02*
X141142857Y-122306900D01*
X141142857Y-122306900D02*
X141071428Y-122235471D01*
X141071428Y-122235471D02*
X140999999Y-122092614D01*
X140999999Y-122092614D02*
X140928571Y-121806900D01*
X140928571Y-121806900D02*
X140928571Y-121449757D01*
X140928571Y-121449757D02*
X140999999Y-121164042D01*
X140999999Y-121164042D02*
X141071428Y-121021185D01*
X141071428Y-121021185D02*
X141142857Y-120949757D01*
X141142857Y-120949757D02*
X141285714Y-120878328D01*
X143571427Y-122378328D02*
X143571427Y-121378328D01*
X143571427Y-121521185D02*
X143642856Y-121449757D01*
X143642856Y-121449757D02*
X143785713Y-121378328D01*
X143785713Y-121378328D02*
X143999999Y-121378328D01*
X143999999Y-121378328D02*
X144142856Y-121449757D01*
X144142856Y-121449757D02*
X144214285Y-121592614D01*
X144214285Y-121592614D02*
X144214285Y-122378328D01*
X144214285Y-121592614D02*
X144285713Y-121449757D01*
X144285713Y-121449757D02*
X144428570Y-121378328D01*
X144428570Y-121378328D02*
X144642856Y-121378328D01*
X144642856Y-121378328D02*
X144785713Y-121449757D01*
X144785713Y-121449757D02*
X144857142Y-121592614D01*
X144857142Y-121592614D02*
X144857142Y-122378328D01*
X145571427Y-122378328D02*
X145571427Y-121378328D01*
X145571427Y-121521185D02*
X145642856Y-121449757D01*
X145642856Y-121449757D02*
X145785713Y-121378328D01*
X145785713Y-121378328D02*
X145999999Y-121378328D01*
X145999999Y-121378328D02*
X146142856Y-121449757D01*
X146142856Y-121449757D02*
X146214285Y-121592614D01*
X146214285Y-121592614D02*
X146214285Y-122378328D01*
X146214285Y-121592614D02*
X146285713Y-121449757D01*
X146285713Y-121449757D02*
X146428570Y-121378328D01*
X146428570Y-121378328D02*
X146642856Y-121378328D01*
X146642856Y-121378328D02*
X146785713Y-121449757D01*
X146785713Y-121449757D02*
X146857142Y-121592614D01*
X146857142Y-121592614D02*
X146857142Y-122378328D01*
D12*
X100000000Y-120500000D02*
X100000000Y-124086420D01*
X180000000Y-120500000D02*
X180000000Y-124086420D01*
X100000000Y-123500000D02*
X180000000Y-123500000D01*
X100000000Y-123500000D02*
X180000000Y-123500000D01*
X100000000Y-123500000D02*
X101126504Y-122913579D01*
X100000000Y-123500000D02*
X101126504Y-124086421D01*
X180000000Y-123500000D02*
X178873496Y-124086421D01*
X180000000Y-123500000D02*
X178873496Y-122913579D01*
D13*
G04 #@! TO.P,MICCLK1,1,Pin_1*
G04 #@! TO.N,+3V3*
X133500000Y-78000000D03*
D14*
G04 #@! TO.P,MICCLK1,2,Pin_2*
G04 #@! TO.N,/MICSCK*
X133500000Y-80540000D03*
G04 #@! TO.P,MICCLK1,3,Pin_3*
G04 #@! TO.N,/MICWS*
X133500000Y-83080000D03*
G04 #@! TD*
D13*
G04 #@! TO.P,LCDDisplay1,1,Pin_1*
G04 #@! TO.N,GND*
X137200000Y-116000000D03*
D14*
G04 #@! TO.P,LCDDisplay1,2,Pin_2*
G04 #@! TO.N,+5V*
X139740000Y-116000000D03*
G04 #@! TO.P,LCDDisplay1,3,Pin_3*
G04 #@! TO.N,/SDA_LCD*
X142280000Y-116000000D03*
G04 #@! TO.P,LCDDisplay1,4,Pin_4*
G04 #@! TO.N,/SCL_LCD*
X144820000Y-116000000D03*
G04 #@! TD*
D13*
G04 #@! TO.P,AudioAmplifier1,1,Pin_1*
G04 #@! TO.N,/A_LRCLK*
X143340000Y-97920000D03*
D14*
G04 #@! TO.P,AudioAmplifier1,2,Pin_2*
G04 #@! TO.N,/A_BCLK*
X145880000Y-97920000D03*
G04 #@! TO.P,AudioAmplifier1,3,Pin_3*
G04 #@! TO.N,/A_Din*
X148420000Y-97920000D03*
G04 #@! TO.P,AudioAmplifier1,4,Pin_4*
G04 #@! TO.N,/A_GAIN*
X150960000Y-97920000D03*
G04 #@! TO.P,AudioAmplifier1,5,Pin_5*
G04 #@! TO.N,/A_SDMODEB*
X153500000Y-97920000D03*
G04 #@! TO.P,AudioAmplifier1,6,Pin_6*
G04 #@! TO.N,GND*
X156040000Y-97920000D03*
G04 #@! TO.P,AudioAmplifier1,7,Pin_7*
G04 #@! TO.N,+3V3*
X158580000Y-97920000D03*
G04 #@! TD*
D13*
G04 #@! TO.P,DebugSerialPort1,1,Pin_1*
G04 #@! TO.N,unconnected-(DebugSerialPort1-Pin_1-Pad1)*
X167500000Y-75460000D03*
D14*
G04 #@! TO.P,DebugSerialPort1,2,Pin_2*
G04 #@! TO.N,/RXS*
X167500000Y-78000000D03*
G04 #@! TO.P,DebugSerialPort1,3,Pin_3*
G04 #@! TO.N,/TXS*
X167500000Y-80540000D03*
G04 #@! TO.P,DebugSerialPort1,4,Pin_4*
G04 #@! TO.N,unconnected-(DebugSerialPort1-Pin_4-Pad4)*
X167500000Y-83080000D03*
G04 #@! TO.P,DebugSerialPort1,5,Pin_5*
G04 #@! TO.N,unconnected-(DebugSerialPort1-Pin_5-Pad5)*
X167500000Y-85620000D03*
G04 #@! TO.P,DebugSerialPort1,6,Pin_6*
G04 #@! TO.N,GND*
X167500000Y-88160000D03*
G04 #@! TD*
D15*
G04 #@! TO.P,SW1,1,1*
G04 #@! TO.N,+3V3*
X111750000Y-77250000D03*
X118250000Y-77250000D03*
G04 #@! TO.P,SW1,2,2*
G04 #@! TO.N,/MICEN*
X111750000Y-81750000D03*
X118250000Y-81750000D03*
G04 #@! TD*
D13*
G04 #@! TO.P,MICDA1,1,Pin_1*
G04 #@! TO.N,/MICEN*
X124500000Y-77960000D03*
D14*
G04 #@! TO.P,MICDA1,2,Pin_2*
G04 #@! TO.N,/MICSDA*
X124500000Y-80500000D03*
G04 #@! TO.P,MICDA1,3,Pin_3*
G04 #@! TO.N,GND*
X124500000Y-83040000D03*
G04 #@! TD*
D16*
G04 #@! TO.P,J1,A1,GND*
G04 #@! TO.N,GND*
X106025000Y-89525000D03*
G04 #@! TO.P,J1,A4,VBUS*
G04 #@! TO.N,+5V*
X106025000Y-90375000D03*
G04 #@! TO.P,J1,A5,CC1*
G04 #@! TO.N,unconnected-(J1-CC1-PadA5)*
X106025000Y-91225000D03*
G04 #@! TO.P,J1,A6,D+*
G04 #@! TO.N,/D+*
X106025000Y-92075000D03*
G04 #@! TO.P,J1,A7,D-*
G04 #@! TO.N,/D-*
X106025000Y-92925000D03*
G04 #@! TO.P,J1,A8,SBU1*
G04 #@! TO.N,unconnected-(J1-SBU1-PadA8)*
X106025000Y-93775000D03*
G04 #@! TO.P,J1,A9,VBUS*
G04 #@! TO.N,+5V*
X106025000Y-94625000D03*
G04 #@! TO.P,J1,A12,GND*
G04 #@! TO.N,GND*
X106025000Y-95475000D03*
G04 #@! TO.P,J1,B1,GND*
X104675000Y-95475000D03*
G04 #@! TO.P,J1,B4,VBUS*
G04 #@! TO.N,+5V*
X104675000Y-94625000D03*
G04 #@! TO.P,J1,B5,CC2*
G04 #@! TO.N,unconnected-(J1-CC2-PadB5)*
X104675000Y-93775000D03*
G04 #@! TO.P,J1,B6,D+*
G04 #@! TO.N,unconnected-(J1-D+-PadB6)*
X104675000Y-92925000D03*
G04 #@! TO.P,J1,B7,D-*
G04 #@! TO.N,unconnected-(J1-D--PadB7)*
X104675000Y-92075000D03*
G04 #@! TO.P,J1,B8,SBU2*
G04 #@! TO.N,unconnected-(J1-SBU2-PadB8)*
X104675000Y-91225000D03*
G04 #@! TO.P,J1,B9,VBUS*
G04 #@! TO.N,+5V*
X104675000Y-90375000D03*
G04 #@! TO.P,J1,B12,GND*
G04 #@! TO.N,GND*
X104675000Y-89525000D03*
D17*
G04 #@! TO.P,J1,S1,SHIELD*
X105045000Y-88175000D03*
D18*
X101665000Y-88175000D03*
D17*
X105045000Y-96825000D03*
D18*
X101665000Y-96825000D03*
G04 #@! TD*
D19*
G04 #@! TO.P,U1,41,GND*
G04 #@! TO.N,GND*
X148275000Y-81260000D03*
X148275000Y-82660000D03*
X148975000Y-80560000D03*
X148975000Y-81960000D03*
X148975000Y-83360000D03*
X149675000Y-81260000D03*
X149675000Y-82660000D03*
X150375000Y-80560000D03*
X150375000Y-81960000D03*
X150375000Y-83360000D03*
X151075000Y-81260000D03*
X151075000Y-82660000D03*
G04 #@! TD*
D20*
G04 #@! TO.N,GND*
X145000000Y-105000000D03*
X128000000Y-116000000D03*
X103000000Y-103000000D03*
X119000000Y-112500000D03*
X114500000Y-104500000D03*
G04 #@! TO.N,+3V3*
X126000000Y-73500000D03*
X136500000Y-95500000D03*
G04 #@! TO.N,/D+*
X139000000Y-93500000D03*
X130000000Y-92000000D03*
G04 #@! TO.N,/MICSDA*
X130500000Y-86500000D03*
X138500000Y-83000000D03*
G04 #@! TD*
D21*
G04 #@! TO.N,GND*
X113000000Y-103000000D02*
X114500000Y-104500000D01*
X156040000Y-102086346D02*
X156040000Y-97920000D01*
X145000000Y-105000000D02*
X137200000Y-112800000D01*
X103000000Y-103000000D02*
X113000000Y-103000000D01*
X122500000Y-116000000D02*
X128000000Y-116000000D01*
X145000000Y-105000000D02*
X153126346Y-105000000D01*
X137200000Y-112800000D02*
X137200000Y-116000000D01*
X119000000Y-112500000D02*
X122500000Y-116000000D01*
X153126346Y-105000000D02*
X156040000Y-102086346D01*
G04 #@! TO.N,+3V3*
X136500000Y-95500000D02*
X132651471Y-95500000D01*
X126000000Y-88848529D02*
X126000000Y-73500000D01*
X132651471Y-95500000D02*
X126000000Y-88848529D01*
G04 #@! TO.N,/D+*
X130000000Y-92000000D02*
X137500000Y-92000000D01*
X137500000Y-92000000D02*
X139000000Y-93500000D01*
G04 #@! TO.N,/MICSDA*
X130500000Y-86500000D02*
X135000000Y-86500000D01*
X135000000Y-86500000D02*
X138500000Y-83000000D01*
G04 #@! TD*
M02*
