G04 #@! TF.GenerationSoftware,KiCad,Pcbnew,8.0.4*
G04 #@! TF.CreationDate,2024-10-11T16:18:39-05:00*
G04 #@! TF.ProjectId,final_project_v0.1,66696e61-6c5f-4707-926f-6a6563745f76,rev?*
G04 #@! TF.SameCoordinates,Original*
G04 #@! TF.FileFunction,Soldermask,Bot*
G04 #@! TF.FilePolarity,Negative*
%FSLAX46Y46*%
G04 Gerber Fmt 4.6, Leading zero omitted, Abs format (unit mm)*
G04 Created by KiCad (PCBNEW 8.0.4) date 2024-10-11 16:18:39*
%MOMM*%
%LPD*%
G01*
G04 APERTURE LIST*
%ADD10R,1.700000X1.700000*%
%ADD11O,1.700000X1.700000*%
%ADD12C,2.000000*%
%ADD13C,0.700000*%
%ADD14O,2.400000X0.900000*%
%ADD15O,1.700000X0.900000*%
G04 APERTURE END LIST*
D10*
G04 #@! TO.C,MICCLK1*
X133500000Y-78000000D03*
D11*
X133500000Y-80540000D03*
X133500000Y-83080000D03*
G04 #@! TD*
D10*
G04 #@! TO.C,LCDDisplay1*
X137200000Y-116000000D03*
D11*
X139740000Y-116000000D03*
X142280000Y-116000000D03*
X144820000Y-116000000D03*
G04 #@! TD*
D10*
G04 #@! TO.C,AudioAmplifier1*
X143340000Y-97920000D03*
D11*
X145880000Y-97920000D03*
X148420000Y-97920000D03*
X150960000Y-97920000D03*
X153500000Y-97920000D03*
X156040000Y-97920000D03*
X158580000Y-97920000D03*
G04 #@! TD*
D10*
G04 #@! TO.C,DebugSerialPort1*
X167500000Y-75460000D03*
D11*
X167500000Y-78000000D03*
X167500000Y-80540000D03*
X167500000Y-83080000D03*
X167500000Y-85620000D03*
X167500000Y-88160000D03*
G04 #@! TD*
D12*
G04 #@! TO.C,SW1*
X111750000Y-77250000D03*
X118250000Y-77250000D03*
X111750000Y-81750000D03*
X118250000Y-81750000D03*
G04 #@! TD*
D10*
G04 #@! TO.C,MICDA1*
X124500000Y-77960000D03*
D11*
X124500000Y-80500000D03*
X124500000Y-83040000D03*
G04 #@! TD*
D13*
G04 #@! TO.C,J1*
X106025000Y-89525000D03*
X106025000Y-90375000D03*
X106025000Y-91225000D03*
X106025000Y-92075000D03*
X106025000Y-92925000D03*
X106025000Y-93775000D03*
X106025000Y-94625000D03*
X106025000Y-95475000D03*
X104675000Y-95475000D03*
X104675000Y-94625000D03*
X104675000Y-93775000D03*
X104675000Y-92925000D03*
X104675000Y-92075000D03*
X104675000Y-91225000D03*
X104675000Y-90375000D03*
X104675000Y-89525000D03*
D14*
X105045000Y-88175000D03*
D15*
X101665000Y-88175000D03*
D14*
X105045000Y-96825000D03*
D15*
X101665000Y-96825000D03*
G04 #@! TD*
M02*
