%TF.GenerationSoftware,KiCad,Pcbnew,8.0.4*%
%TF.CreationDate,2024-10-11T16:18:34-05:00*%
%TF.ProjectId,final_project_v0.1,66696e61-6c5f-4707-926f-6a6563745f76,rev?*%
%TF.SameCoordinates,Original*%
%TF.FileFunction,Drillmap*%
%TF.FilePolarity,Positive*%
%FSLAX45Y45*%
G04 Gerber Fmt 4.5, Leading zero omitted, Abs format (unit mm)*
G04 Created by KiCad (PCBNEW 8.0.4) date 2024-10-11 16:18:34*
%MOMM*%
%LPD*%
G01*
G04 APERTURE LIST*
%ADD10C,0.050000*%
%ADD11C,0.200000*%
G04 APERTURE END LIST*
D10*
X10000000Y-5000000D02*
X18000000Y-5000000D01*
X18000000Y-12000000D01*
X10000000Y-12000000D01*
X10000000Y-5000000D01*
D11*
X10258277Y-12313984D02*
X10258277Y-12113984D01*
X10258277Y-12113984D02*
X10305896Y-12113984D01*
X10305896Y-12113984D02*
X10334467Y-12123508D01*
X10334467Y-12123508D02*
X10353515Y-12142555D01*
X10353515Y-12142555D02*
X10363039Y-12161603D01*
X10363039Y-12161603D02*
X10372563Y-12199698D01*
X10372563Y-12199698D02*
X10372563Y-12228269D01*
X10372563Y-12228269D02*
X10363039Y-12266365D01*
X10363039Y-12266365D02*
X10353515Y-12285412D01*
X10353515Y-12285412D02*
X10334467Y-12304460D01*
X10334467Y-12304460D02*
X10305896Y-12313984D01*
X10305896Y-12313984D02*
X10258277Y-12313984D01*
X10458277Y-12313984D02*
X10458277Y-12180650D01*
X10458277Y-12218746D02*
X10467801Y-12199698D01*
X10467801Y-12199698D02*
X10477324Y-12190174D01*
X10477324Y-12190174D02*
X10496372Y-12180650D01*
X10496372Y-12180650D02*
X10515420Y-12180650D01*
X10582086Y-12313984D02*
X10582086Y-12180650D01*
X10582086Y-12113984D02*
X10572563Y-12123508D01*
X10572563Y-12123508D02*
X10582086Y-12133031D01*
X10582086Y-12133031D02*
X10591610Y-12123508D01*
X10591610Y-12123508D02*
X10582086Y-12113984D01*
X10582086Y-12113984D02*
X10582086Y-12133031D01*
X10705896Y-12313984D02*
X10686848Y-12304460D01*
X10686848Y-12304460D02*
X10677324Y-12285412D01*
X10677324Y-12285412D02*
X10677324Y-12113984D01*
X10810658Y-12313984D02*
X10791610Y-12304460D01*
X10791610Y-12304460D02*
X10782086Y-12285412D01*
X10782086Y-12285412D02*
X10782086Y-12113984D01*
X11039229Y-12313984D02*
X11039229Y-12113984D01*
X11039229Y-12113984D02*
X11105896Y-12256841D01*
X11105896Y-12256841D02*
X11172563Y-12113984D01*
X11172563Y-12113984D02*
X11172563Y-12313984D01*
X11353515Y-12313984D02*
X11353515Y-12209222D01*
X11353515Y-12209222D02*
X11343991Y-12190174D01*
X11343991Y-12190174D02*
X11324943Y-12180650D01*
X11324943Y-12180650D02*
X11286848Y-12180650D01*
X11286848Y-12180650D02*
X11267801Y-12190174D01*
X11353515Y-12304460D02*
X11334467Y-12313984D01*
X11334467Y-12313984D02*
X11286848Y-12313984D01*
X11286848Y-12313984D02*
X11267801Y-12304460D01*
X11267801Y-12304460D02*
X11258277Y-12285412D01*
X11258277Y-12285412D02*
X11258277Y-12266365D01*
X11258277Y-12266365D02*
X11267801Y-12247317D01*
X11267801Y-12247317D02*
X11286848Y-12237793D01*
X11286848Y-12237793D02*
X11334467Y-12237793D01*
X11334467Y-12237793D02*
X11353515Y-12228269D01*
X11448753Y-12180650D02*
X11448753Y-12380650D01*
X11448753Y-12190174D02*
X11467801Y-12180650D01*
X11467801Y-12180650D02*
X11505896Y-12180650D01*
X11505896Y-12180650D02*
X11524943Y-12190174D01*
X11524943Y-12190174D02*
X11534467Y-12199698D01*
X11534467Y-12199698D02*
X11543991Y-12218746D01*
X11543991Y-12218746D02*
X11543991Y-12275888D01*
X11543991Y-12275888D02*
X11534467Y-12294936D01*
X11534467Y-12294936D02*
X11524943Y-12304460D01*
X11524943Y-12304460D02*
X11505896Y-12313984D01*
X11505896Y-12313984D02*
X11467801Y-12313984D01*
X11467801Y-12313984D02*
X11448753Y-12304460D01*
X11629705Y-12294936D02*
X11639229Y-12304460D01*
X11639229Y-12304460D02*
X11629705Y-12313984D01*
X11629705Y-12313984D02*
X11620182Y-12304460D01*
X11620182Y-12304460D02*
X11629705Y-12294936D01*
X11629705Y-12294936D02*
X11629705Y-12313984D01*
X11629705Y-12190174D02*
X11639229Y-12199698D01*
X11639229Y-12199698D02*
X11629705Y-12209222D01*
X11629705Y-12209222D02*
X11620182Y-12199698D01*
X11620182Y-12199698D02*
X11629705Y-12190174D01*
X11629705Y-12190174D02*
X11629705Y-12209222D01*
M02*
